<?xml version="1.0" standalone="no"?>
<!DOCTYPE svg PUBLIC "-//W3C//DTD SVG 1.1//EN" "http://www.w3.org/Graphics/SVG/1.1/DTD/svg11.dtd" >
<svg>
<metadata>
Created by FontForge 20090622 at Thu Apr 14 21:40:59 2016
 By deploy user
Copyright (c) 2011 by The Entente. All rights reserved. wf-rip
</metadata>
<defs>
<font id="Relative-10Pitch" horiz-adv-x="1232" >
  <font-face 
    font-family="Relative 10 Pitch"
    font-weight="400"
    font-stretch="normal"
    units-per-em="2048"
    panose-1="2 0 5 6 4 0 0 2 0 4"
    ascent="1638"
    descent="-410"
    x-height="1028"
    cap-height="1434"
    bbox="-25 -561 1274 1880"
    underline-thickness="102"
    underline-position="-102"
    unicode-range="U+0020-U+FB02"
  />
<missing-glyph 
d="M164 20v1393q0 20 20 21h865q20 0 20 -21v-1393q0 -20 -20 -20h-865q-20 0 -20 20zM336 164h561v1106h-561v-1106z" />
    <glyph glyph-name="fi" unicode="fi" 
d="M63 897v111q0 20 21 20h160v90q0 145 78.5 240.5t226.5 95.5q119 0 211 -41q16 -8 16 -35v-108q0 -20 -14 -21q-6 0 -14 4q-106 49 -187 50q-158 0 -158 -185v-90h349q20 0 20 -20v-111q0 -20 -20 -20h-349v-857q0 -20 -20 -20h-119q-20 0 -20 20v857h-160q-21 0 -21 20z
M918 1217v176q0 20 20 20h176q20 0 21 -20v-176q0 -20 -21 -21h-176q-20 1 -20 21zM961 20v988q0 20 20 20h119q20 0 20 -20v-988q0 -20 -20 -20h-119q-20 0 -20 20z" />
    <glyph glyph-name="fl" unicode="fl" 
d="M63 897v111q0 20 21 20h160v90q0 145 78.5 240.5t226.5 95.5q119 0 211 -41q16 -8 16 -35v-108q0 -20 -14 -21q-6 0 -14 4q-106 49 -187 50q-158 0 -158 -185v-90h349q20 0 20 -20v-111q0 -20 -20 -20h-349v-857q0 -20 -20 -20h-119q-20 0 -20 20v857h-160q-21 0 -21 20z
M961 20v1393q0 20 20 21h119q20 0 20 -21v-1393q0 -20 -20 -20h-119q-20 0 -20 20z" />
    <glyph glyph-name=".notdef" 
d="M164 20v1393q0 20 20 21h865q20 0 20 -21v-1393q0 -20 -20 -20h-865q-20 0 -20 20zM336 164h561v1106h-561v-1106z" />
    <glyph glyph-name="NULL" horiz-adv-x="0" 
 />
    <glyph glyph-name="CR.001" horiz-adv-x="682" 
 />
    <glyph glyph-name="space" unicode=" " 
 />
    <glyph glyph-name="exclam" unicode="!" 
d="M496 20v201q0 20 20 21h201q20 0 20 -21v-201q0 -20 -20 -20h-201q-20 0 -20 20zM530 399v1014q0 20 21 21h131q20 0 20 -21v-1014q0 -20 -20 -20h-131q-21 0 -21 20z" />
    <glyph glyph-name="quotedbl" unicode="&#x22;" 
d="M369 983v430q0 20 20 21h119q20 0 20 -21v-430q0 -20 -20 -20h-119q-20 0 -20 20zM705 983v430q0 20 20 21h119q20 0 20 -21v-430q0 -20 -20 -20h-119q-20 0 -20 20z" />
    <glyph glyph-name="numbersign" unicode="#" 
d="M100 426v123q0 20 21 20h182l47 295h-147q-20 0 -21 21v123q0 20 21 20h174l59 385q2 20 23 21h131q18 0 18 -21l-59 -385h254l59 385q2 20 23 21h131q18 0 18 -21l-59 -385h155q20 0 21 -20v-123q0 -20 -21 -21h-182l-47 -295h148q20 0 20 -20v-123q0 -20 -20 -20h-175
l-59 -386q-2 -20 -22 -20h-131q-18 0 -19 20l59 386h-253l-60 -386q-2 -20 -22 -20h-131q-18 0 -19 20l59 386h-155q-21 0 -21 20zM475 569h254l47 295h-254z" />
    <glyph glyph-name="dollar" unicode="$" 
d="M90 424q0 20 21 20h131q20 0 20 -20q0 -102 66.5 -177t181.5 -97v534q-193 57 -293 141t-100 238q0 162 110.5 263t282.5 122v170q0 20 20 20h132q20 0 20 -20v-170q180 -25 286.5 -134.5t106.5 -258.5q0 -20 -20 -21h-131q-20 0 -21 21q0 76 -62.5 141.5t-158.5 87.5
v-477q104 -29 174 -57.5t135.5 -72.5t98 -105.5t32.5 -141.5q0 -205 -121.5 -317.5t-318.5 -128.5v-168q0 -20 -20 -21h-132q-20 0 -20 21v170q-188 25 -304 142.5t-116 295.5zM289 1075q0 -147 221 -219v428q-100 -16 -160.5 -71.5t-60.5 -137.5zM682 147q125 16 196.5 83
t71.5 186q0 82 -70.5 133t-197.5 88v-490z" />
    <glyph glyph-name="percent" unicode="%" 
d="M23 1128.5q0 149.5 90 237.5t217 88t217 -88t90 -237.5t-90 -237.5t-217 -88t-217 88t-90 237.5zM141 1128.5q0 -108.5 53.5 -162t135.5 -53.5t135 53.5t53 162t-53 161.5t-135 53t-135.5 -53t-53.5 -161.5zM158 326q0 8 6 14l803 834q8 8 14 8t14 -8l52 -52q8 -8 8 -14
q0 -8 -6 -14l-803 -834q-8 -8 -14.5 -8t-14.5 8l-51 51q-8 9 -8 15zM575 305.5q0 149.5 90.5 237.5t217.5 88t217 -88t90 -237.5t-90 -237.5t-217 -88t-217.5 88t-90.5 237.5zM694 305.5q0 -108.5 53.5 -162t135.5 -53.5t135 53.5t53 162t-53 161.5t-135 53t-135.5 -53
t-53.5 -161.5z" />
    <glyph glyph-name="ampersand" unicode="&#x26;" 
d="M84 426q0 258 287 422l-6 10q-100 143 -101 291q0 131 90 218t246 87q152 0 240 -85t88 -206q0 -115 -52.5 -188.5t-156.5 -124.5l-111 -55l256 -363q31 115 31 285q0 18 20 18h248q20 0 21 -20v-123q0 -20 -21 -21h-112q-12 -174 -72 -299l172 -239q6 -12 6 -19
q0 -14 -16 -14h-156q-14 0 -27 18l-77 109q-141 -147 -369 -147q-176 0 -302 116.5t-126 329.5zM256 403q0 -119 76 -191.5t180 -72.5q180 0 274 121l-323 459q-207 -126 -207 -316zM428 1133q0 -49 18.5 -92.5t71.5 -120.5l125 57q121 53 121 176q0 61 -45 105.5t-119 44.5
q-80 0 -126 -45t-46 -125z" />
    <glyph glyph-name="quotesingle" unicode="'" 
d="M537 983v430q0 20 20 21h119q20 0 20 -21v-430q0 -20 -20 -20h-119q-20 0 -20 20z" />
    <glyph glyph-name="parenleft" unicode="(" 
d="M410 311v408q0 240 82.5 389t308.5 336q10 6 14 6q6 0 14 -8l80 -96q6 -10 6 -15q0 -6 -8 -14q-143 -123 -202.5 -193.5t-91 -178t-31.5 -290.5v-280q0 -182 31.5 -290t91 -178.5t202.5 -193.5q8 -8 8 -14t-6 -14l-80 -97q-8 -8 -14 -8q-4 0 -14 6q-225 186 -308 335.5
t-83 389.5z" />
    <glyph glyph-name="parenright" unicode=")" 
d="M328 -301q0 6 8 14q143 123 202.5 193.5t91.5 178.5t32 290v280q0 182 -32 290t-91.5 178.5t-202.5 193.5q-8 8 -8 14q0 4 6 15l80 96q8 8 14 8t14 -6q225 -186 308.5 -336t83.5 -389v-408q0 -240 -83 -389t-309 -336q-8 -6 -14 -6t-14 8l-80 97q-6 8 -6 14z" />
    <glyph glyph-name="asterisk" unicode="*" 
d="M238 1114l2 8l30 99q4 14 17 14q2 0 10 -2l248 -80v260q0 20 20 21h103q20 0 20 -21v-260l248 80l10 2q12 0 17 -14l30 -99q2 -6 2 -8q0 -12 -14 -18l-248 -80l154 -211q6 -10 6 -14q0 -8 -8 -15l-84 -61q-10 -6 -17 -6q-8 0 -14 10l-154 211l-153 -211q-6 -10 -14 -10
q-6 0 -17 6l-84 61q-8 6 -8 15q0 4 6 14l154 211l-248 80q-14 6 -14 18z" />
    <glyph glyph-name="plus" unicode="+" 
d="M176 641v119q0 20 21 20h340v340q0 20 20 21h119q20 0 20 -21v-340h340q20 0 21 -20v-119q0 -20 -21 -20h-340v-340q0 -20 -20 -21h-119q-20 0 -20 21v340h-340q-21 0 -21 20z" />
    <glyph glyph-name="comma" unicode="," 
d="M492 20v209q0 20 20 21h209q20 0 20 -21v-288q0 -166 -157 -166h-72q-20 0 -20 20v74q0 20 20 20q57 0 75.5 19.5t18.5 77.5v14h-94q-20 0 -20 20z" />
    <glyph glyph-name="hyphen" unicode="-" 
d="M231 641v119q0 20 21 20h729q20 0 20 -20v-119q0 -20 -20 -20h-729q-21 0 -21 20z" />
    <glyph glyph-name="period" unicode="." 
d="M492 20v209q0 20 20 21h209q20 0 20 -21v-209q0 -20 -20 -20h-209q-20 0 -20 20z" />
    <glyph glyph-name="slash" unicode="/" 
d="M115 10q0 2 4 10l784 1393q12 20 29 21h145q16 0 17 -11q0 -2 -4 -10l-785 -1393q-12 -20 -29 -20h-145q-16 0 -16 10z" />
    <glyph glyph-name="zero" unicode="0" 
d="M113 716.5q0 354.5 138 546t365.5 191.5t365.5 -191.5t138 -546t-138 -545.5t-365.5 -191t-365.5 191t-138 545.5zM285 717q0 -360 121 -492l290 1061q-33 8 -80 8q-164 0 -247.5 -137t-83.5 -440zM537 147q33 -8 79 -8q164 0 248 137.5t84 440.5q0 360 -121 491z" />
    <glyph glyph-name="one" unicode="1" 
d="M242 20v119q0 20 20 21h328v1046l-299 -162q-12 -6 -23 -6q-14 0 -14 19v141q0 18 22 31l357 194q16 10 31 11h73q20 0 21 -21v-1253h327q20 0 21 -21v-119q0 -20 -21 -20h-823q-20 0 -20 20z" />
    <glyph glyph-name="two" unicode="2" 
d="M154 20v86q0 29 22 48l565 544q84 80 115 155t31 175q0 123 -74 194.5t-203 71.5q-135 0 -210.5 -78.5t-75.5 -197.5q0 -31 -27 -31h-117q-25 0 -24 31q4 188 124.5 312t329.5 124q199 0 322 -118.5t123 -297.5q0 -141 -45 -242.5t-144 -195.5l-460 -440h673q20 0 21 -21
v-119q0 -20 -21 -20h-905q-20 0 -20 20z" />
    <glyph glyph-name="three" unicode="3" 
d="M129 418q0 35 27 35h110q27 0 29 -27q14 -133 97 -210t218 -77q139 0 221 72t82 213q0 125 -76.5 192.5t-222.5 67.5h-120q-23 6 -23 23v114q0 23 23 23h104q129 0 193.5 55t64.5 180q0 102 -69.5 158.5t-182.5 56.5q-111 0 -186.5 -62.5t-83.5 -170.5q-2 -25 -27 -25
h-112q-27 0 -27 35q10 170 135 276.5t301 106.5q184 0 298 -96t114 -258q0 -121 -42 -197t-134 -129q242 -94 241 -356q0 -197 -131 -317.5t-340 -120.5q-199 0 -333 121.5t-148 316.5z" />
    <glyph glyph-name="four" unicode="4" 
d="M100 315v76q0 25 17 47l647 979q10 16 27 17h98q20 0 20 -21v-958h197q20 0 20 -21v-119q0 -20 -20 -20h-197v-275q0 -20 -22 -20h-125q-20 0 -21 20v275h-620q-21 0 -21 20zM311 455h430v639z" />
    <glyph glyph-name="five" unicode="5" 
d="M150 399q0 31 24 31h117q20 0 26 -31q16 -113 102.5 -186.5t209.5 -73.5q152 0 230.5 85t78.5 241q0 152 -81 239t-228 87q-160 0 -295 -125q-18 -18 -35 -19h-119q-20 0 -20 21l88 745q2 20 20 21h729q20 0 21 -21v-119q0 -20 -21 -20h-604l-57 -428q162 104 323 104
q209 0 328 -128t119 -353q0 -229 -134 -359t-343 -130q-199 0 -336 119.5t-143 299.5z" />
    <glyph glyph-name="six" unicode="6" 
d="M150 653q0 399 137 600t375 201q174 0 285.5 -95t137.5 -261q0 -20 -22 -21h-123q-16 0 -22 21q-27 104 -96.5 154.5t-159.5 50.5q-145 0 -236.5 -132.5t-95.5 -398.5q63 76 155.5 115t184.5 39q205 0 328.5 -125t123.5 -348q0 -217 -138 -345t-333 -128
q-225 0 -363 158.5t-138 514.5zM348 452.5q0 -135.5 84 -224.5t219 -89t219 89t84 224.5t-84 224.5t-219 89t-219 -89t-84 -224.5z" />
    <glyph glyph-name="seven" unicode="7" 
d="M162 1294v119q0 20 20 21h893q20 0 21 -21v-78q0 -23 -11 -51l-512 -1270q-6 -14 -22 -14h-131q-20 0 -21 16q0 6 4 15l502 1243h-723q-20 0 -20 20z" />
    <glyph glyph-name="eight" unicode="8" 
d="M150 406q0 248 225 356q-182 111 -182 313q0 172 123.5 275.5t300 103.5t300 -103.5t123.5 -275.5q0 -203 -182 -313q225 -109 225 -356q0 -186 -130 -306t-336.5 -120t-336.5 120t-130 306zM317 405.5q0 -122.5 83 -194.5t216.5 -72t216 72t82.5 194.5t-82.5 196.5
t-216 74t-216.5 -74t-83 -196.5zM352 1067q0 -104 71 -170t193.5 -66t193.5 66t71 170q0 106 -73 166.5t-191.5 60.5t-191.5 -60.5t-73 -166.5z" />
    <glyph glyph-name="nine" unicode="9" 
d="M123 981q0 217 138 345t333 128q225 0 363.5 -158.5t138.5 -515.5q0 -399 -137.5 -599.5t-374.5 -200.5q-174 0 -286 95t-138 261q0 20 22 20h123q16 0 23 -20q27 -104 96.5 -154.5t159.5 -50.5q145 0 236 132t95 399q-63 -76 -155 -115t-185 -39q-205 0 -328.5 125
t-123.5 348zM291 981q0 -135 84 -224t219 -89t219 89t84 224t-84 224t-219 89t-219 -89t-84 -224z" />
    <glyph glyph-name="colon" unicode=":" 
d="M492 20v209q0 20 20 21h209q20 0 20 -21v-209q0 -20 -20 -20h-209q-20 0 -20 20zM492 737v209q0 20 20 21h209q20 0 20 -21v-209q0 -20 -20 -20h-209q-20 0 -20 20z" />
    <glyph glyph-name="semicolon" unicode=";" 
d="M492 20v209q0 20 20 21h209q20 0 20 -21v-288q0 -166 -157 -166h-72q-20 0 -20 20v74q0 20 20 20q57 0 75.5 19.5t18.5 77.5v14h-94q-20 0 -20 20zM492 737v209q0 20 20 21h209q20 0 20 -21v-209q0 -20 -20 -20h-209q-20 0 -20 20z" />
    <glyph glyph-name="less" unicode="&#x3c;" 
d="M178 522v152q0 18 21 26l813 371q6 2 10 2q10 0 10 -12v-150q0 -20 -20 -28l-650 -285l650 -285q20 -8 20 -28v-150q0 -12 -10 -12q-4 0 -10 2l-813 371q-21 8 -21 26z" />
    <glyph glyph-name="equal" unicode="=" 
d="M176 348v119q0 20 21 20h839q20 0 21 -20v-119q0 -20 -21 -20h-839q-21 0 -21 20zM176 764v119q0 20 21 20h839q20 0 21 -20v-119q0 -20 -21 -21h-839q-21 1 -21 21z" />
    <glyph glyph-name="greater" unicode="&#x3e;" 
d="M201 135v150q0 20 20 28l649 285l-649 285q-20 8 -20 28v150q0 12 10 12q4 0 10 -2l813 -371q20 -8 21 -26v-152q0 -18 -21 -26l-813 -371q-6 -2 -10 -2q-10 0 -10 12z" />
    <glyph glyph-name="question" unicode="?" 
d="M172 1049q6 170 130 287.5t325 117.5q193 0 307.5 -104.5t114.5 -276.5q0 -82 -35 -148.5t-85 -111.5l-101 -88q-50 -43 -84.5 -98.5t-34.5 -118.5v-109q0 -20 -21 -20h-131q-20 0 -20 20v95q0 90 34.5 163.5t85 121.5t100.5 91t85 94.5t35 108.5q0 96 -69 156.5
t-181.5 60.5t-192.5 -63.5t-94 -177.5q-2 -20 -21 -21h-126q-21 1 -21 21zM502 20v201q0 20 20 21h201q20 0 20 -21v-201q0 -20 -20 -20h-201q-20 0 -20 20z" />
    <glyph glyph-name="at" unicode="@" 
d="M63 592q0 373 168 607.5t453 234.5q225 0 354 -120t129 -319v-817q0 -18 -18 -18h-107q-18 0 -18 18v80q-92 -115 -254 -115q-168 0 -272.5 124t-104.5 325t104.5 324.5t272.5 123.5q172 0 254 -110v76q0 129 -82 208.5t-258 79.5q-219 0 -344 -198.5t-125 -503.5
q0 -332 138.5 -513t377.5 -181q193 0 348 90q4 2 11 2q8 0 14 -10l49 -97q2 -4 2 -8q0 -10 -10 -16q-182 -100 -414 -101q-307 0 -487.5 208t-180.5 626zM545 592q0 -137 64.5 -223t183 -86t181 80.5t62.5 228t-62.5 228.5t-181 81t-183 -85t-64.5 -224z" />
    <glyph glyph-name="A" unicode="A" 
d="M31 20q0 6 2 13l479 1380q6 20 20 21h168q14 0 21 -21l479 -1380q2 -6 2 -13q0 -20 -22 -20h-140q-18 0 -24 20l-133 396h-535l-131 -396q-6 -20 -24 -20h-140q-22 0 -22 20zM401 580h428l-213 641z" />
    <glyph glyph-name="B" unicode="B" 
d="M188 20v1393q0 20 21 21h471q174 0 286.5 -90.5t112.5 -264.5q0 -233 -182 -319q244 -94 244 -352q0 -178 -113 -293t-311 -115h-508q-21 0 -21 20zM360 170h338q125 0 198 61.5t73 188.5q0 123 -73 187.5t-198 64.5h-338v-502zM360 836h330q217 0 217 215
q0 102 -60.5 157.5t-156.5 55.5h-330v-428z" />
    <glyph glyph-name="C" unicode="C" 
d="M94 716.5q0 356.5 158 547t403 190.5q211 0 348.5 -125t167.5 -360q0 -20 -22 -21h-125q-23 0 -25 21q-35 166 -111.5 243.5t-232.5 77.5q-180 0 -280.5 -147.5t-100.5 -426t100.5 -426t280.5 -147.5q160 0 235 77t109 245q2 20 25 20h125q23 0 22 -20
q-31 -236 -168 -360.5t-348 -124.5q-246 0 -403.5 190t-157.5 546.5z" />
    <glyph glyph-name="D" unicode="D" 
d="M154 20v1393q0 20 20 21h324q279 0 454.5 -181.5t175.5 -536t-176 -535.5t-454 -181h-324q-20 0 -20 20zM326 164h170q213 0 332.5 137t119.5 415.5t-119.5 416t-332.5 137.5h-170v-1106z" />
    <glyph glyph-name="E" unicode="E" 
d="M178 20v1393q0 20 21 21h860q20 0 20 -21v-123q0 -20 -20 -20h-709v-434h645q20 0 21 -21v-123q0 -20 -21 -20h-645v-508h723q20 0 21 -21v-123q0 -20 -21 -20h-874q-21 0 -21 20z" />
    <glyph glyph-name="F" unicode="F" 
d="M178 20v1393q0 20 21 21h891q20 0 20 -21v-123q0 -20 -20 -20h-740v-465h676q20 0 21 -21v-122q0 -20 -21 -21h-676v-621q0 -20 -20 -20h-131q-21 0 -21 20z" />
    <glyph glyph-name="G" unicode="G" 
d="M82 717q0 354 164 545.5t407 191.5q207 0 336 -118.5t154 -319.5q0 -20 -23 -21h-131q-23 0 -24 21q-29 137 -104 205.5t-208 68.5q-184 0 -287.5 -148.5t-103.5 -424.5q0 -281 105.5 -427.5t306.5 -146.5q227 0 317 193v229h-346q-20 0 -20 21v123q0 20 20 20h498
q20 0 20 -20v-367q0 -41 -20 -78q-66 -131 -186.5 -207.5t-282.5 -76.5q-260 0 -426 193.5t-166 543.5z" />
    <glyph glyph-name="H" unicode="H" 
d="M129 20v1393q0 20 21 21h131q20 0 20 -21v-584h631v584q0 20 20 21h131q20 0 21 -21v-1393q0 -20 -21 -20h-131q-20 0 -20 20v646h-631v-646q0 -20 -20 -20h-131q-21 0 -21 20z" />
    <glyph glyph-name="I" unicode="I" 
d="M176 20v123q0 20 21 21h333v1106h-313q-20 0 -20 20v123q0 20 20 21h799q20 0 20 -21v-123q0 -20 -20 -20h-314v-1106h334q20 0 21 -21v-123q0 -20 -21 -20h-839q-21 0 -21 20z" />
    <glyph glyph-name="J" unicode="J" 
d="M113 436q0 20 20 21h131q20 0 21 -21q0 -127 76.5 -210t199.5 -83q285 0 285 369v901q0 20 20 21h131q20 0 21 -21v-899q0 -266 -125 -400t-332 -134q-213 0 -330.5 127.5t-117.5 328.5z" />
    <glyph glyph-name="K" unicode="K" 
d="M176 20v1393q0 20 21 21h131q20 0 20 -21v-604l557 604q18 20 33 21h164q18 0 18 -15q0 -6 -6 -14l-459 -506l543 -870q4 -8 4 -13q0 -16 -18 -16h-158q-18 0 -37 31l-459 731l-182 -203v-539q0 -20 -20 -20h-131q-21 0 -21 20z" />
    <glyph glyph-name="L" unicode="L" 
d="M250 20v1393q0 20 20 21h131q20 0 21 -21v-1249h717q20 0 20 -21v-123q0 -20 -20 -20h-869q-20 0 -20 20z" />
    <glyph glyph-name="M" unicode="M" 
d="M119 20v1393q0 20 20 21h199q29 0 33 -17l245 -678l246 678q4 16 33 17h199q20 0 20 -21v-1393q0 -20 -20 -20h-131q-20 0 -21 20v1162l-246 -645q-4 -10 -26 -11h-107q-23 0 -26 11l-246 645v-1162q0 -20 -21 -20h-131q-20 0 -20 20z" />
    <glyph glyph-name="N" unicode="N" 
d="M131 20v1393q0 20 21 21h165q27 0 33 -17l580 -1122v1118q0 20 20 21h131q20 0 21 -21v-1393q0 -20 -21 -20h-166q-27 0 -32 16l-580 1123v-1119q0 -20 -20 -20h-131q-21 0 -21 20z" />
    <glyph glyph-name="O" unicode="O" 
d="M78 717q0 348 148.5 542.5t390 194.5t390 -194.5t148.5 -542.5t-148.5 -542.5t-390 -194.5t-390 194.5t-148.5 542.5zM258 716.5q0 -573.5 358.5 -573.5t358.5 573.5t-358.5 573.5t-358.5 -573.5z" />
    <glyph glyph-name="P" unicode="P" 
d="M195 20v1393q0 20 20 21h461q223 0 347 -106.5t124 -293t-124 -293t-347 -106.5h-309v-615q0 -20 -21 -20h-131q-20 0 -20 20zM367 799h340q260 0 260 235.5t-260 235.5h-340v-471z" />
    <glyph glyph-name="Q" unicode="Q" 
d="M78 717q0 348 148.5 542.5t390 194.5t390 -194.5t148.5 -542.5q0 -305 -121 -502l115 -109q8 -8 8 -14t-8 -14l-86 -90q-8 -8 -14.5 -8t-14.5 8l-106 102q-129 -111 -312 -110q-242 0 -390 194.5t-148 542.5zM258 716.5q0 -573.5 358 -573.5q113 0 193 62l-129 125
q-8 8 -8 14t8 14l86 91q8 8 14 8t15 -8l114 -113q66 141 66 381q0 573 -358.5 573t-358.5 -573.5z" />
    <glyph glyph-name="R" unicode="R" 
d="M158 20v1393q0 20 20 21h490q434 0 434 -379q0 -270 -268 -361l323 -674q2 -4 2 -8q0 -12 -18 -12h-152q-18 0 -28 20l-316 656h-315v-656q0 -20 -21 -20h-131q-20 0 -20 20zM330 840h358q242 0 242 215t-242 215h-358v-430z" />
    <glyph glyph-name="S" unicode="S" 
d="M90 424q0 20 21 20h131q20 0 20 -20q0 -121 94.5 -201t250 -80t249.5 69t94 204q0 51 -27.5 91t-85 68.5t-111.5 47t-138 41.5q-233 61 -352 147t-119 252q0 182 137 286.5t338 104.5q217 0 350 -115.5t133 -283.5q0 -20 -20 -21h-131q-20 0 -21 21q0 96 -91 165.5
t-220 69.5q-133 0 -218 -58t-85 -157q0 -41 12 -72.5t46 -58t57.5 -43t82.5 -36.5l84 -27q25 -8 95 -27q109 -31 180.5 -58.5t140 -71.5t102 -106.5t33.5 -144.5q0 -223 -144 -336.5t-371.5 -113.5t-372 121.5t-144.5 322.5z" />
    <glyph glyph-name="T" unicode="T" 
d="M90 1290v123q0 20 21 21h1011q20 0 21 -21v-123q0 -20 -21 -20h-420v-1250q0 -20 -20 -20h-131q-20 0 -21 20v1250h-419q-21 0 -21 20z" />
    <glyph glyph-name="U" unicode="U" 
d="M135 485v928q0 20 21 21h131q20 0 20 -21v-905q0 -365 309.5 -365t309.5 365v905q0 20 20 21h131q20 0 21 -21v-928q0 -233 -135.5 -369t-346 -136t-346 136t-135.5 369z" />
    <glyph glyph-name="V" unicode="V" 
d="M45 1421q0 12 18 13h152q18 0 25 -21l376 -1202l377 1202q6 20 25 21h151q18 0 19 -13l-2 -8l-449 -1393q-6 -20 -22 -20h-197q-16 0 -22 20l-449 1393q-2 6 -2 8z" />
    <glyph glyph-name="W" unicode="W" 
d="M41 1413q0 20 16 21h133q23 0 25 -21l115 -1192l194 885q6 20 25 20h135q18 0 25 -20l194 -885l115 1192q2 20 24 21h134q16 0 16 -21l-158 -1393q-2 -20 -22 -20h-191q-16 0 -22 20l-183 826l-182 -826q-6 -20 -22 -20h-191q-20 0 -22 20z" />
    <glyph glyph-name="X" unicode="X" 
d="M74 12q0 4 2 8l444 756l-375 637q-2 4 -2 8q0 12 17 13h149q16 0 29 -21l278 -473l279 473q12 20 29 21h149q16 0 17 -13q0 -4 -3 -8l-374 -637l444 -756q2 -4 2 -8q0 -12 -14 -12h-152q-16 0 -28 20l-349 592l-348 -592q-12 -20 -28 -20h-152q-14 0 -14 12z" />
    <glyph glyph-name="Y" unicode="Y" 
d="M80 1423q0 10 14 11h162q12 0 23 -17l337 -622l338 622q10 16 23 17h162q14 0 14 -11q0 -2 -4 -10l-447 -809v-584q0 -20 -20 -20h-131q-20 0 -21 20v584l-446 809q-4 8 -4 10z" />
    <glyph glyph-name="Z" unicode="Z" 
d="M129 20v123q0 16 12 35l748 1092h-713q-20 0 -20 20v123q0 20 20 21h885q20 0 20 -21v-123q0 -16 -12 -35l-745 -1091h772q20 0 20 -21v-123q0 -20 -20 -20h-946q-21 0 -21 20z" />
    <glyph glyph-name="bracketleft" unicode="[" 
d="M350 -385v1798q0 20 21 21h592q20 0 20 -21v-123q0 -20 -20 -20h-441v-1512h441q20 0 20 -20v-123q0 -20 -20 -21h-592q-21 1 -21 21z" />
    <glyph glyph-name="backslash" unicode="\" 
d="M139 1423q0 10 17 11h145q16 0 29 -21l784 -1393q4 -8 4 -10q0 -10 -16 -10h-146q-16 0 -28 20l-785 1393q-4 8 -4 10z" />
    <glyph glyph-name="bracketright" unicode="]" 
d="M250 -262q0 20 20 20h441v1512h-441q-20 0 -20 20v123q0 20 20 21h592q20 0 21 -21v-1798q0 -20 -21 -21h-592q-20 0 -20 21v123z" />
    <glyph glyph-name="asciicircum" unicode="^" 
d="M154 817q0 4 2 8l358 588q12 20 27 21h151q14 0 27 -21l358 -588q2 -4 2 -8q0 -12 -14 -12h-147q-14 0 -29 20l-273 453l-272 -453q-14 -20 -29 -20h-147q-14 0 -14 12z" />
    <glyph glyph-name="underscore" unicode="_" 
d="M176 -20q0 20 21 20h839q20 0 21 -20v-119q0 -20 -21 -21h-839q-20 0 -21 21v119z" />
    <glyph glyph-name="grave" unicode="`" 
d="M422 1423q0 10 12 11h207q18 0 31 -21l135 -258q2 -4 2 -8q0 -12 -12 -12h-131q-23 0 -37 18l-203 260q-4 6 -4 10z" />
    <glyph glyph-name="a" unicode="a" 
d="M164 307q0 164 114.5 252t292.5 88q143 0 326 -43v51q0 242 -264 242q-197 0 -258 -156q-6 -18 -29 -18h-131q-14 0 -14 12.5t2 20.5q33 123 144.5 208t285.5 85q203 0 313.5 -100.5t110.5 -268.5v-483q0 -113 35 -177q2 -4 2 -10q0 -10 -17 -10h-159q-20 0 -21 20v107
q-53 -70 -147.5 -108.5t-204.5 -38.5q-158 0 -269.5 84.5t-111.5 242.5zM332 307q0 -80 62.5 -128t168.5 -48q135 0 234.5 87t99.5 235q-174 43 -305 43q-113 0 -186.5 -49.5t-73.5 -139.5z" />
    <glyph glyph-name="b" unicode="b" 
d="M197 20v1393q0 20 20 21h119q20 0 20 -21v-502q131 137 326 138q205 0 329 -145.5t124 -389.5t-124 -389t-329 -145q-102 0 -189 37.5t-137 99.5v-97q0 -20 -20 -20h-119q-20 0 -20 20zM340 514q0 -166 84 -274.5t225 -108.5q147 0 232.5 108.5t85.5 274.5t-85 274.5
t-233 108.5q-141 0 -225 -108.5t-84 -274.5z" />
    <glyph glyph-name="c" unicode="c" 
d="M145 514.5q0 233.5 136.5 384t363.5 150.5q178 0 296 -91.5t159 -250.5q2 -8 2 -20.5t-15 -12.5h-124q-25 0 -29 18q-29 96 -103.5 150.5t-185.5 54.5q-147 0 -239.5 -105.5t-92.5 -277.5t92.5 -277.5t239.5 -105.5q111 0 185.5 54.5t103.5 150.5q4 18 29 18h124
q14 0 14.5 -12t-1.5 -20q-41 -160 -159 -251t-296 -91q-227 0 -363.5 150.5t-136.5 384z" />
    <glyph glyph-name="d" unicode="d" 
d="M135 514q0 244 124 389.5t329 145.5q195 0 325 -138v502q0 20 21 21h119q20 0 20 -21v-1393q0 -20 -20 -20h-119q-20 0 -21 20v97q-49 -61 -136 -99t-189 -38q-205 0 -329 145t-124 389zM303 514q0 -166 85 -274.5t233 -108.5q141 0 225 108.5t84 274.5t-84 274.5
t-225 108.5q-147 0 -232.5 -108.5t-85.5 -274.5z" />
    <glyph glyph-name="e" unicode="e" 
d="M143 514q0 229 137.5 382t356.5 153q223 0 351 -155t128 -380v-29q0 -20 -20 -20h-781q12 -152 95.5 -243t226.5 -91q111 0 177.5 45t103.5 143q6 18 28 19h133q14 0 15 -14q0 -8 -4 -21q-111 -324 -453 -323q-231 0 -362.5 150.5t-131.5 383.5zM324 616h612
q-25 127 -106.5 204t-192.5 77q-115 0 -201.5 -76t-111.5 -205z" />
    <glyph glyph-name="f" unicode="f" 
d="M164 897v111q0 20 20 20h283v90q0 137 80 236.5t225 99.5q127 0 223 -57q16 -12 17 -35v-109q0 -20 -15 -20q-8 0 -14 4q-100 66 -199 66q-74 0 -115.5 -49.5t-41.5 -135.5v-90h430q20 0 20 -20v-111q0 -20 -20 -20h-430v-857q0 -20 -21 -20h-119q-20 0 -20 20v857h-283
q-20 0 -20 20z" />
    <glyph glyph-name="g" unicode="g" 
d="M141 295q0 166 181 262q-27 66 -27 141q0 162 103.5 256.5t254.5 94.5q115 0 205 -58l137 123q8 8 17 8q6 0 16 -10l78 -82q8 -8 8 -16t-10 -19l-131 -125q41 -76 41 -172q0 -160 -100.5 -254t-260.5 -94q-154 0 -250 88q-102 -45 -102 -133q0 -55 35 -85t90 -30
q37 0 124 19.5t157 19.5q205 0 321.5 -83t116.5 -244q0 -152 -127 -240t-338 -88q-213 0 -342 87t-129 251q0 102 51 166q-119 67 -119 217zM369 -86q0 -92 85 -140t226 -48t223 47t82 129q0 176 -305 176q-72 0 -156 -15.5t-98 -17.5q-57 -49 -57 -131zM455 698
q0 -92 56 -144t142 -52t143.5 52t57.5 144q0 94 -57.5 146.5t-143.5 52.5t-142 -52.5t-56 -146.5z" />
    <glyph glyph-name="h" unicode="h" 
d="M207 20v1393q0 20 20 21h119q20 0 21 -21v-532q55 74 157.5 121t204.5 47q170 0 262 -88.5t92 -255.5v-685q0 -20 -20 -20h-119q-20 0 -20 20v648q0 117 -61.5 173t-170.5 56q-119 0 -222 -101.5t-103 -254.5v-521q0 -20 -21 -20h-119q-20 0 -20 20z" />
    <glyph glyph-name="i" unicode="i" 
d="M201 20v111q0 20 20 21h354v729h-303q-20 0 -20 20v107q0 20 20 20h443q20 0 20 -20v-856h355q20 0 20 -21v-111q0 -20 -20 -20h-869q-20 0 -20 20zM532 1237v176q0 20 21 21h176q20 0 21 -21v-176q0 -20 -21 -20h-176q-21 0 -21 20z" />
    <glyph glyph-name="j" unicode="j" 
d="M260 901v107q0 20 21 20h593q20 0 21 -20v-1114q0 -240 -61 -388q-6 -16 -17 -16l-8 2l-117 33q-16 6 -16 16l2 8q57 150 57 320v1012h-454q-21 0 -21 20zM686 1237v176q0 20 21 21h176q20 0 20 -21v-176q0 -20 -20 -20h-176q-21 0 -21 20z" />
    <glyph glyph-name="k" unicode="k" 
d="M213 20v1393q0 20 20 21h119q20 0 21 -21v-838l444 435q18 18 33 18h166q16 0 16 -14q0 -8 -8 -17l-354 -344l417 -622q4 -6 5 -15q0 -16 -19 -16h-145q-23 0 -33 18l-346 517l-176 -168v-347q0 -20 -21 -20h-119q-20 0 -20 20z" />
    <glyph glyph-name="l" unicode="l" 
d="M147 20v111q0 20 21 21h381v1130h-336q-20 0 -20 21v110q0 20 20 21h475q20 0 21 -21v-1261h381q20 0 20 -21v-111q0 -20 -20 -20h-922q-21 0 -21 20z" />
    <glyph glyph-name="m" unicode="m" 
d="M92 20v988q0 20 21 20h118q20 0 21 -20v-88q35 59 102.5 94t134.5 35q147 0 209 -123q92 123 242 123q117 0 173 -58.5t56 -193.5v-777q0 -20 -20 -20h-119q-20 0 -20 20v738q0 139 -115 139q-84 0 -134 -73.5t-50 -209.5v-594q0 -20 -21 -20h-119q-20 0 -20 20v721
q0 156 -115 156q-84 0 -134 -72.5t-50 -201.5v-603q0 -20 -21 -20h-118q-21 0 -21 20z" />
    <glyph glyph-name="n" unicode="n" 
d="M213 20v988q0 20 20 20h119q20 0 21 -20v-123q59 70 150 117t198 47q166 0 252 -90.5t86 -249.5v-689q0 -20 -21 -20h-118q-20 0 -21 20v658q0 111 -49 165t-162 54q-135 0 -225 -98.5t-90 -257.5v-521q0 -20 -21 -20h-119q-20 0 -20 20z" />
    <glyph glyph-name="o" unicode="o" 
d="M104 514q0 240 144.5 387.5t368 147.5t367.5 -147.5t144 -387.5t-144 -387t-367.5 -147t-368 147t-144.5 387zM272 514q0 -168 96.5 -275.5t248 -107.5t248 107.5t96.5 275.5t-96.5 275.5t-248 107.5t-248 -107.5t-96.5 -275.5z" />
    <glyph glyph-name="p" unicode="p" 
d="M201 -385v1393q0 20 20 20h119q20 0 20 -20v-97q49 61 136.5 99.5t189.5 38.5q205 0 329 -145.5t124 -389.5t-124 -389t-329 -145q-195 0 -326 137v-502q0 -20 -20 -21h-119q-20 1 -20 21zM344 514q0 -166 84 -274.5t225 -108.5q147 0 232.5 108.5t85.5 274.5t-85 274.5
t-233 108.5q-141 0 -225 -108.5t-84 -274.5z" />
    <glyph glyph-name="q" unicode="q" 
d="M111 514q0 244 123.5 389.5t328.5 145.5q102 0 189.5 -38t136.5 -100v97q0 20 20 20h119q20 0 21 -20v-1393q0 -20 -21 -21h-119q-20 0 -20 21v502q-131 -137 -326 -137q-205 0 -328.5 145t-123.5 389zM279 514q0 -166 85 -274.5t232 -108.5q141 0 225 108.5t84 274.5
t-84 274.5t-225 108.5q-147 0 -232 -108.5t-85 -274.5z" />
    <glyph glyph-name="r" unicode="r" 
d="M244 20v988q0 20 20 20h119q20 0 20 -20v-129q55 74 146.5 122t206.5 48q244 0 348 -220q4 -8 4 -14q0 -14 -12 -20l-119 -72q-6 -4 -14 -4q-12 0 -17 10q-57 92 -108.5 130t-143.5 38q-125 0 -208 -116.5t-83 -286.5v-474q0 -20 -20 -20h-119q-20 0 -20 20z" />
    <glyph glyph-name="s" unicode="s" 
d="M197 313q0 20 20 21h131q18 0 21 -21q12 -86 87.5 -134t186.5 -48t179.5 37t68.5 112.5t-70.5 112.5t-238.5 64q-188 31 -274.5 98.5t-86.5 200.5q0 139 114 216t286 77t280.5 -79t122.5 -216q0 -20 -20 -21h-115q-14 0 -21 21q-23 72 -92 107.5t-162 35.5
q-104 0 -168.5 -34t-64.5 -103q0 -74 65.5 -108t233.5 -64q84 -14 143.5 -32.5t117.5 -50.5t88 -83t30 -121q0 -152 -120 -236.5t-302 -84.5t-311 95t-129 238z" />
    <glyph glyph-name="t" unicode="t" 
d="M86 897v111q0 20 20 20h254v332q0 20 21 20h119q20 0 20 -20v-332h406q20 0 20 -20v-111q0 -20 -20 -20h-406v-480q0 -266 201 -266q100 0 150.5 52.5t64.5 158.5q2 18 22 18h119h8q2 0 5.5 -2t4.5 -6t1 -10q0 -150 -101.5 -256t-273.5 -106q-360 0 -361 415v482h-254
q-20 0 -20 20z" />
    <glyph glyph-name="u" unicode="u" 
d="M180 319v689q0 20 21 20h118q20 0 21 -20v-658q0 -111 49 -165t162 -54q135 0 225 98.5t90 257.5v521q0 20 21 20h119q20 0 20 -20v-988q0 -20 -20 -20h-119q-20 0 -21 20v123q-59 -70 -150 -116.5t-198 -46.5q-166 0 -252 89.5t-86 249.5z" />
    <glyph glyph-name="v" unicode="v" 
d="M102 1010q0 18 19 18h139q23 0 29 -20l327 -795l328 795q6 20 29 20h139q18 0 18 -18q0 -8 -2 -15l-415 -975q-8 -20 -21 -20h-151q-12 0 -21 20l-416 975q-2 7 -2 15z" />
    <glyph glyph-name="w" unicode="w" 
d="M33 1014q0 14 16 14h141q23 0 29 -20l141 -775l156 672q6 20 23 21h155q16 0 23 -21l155 -672l142 775q6 20 28 20h142q16 0 16 -14q0 -8 -2 -17l-219 -977q-4 -20 -27 -20h-145q-20 0 -27 20l-164 658l-163 -658q-6 -20 -27 -20h-145q-23 0 -27 20l-219 977q-2 9 -2 17z
" />
    <glyph glyph-name="x" unicode="x" 
d="M154 10q0 6 6 17l358 501l-328 473q-4 8 -4 13q0 14 15 14h147q18 0 29 -14l239 -352l240 352q10 14 29 14h147q14 0 15 -14q0 -4 -5 -13l-327 -473l358 -501q6 -10 6 -17q0 -10 -12 -10h-158q-16 0 -28 20l-265 375l-264 -375q-12 -20 -28 -20h-158q-12 0 -12 10z" />
    <glyph glyph-name="y" unicode="y" 
d="M141 1012q0 16 17 16h147q20 0 27 -20l321 -777l305 777q8 20 29 20h141q16 0 17 -14q0 -2 -4 -15l-441 -1099q-70 -174 -149.5 -250t-194.5 -76q-80 0 -151 33q-20 12 -21 33v110q0 20 17 21q8 0 51 -22.5t96 -22.5q72 0 112 56t101 214l4 12l-420 987q-4 13 -4 17z" />
    <glyph glyph-name="z" unicode="z" 
d="M213 20v111q0 14 12 31l584 715h-549q-20 0 -20 20v111q0 20 20 20h717q20 0 20 -20v-111q0 -20 -16 -43l-573 -702h608q20 0 20 -21v-111q0 -20 -20 -20h-783q-20 0 -20 20z" />
    <glyph glyph-name="braceleft" unicode="{" 
d="M293 453v122q0 20 20 21h90q109 0 109 119v319q0 209 76 304.5t233 95.5h142q20 0 20 -21v-123q0 -20 -20 -20h-142q-88 0 -112.5 -48t-24.5 -188v-352q0 -137 -117 -168q117 -31 117 -168v-352q0 -139 24.5 -187.5t112.5 -48.5h142q20 0 20 -20v-123q0 -20 -20 -21h-142
q-158 0 -233.5 95.5t-75.5 304.5v319q0 119 -109 119h-90q-20 1 -20 21z" />
    <glyph glyph-name="bar" unicode="|" 
d="M530 -184v1802q0 20 21 20h131q20 0 20 -20v-1802q0 -20 -20 -21h-131q-21 1 -21 21z" />
    <glyph glyph-name="braceright" unicode="}" 
d="M250 -262q0 20 20 20h142q88 0 112.5 48.5t24.5 187.5v352q0 137 117 168q-117 31 -117 168v352q0 139 -24.5 187.5t-112.5 48.5h-142q-20 0 -20 20v123q0 20 20 21h142q158 0 233.5 -95.5t75.5 -304.5v-319q0 -119 108 -119h91q20 0 20 -21v-122q0 -20 -20 -21h-91
q-109 0 -108 -119v-319q0 -209 -76 -304.5t-233 -95.5h-142q-20 0 -20 21v123z" />
    <glyph glyph-name="asciitilde" unicode="~" 
d="M176 719q0 14 19 26q100 74 233 74q84 0 203 -42t174 -42q76 0 153 51q8 4 15 5q10 0 20 -17l62 -102q2 -4 2 -8q0 -14 -19 -27q-100 -74 -233 -74q-84 0 -203 42t-174 42q-76 0 -154 -51q-8 -4 -14 -4q-10 0 -20 16l-62 103q-2 4 -2 8z" />
    <glyph glyph-name="uni00A0" unicode="&#xa0;" 
 />
    <glyph glyph-name="exclamdown" unicode="&#xa1;" 
d="M496 807v201q0 20 20 20h201q20 0 20 -20v-201q0 -20 -20 -21h-201q-20 1 -20 21zM530 -385v1014q0 20 21 20h131q20 0 20 -20v-1014q0 -20 -20 -21h-131q-21 1 -21 21z" />
    <glyph glyph-name="cent" unicode="&#xa2;" 
d="M125 717q0 209 111.5 353t302.5 173v170q0 20 20 21h131q20 0 21 -21v-168q143 -20 238 -108t130 -228q2 -8 2 -20t-14 -12h-125q-25 0 -29 18q-47 158 -202 195v-746q156 37 202 195q4 18 29 18h125q14 0 14 -12.5t-2 -20.5q-35 -141 -130 -228t-238 -108v-168
q0 -20 -21 -20h-131q-20 0 -20 20v168q-190 29 -302 173.5t-112 355.5zM293 716.5q0 -143.5 66.5 -243.5t179.5 -129v743q-113 -29 -179.5 -128t-66.5 -242.5z" />
    <glyph glyph-name="sterling" unicode="&#xa3;" 
d="M166 657v119q0 20 20 21h105q-43 121 -43 229q0 195 125 311.5t317 116.5q205 0 320.5 -115.5t115.5 -289.5q0 -20 -20 -21h-131q-20 0 -21 21q0 102 -73.5 171.5t-190.5 69.5q-125 0 -197.5 -70.5t-72.5 -193.5q0 -104 51 -229h467q20 0 20 -21v-119q0 -20 -20 -20h-428
q6 -37 6 -78q0 -211 -137 -395h747q20 0 21 -21v-123q0 -20 -21 -20h-907q-20 0 -20 20v144q0 18 16 41q70 90 99.5 169t29.5 195q0 33 -6 68h-152q-20 0 -20 20z" />
    <glyph glyph-name="currency" unicode="&#xa4;" 
d="M176 274.5q0 6.5 8 14.5l103 100q-63 100 -63.5 225t63.5 226l-103 100q-8 8 -8 14.5t8 14.5l78 78q8 8 14.5 8t14.5 -8l100 -101q96 66 225 66t226 -66l100 101q8 8 14.5 8t14.5 -8l78 -78q8 -8 8 -14.5t-8 -14.5l-103 -100q63 -100 63.5 -225.5t-63.5 -225.5l103 -100
q8 -8 8 -14.5t-8 -14.5l-78 -78q-8 -8 -14.5 -8t-14.5 8l-100 101q-96 -66 -225.5 -66t-225.5 66l-100 -101q-8 -8 -14.5 -8t-14.5 8l-78 78q-8 8 -8 14.5zM375 614.5q0 -116.5 65.5 -187.5t176 -71t176 71t65.5 187.5t-65.5 187t-176 70.5t-176 -70.5t-65.5 -187z" />
    <glyph glyph-name="yen" unicode="&#xa5;" 
d="M72 1421q0 12 12 13h166q12 0 22 -17l344 -635l345 635q10 16 22 17h166q12 0 12 -13q0 -4 -2 -8l-366 -649h237q20 0 21 -21v-118q0 -20 -21 -21h-328v-145h273q20 0 20 -21v-119q0 -20 -20 -20h-273v-279q0 -20 -20 -20h-131q-20 0 -21 20v279h-272q-20 0 -20 20v119
q0 20 20 21h272v145h-327q-20 0 -21 21v118q0 20 21 21h237l-366 649q-2 4 -2 8z" />
    <glyph glyph-name="brokenbar" unicode="&#xa6;" 
d="M530 -184v757q0 20 21 21h131q20 0 20 -21v-757q0 -20 -20 -21h-131q-21 1 -21 21zM530 860v758q0 20 21 20h131q20 0 20 -20v-758q0 -20 -20 -20h-131q-21 0 -21 20z" />
    <glyph glyph-name="section" unicode="&#xa7;" 
d="M221 594q0 78 29 134t98 114q-127 115 -127 268q0 164 120 254t286 90q193 0 308.5 -112.5t115.5 -272.5q0 -20 -21 -20h-131q-20 0 -20 20q0 96 -70 158.5t-182 62.5q-100 0 -167 -45t-67 -135q0 -76 57.5 -129t223.5 -154l171 -106q50 -33 110.5 -84t80 -97t19.5 -106
q0 -78 -29 -134t-98 -114q127 -115 127 -268q0 -164 -120 -254t-286 -90q-193 0 -308.5 112.5t-115.5 272.5q0 20 21 21h131q20 0 20 -21q0 -96 70 -158.5t182 -62.5q100 0 167 45t67 135q0 76 -57.5 129t-223.5 154l-171 106q-50 33 -110.5 84t-80 97.5t-19.5 105.5z
M393 612q0 -59 79 -123.5t319 -203.5q92 51 92 131q0 59 -79 123.5t-319 203.5q-92 -51 -92 -131z" />
    <glyph glyph-name="dieresis" unicode="&#xa8;" 
d="M340 1241v172q0 20 20 21h172q20 0 21 -21v-172q0 -20 -21 -20h-172q-20 0 -20 20zM680 1241v172q0 20 20 21h172q20 0 21 -21v-172q0 -20 -21 -20h-172q-20 0 -20 20z" />
    <glyph glyph-name="copyright" unicode="&#xa9;" 
d="M111 700.5q0 241.5 152.5 385t353 143.5t353 -143.5t152.5 -385t-152.5 -385t-353 -143.5t-353 143.5t-152.5 385zM207 700.5q0 -206.5 122 -322.5t287.5 -116t287.5 116t122 322.5t-122 322.5t-287.5 116t-287.5 -116t-122 -322.5zM358 700q0 147 77 229.5t181 82.5
q94 0 158 -52.5t76 -146.5q0 -14 -14 -14h-50q-16 0 -18 14q-29 121 -152 121q-76 0 -124 -60.5t-48 -173t49.5 -172t122.5 -59.5q123 0 152 121q2 14 18 14h50q14 0 14 -14q-12 -94 -75.5 -146.5t-158.5 -52.5q-104 0 -181 82t-77 227z" />
    <glyph glyph-name="ordfeminine" unicode="&#xaa;" 
d="M262 1050.5q0 176.5 98.5 288t241.5 111.5q166 0 250 -102v71q0 14 16 15h88q14 0 15 -15v-737q0 -14 -15 -14h-88q-16 0 -16 14v72q-84 -102 -250 -103q-143 0 -241.5 111.5t-98.5 288zM387 1051q0 -123 63.5 -204t174.5 -81q113 0 176 77t63 208t-63.5 207.5
t-175.5 76.5q-111 0 -174.5 -80.5t-63.5 -203.5z" />
    <glyph glyph-name="guillemotleft" unicode="&#xab;" 
d="M143 504v114q0 18 21 37l440 387q6 6 12 7q12 0 13 -15v-172q0 -20 -15 -33l-307 -268l307 -268q14 -12 15 -33v-172q0 -14 -13 -14q-6 0 -12 6l-440 387q-21 19 -21 37zM573 504v114q0 18 21 37l440 387q6 6 13 7q12 0 12 -15v-172q0 -20 -15 -33l-307 -268l307 -268
q14 -12 15 -33v-172q0 -14 -12 -14q-6 0 -13 6l-440 387q-21 19 -21 37z" />
    <glyph glyph-name="logicalnot" unicode="&#xac;" 
d="M182 598v102q0 20 21 21h794q20 0 21 -21v-378q0 -20 -21 -21h-118q-20 0 -21 21v256h-655q-21 0 -21 20z" />
    <glyph glyph-name="uni00AD" unicode="&#xad;" 
d="M231 641v119q0 20 21 20h729q20 0 20 -20v-119q0 -20 -20 -20h-729q-21 0 -21 20z" />
    <glyph glyph-name="registered" unicode="&#xae;" 
d="M111 700.5q0 241.5 152.5 385t353 143.5t353 -143.5t152.5 -385t-152.5 -385t-353 -143.5t-353 143.5t-152.5 385zM207 700.5q0 -206.5 122 -322.5t287.5 -116t287.5 116t122 322.5t-122 322.5t-287.5 116t-287.5 -116t-122 -322.5zM442 412v579q0 14 15 15h180
q92 0 142 -44t50 -124q0 -123 -122 -162l131 -264q2 -4 2 -9q0 -6 -9 -6h-63q-14 0 -20 13l-130 258h-94v-256q0 -14 -14 -15h-53q-15 1 -15 15zM524 745h121q102 0 103 93q0 90 -103 90h-121v-183z" />
    <glyph glyph-name="macron" unicode="&#xaf;" 
d="M397 1241v102q0 20 21 21h397q20 0 21 -21v-102q0 -20 -21 -20h-397q-21 0 -21 20z" />
    <glyph glyph-name="degree" unicode="&#xb0;" 
d="M250 1106q0 154 104.5 251t262 97t262 -97t104.5 -251t-104.5 -251t-262 -97t-262 97t-104.5 251zM393 1106q0 -100 63.5 -160.5t160 -60.5t160 60.5t63.5 160.5t-63.5 160.5t-160 60.5t-160 -60.5t-63.5 -160.5z" />
    <glyph glyph-name="plusminus" unicode="&#xb1;" 
d="M176 20v119q0 20 21 21h839q20 0 21 -21v-119q0 -20 -21 -20h-839q-21 0 -21 20zM176 674v119q0 20 21 20h340v340q0 20 20 21h119q20 0 20 -21v-340h340q20 0 21 -20v-119q0 -20 -21 -21h-340v-340q0 -20 -20 -20h-119q-20 0 -20 20v340h-340q-21 1 -21 21z" />
    <glyph glyph-name="uni00B2" unicode="&#xb2;" 
d="M371 688v62q0 18 12 28l311 271q82 70 82 155q0 57 -32.5 94t-94.5 37q-63 0 -101 -37.5t-46 -95.5q-2 -20 -21 -20h-80q-20 0 -20 20q4 102 77.5 173t190.5 71q115 0 180.5 -69.5t65.5 -170.5q0 -135 -115 -231l-229 -197h354q20 0 21 -20v-70q0 -20 -21 -20h-514
q-20 0 -20 20z" />
    <glyph glyph-name="uni00B3" unicode="&#xb3;" 
d="M328 891q0 20 20 20h78q18 0 20 -20q20 -125 150 -125q63 0 105 31.5t42 93.5q0 59 -38.5 91t-108.5 32h-57q-20 0 -21 20v70q0 20 21 20h41q135 0 135 119q0 43 -34 71.5t-85 28.5q-106 0 -125 -108q-2 -16 -20 -16h-72q-20 0 -21 18q4 90 70 149.5t168 59.5
t167.5 -57.5t65.5 -133.5q0 -115 -92 -172q125 -53 125 -192q0 -104 -76.5 -170t-187.5 -66q-106 0 -187 67t-83 169z" />
    <glyph glyph-name="acute" unicode="&#xb4;" 
d="M424 1147q0 4 2 8l135 258q12 20 31 21h207q12 0 12 -11q0 -4 -4 -10l-203 -260q-14 -18 -37 -18h-131q-12 0 -12 12z" />
    <glyph glyph-name="mu" unicode="&#xb5;" 
d="M180 -385v1393q0 20 21 20h118q20 0 21 -20v-658q0 -111 49 -165t162 -54q135 0 225 98.5t90 257.5v521q0 20 21 20h119q20 0 20 -20v-988q0 -20 -20 -20h-119q-20 0 -21 20v123q-59 -70 -150 -116.5t-198 -46.5q-109 0 -178 36v-401q0 -20 -21 -21h-118q-21 1 -21 21z
" />
    <glyph glyph-name="mu" unicode="&#x3bc;" 
d="M180 -385v1393q0 20 21 20h118q20 0 21 -20v-658q0 -111 49 -165t162 -54q135 0 225 98.5t90 257.5v521q0 20 21 20h119q20 0 20 -20v-988q0 -20 -20 -20h-119q-20 0 -21 20v123q-59 -70 -150 -116.5t-198 -46.5q-109 0 -178 36v-401q0 -20 -21 -21h-118q-21 1 -21 21z
" />
    <glyph glyph-name="paragraph" unicode="&#xb6;" 
d="M59 1085q0 162 101.5 255.5t281.5 93.5h662q20 0 20 -21v-123q0 -20 -20 -20h-121v-1454q0 -20 -20 -21h-132q-20 0 -20 21v1454h-152v-1454q0 -20 -20 -21h-131q-20 0 -21 21v923h-45q-180 0 -281.5 93t-101.5 253z" />
    <glyph glyph-name="periodcentered" unicode="&#xb7;" 
d="M492 612v209q0 20 20 21h209q20 0 20 -21v-209q0 -20 -20 -20h-209q-20 0 -20 20z" />
    <glyph glyph-name="cedilla" unicode="&#xb8;" 
d="M397 -326q0 20 21 21q4 0 68.5 -11.5t125.5 -11.5q90 0 90 63.5t-90 63.5q-68 0 -133 -14q-8 -2 -14 -2q-8 0 -14 6l-27 27q-4 4 -4 8q0 2 4 14l90 219q8 20 25 21h90q14 0 14 -10q0 -6 -2 -11l-98 -182q51 14 119 14q82 0 129 -39.5t47 -105.5q0 -170 -220 -170
q-115 0 -200 20q-20 6 -21 21v59z" />
    <glyph glyph-name="uni00B9" unicode="&#xb9;" 
d="M381 688v70q0 20 20 20h185v500l-158 -84q-12 -6 -20 -6q-16 0 -17 16v96q0 14 15 21l196 104q16 8 31 9h47q20 0 20 -21v-635h185q20 0 20 -20v-70q0 -20 -20 -20h-484q-20 0 -20 20z" />
    <glyph glyph-name="ordmasculine" unicode="&#xba;" 
d="M231 1050.5q0 180.5 109 290t276.5 109.5t276 -109.5t108.5 -290t-108.5 -290t-276 -109.5t-276.5 109.5t-109 290zM356 1051q0 -131 74 -208t186.5 -77t186.5 77t74 208t-74 207.5t-186.5 76.5t-186.5 -76.5t-74 -207.5z" />
    <glyph glyph-name="guillemotright" unicode="&#xbb;" 
d="M174 88v172q0 20 14 33l308 268l-308 268q-14 12 -14 33v172q0 14 12 15q6 0 13 -7l440 -387q20 -18 20 -37v-114q0 -18 -20 -37l-440 -387q-6 -6 -13 -6q-12 0 -12 14zM604 88v172q0 20 14 33l308 268l-308 268q-14 12 -14 33v172q0 14 12 15q6 0 13 -7l440 -387
q20 -18 21 -37v-114q0 -18 -21 -37l-440 -387q-6 -6 -13 -6q-12 0 -12 14z" />
    <glyph glyph-name="onequarter" unicode="&#xbc;" 
d="M106 688v70q0 20 21 20h184v500l-157 -84q-12 -6 -21 -6q-16 0 -16 16v96q0 14 14 21l197 104q16 8 30 9h48q20 0 20 -21v-635h184q20 0 21 -20v-70q0 -20 -21 -20h-483q-21 0 -21 20zM283 129q0 6 8 14l803 832q8 8 14 8q8 0 16 -8l52 -51q8 -8 8 -14.5t-8 -14.5
l-803 -832q-8 -8 -15 -8q-8 0 -16 8l-51 52q-8 8 -8 14zM530 -182q0 12 9 24l323 504q8 14 23 14h67q20 0 21 -20v-490h76q20 0 20 -20v-70q0 -20 -20 -20h-76v-125q0 -20 -21 -21h-73q-20 0 -21 21v125h-307q-20 0 -21 20v58zM680 -150h178v287z" />
    <glyph glyph-name="onehalf" unicode="&#xbd;" 
d="M106 688v70q0 20 21 20h184v500l-157 -84q-12 -6 -21 -6q-16 0 -16 16v96q0 14 14 21l197 104q16 8 30 9h48q20 0 20 -21v-635h184q20 0 21 -20v-70q0 -20 -21 -20h-483q-21 0 -21 20zM227 129q0 6 9 14l802 832q8 8 15 8q8 0 16 -8l51 -51q8 -8 8 -14.5t-8 -14.5
l-803 -832q-8 -8 -14 -8q-8 0 -16 8l-51 52q-9 8 -9 14zM594 -324q0 18 12 29l312 270q82 70 81 156q0 57 -32.5 94t-94.5 37q-63 0 -101 -38t-46 -95q-2 -20 -20 -20h-80q-20 0 -21 20q4 102 78 173t190 71q115 0 180.5 -70t65.5 -170q0 -135 -114 -231l-230 -197h354
q20 0 21 -20v-70q0 -20 -21 -21h-514q-20 0 -20 21v61z" />
    <glyph glyph-name="threequarters" unicode="&#xbe;" 
d="M88 891q0 20 21 20h77q18 0 21 -20q20 -125 149 -125q63 0 105.5 31.5t42.5 93.5q0 59 -39 91t-109 32h-57q-20 0 -20 20v70q0 20 20 20h41q135 0 135 119q0 43 -33.5 71.5t-85.5 28.5q-106 0 -125 -108q-2 -16 -20 -16h-72q-20 0 -20 18q4 90 69.5 149.5t168 59.5
t168 -57.5t65.5 -133.5q0 -115 -92 -172q125 -53 125 -192q0 -104 -77 -170t-188 -66q-106 0 -187 67t-83 169zM227 129q0 6 9 14l802 832q8 8 15 8q8 0 16 -8l51 -51q8 -8 8 -14.5t-8 -14.5l-803 -832q-8 -8 -14 -8q-8 0 -16 8l-51 52q-9 8 -9 14zM530 -182q0 12 9 24
l323 504q8 14 23 14h67q20 0 21 -20v-490h76q20 0 20 -20v-70q0 -20 -20 -20h-76v-125q0 -20 -21 -21h-73q-20 0 -21 21v125h-307q-20 0 -21 20v58zM680 -150h178v287z" />
    <glyph glyph-name="questiondown" unicode="&#xbf;" 
d="M184 -45q0 82 35 148.5t85 111.5l100 88q50 43 85 98.5t35 118.5v109q0 20 21 20h131q20 0 20 -20v-94q0 -90 -34.5 -164t-85 -122t-100.5 -91t-85 -94.5t-35 -108.5q0 -96 69 -156.5t181.5 -60.5t192.5 63.5t94 178.5q2 20 20 20h127q20 0 21 -20q-6 -170 -130 -288
t-325 -118q-193 0 -307.5 104.5t-114.5 276.5zM489 807v201q0 20 21 20h201q20 0 20 -20v-201q0 -20 -20 -21h-201q-21 1 -21 21z" />
    <glyph glyph-name="Agrave" unicode="&#xc0;" 
d="M31 20q0 6 2 13l479 1380q6 20 20 21h168q14 0 21 -21l479 -1380q2 -6 2 -13q0 -20 -22 -20h-140q-18 0 -24 20l-133 396h-535l-131 -396q-6 -20 -24 -20h-140q-22 0 -22 20zM319 1829q0 10 13 10h207q18 0 30 -20l136 -258q2 -4 2 -9q0 -12 -13 -12h-131q-23 0 -37 19
l-202 260q-5 6 -5 10zM401 580h428l-213 641z" />
    <glyph glyph-name="Aacute" unicode="&#xc1;" 
d="M31 20q0 6 2 13l479 1380q6 20 20 21h168q14 0 21 -21l479 -1380q2 -6 2 -13q0 -20 -22 -20h-140q-18 0 -24 20l-133 396h-535l-131 -396q-6 -20 -24 -20h-140q-22 0 -22 20zM401 580h428l-213 641zM526 1552q0 4 2 9l136 258q12 20 30 20h207q12 0 12 -10q0 -4 -4 -10
l-202 -260q-14 -18 -37 -19h-131q-13 0 -13 12z" />
    <glyph glyph-name="Acircumflex" unicode="&#xc2;" 
d="M31 20q0 6 2 13l479 1380q6 20 20 21h168q14 0 21 -21l479 -1380q2 -6 2 -13q0 -20 -22 -20h-140q-18 0 -24 20l-133 396h-535l-131 -396q-6 -20 -24 -20h-140q-22 0 -22 20zM317 1550l5 11l206 262q14 16 31 16h115q16 0 31 -16l206 -262q4 -4 4 -11q0 -10 -14 -10h-127
q-18 0 -37 19l-121 122l-120 -122q-18 -18 -37 -19h-127q-15 0 -15 10zM401 580h428l-213 641z" />
    <glyph glyph-name="Atilde" unicode="&#xc3;" 
d="M31 20q0 6 2 13l479 1380q6 20 20 21h168q14 0 21 -21l479 -1380q2 -6 2 -13q0 -20 -22 -20h-140q-18 0 -24 20l-133 396h-535l-131 -396q-6 -20 -24 -20h-140q-22 0 -22 20zM266 1743q0 8 10 18q96 78 211 78q84 0 146.5 -42t111.5 -42q47 0 125 51q8 4 15 4
q12 0 20 -16l58 -86q4 -6 4 -12q0 -8 -11 -19q-96 -78 -211 -78q-84 0 -146 42t-112 42q-47 0 -125 -51q-8 -4 -14 -4q-10 0 -20 17l-58 86q-4 6 -4 12zM401 580h428l-213 641z" />
    <glyph glyph-name="Adieresis" unicode="&#xc4;" 
d="M31 20q0 6 2 13l479 1380q6 20 20 21h168q14 0 21 -21l479 -1380q2 -6 2 -13q0 -20 -22 -20h-140q-18 0 -24 20l-133 396h-535l-131 -396q-6 -20 -24 -20h-140q-22 0 -22 20zM340 1647v172q0 20 20 20h172q20 0 21 -20v-172q0 -20 -21 -21h-172q-20 1 -20 21zM401 580
h428l-213 641zM680 1647v172q0 20 20 20h172q20 0 21 -20v-172q0 -20 -21 -21h-172q-20 1 -20 21z" />
    <glyph glyph-name="Aring" unicode="&#xc5;" 
d="M31 20q0 6 2 13l479 1380q6 20 20 21h168q14 0 21 -21l479 -1380q2 -6 2 -13q0 -20 -22 -20h-140q-18 0 -24 20l-133 396h-535l-131 -396q-6 -20 -24 -20h-140q-22 0 -22 20zM401 580h428l-213 641zM438 1708q0 76 50.5 124t128 48t128 -48t50.5 -124t-50.5 -124
t-128 -48t-128 48t-50.5 124zM537 1708q0 -37 22.5 -59.5t57 -22.5t57 22.5t22.5 59.5t-22.5 59.5t-57 22.5t-57 -22.5t-22.5 -59.5z" />
    <glyph glyph-name="AE" unicode="&#xc6;" 
d="M-25 20q0 6 2 13l381 1380q6 20 21 21h778q20 0 21 -21v-123q0 -20 -21 -20h-463v-434h404q20 0 20 -21v-123q0 -20 -20 -20h-404v-508h484q20 0 20 -21v-123q0 -20 -20 -20h-635q-20 0 -21 20v396h-268l-100 -396q-6 -20 -25 -20h-131q-23 0 -23 20zM297 580h225v690
h-47z" />
    <glyph glyph-name="Ccedilla" unicode="&#xc7;" 
d="M94 717q0 356 158 546.5t403 190.5q211 0 348.5 -125t167.5 -360q0 -20 -22 -21h-125q-23 0 -25 21q-35 166 -111.5 243.5t-232.5 77.5q-180 0 -280.5 -147.5t-100.5 -426t100.5 -426t280.5 -147.5q160 0 235 77t109 245q2 20 25 20h125q23 0 22 -20
q-31 -229 -159.5 -353t-331.5 -132l-55 -105q51 14 118 14q82 0 129.5 -39.5t47.5 -105.5q0 -170 -220 -170q-115 0 -200 20q-20 6 -21 21v59q0 20 21 21q4 0 68.5 -11.5t125.5 -11.5q90 0 90 63.5t-90 63.5q-68 0 -133 -14q-8 -2 -14 -2q-8 0 -15 6l-26 27q-4 4 -4 8
q0 2 4 14l59 150q-211 33 -341 220t-130 509z" />
    <glyph glyph-name="Egrave" unicode="&#xc8;" 
d="M178 20v1393q0 20 21 21h860q20 0 20 -21v-123q0 -20 -20 -20h-709v-434h645q20 0 21 -21v-123q0 -20 -21 -20h-645v-508h723q20 0 21 -21v-123q0 -20 -21 -20h-874q-21 0 -21 20zM389 1829q0 10 12 10h207q18 0 31 -20l135 -258q2 -4 2 -9q0 -12 -12 -12h-131
q-23 0 -37 19l-203 260q-4 6 -4 10z" />
    <glyph glyph-name="Eacute" unicode="&#xc9;" 
d="M178 20v1393q0 20 21 21h860q20 0 20 -21v-123q0 -20 -20 -20h-709v-434h645q20 0 21 -21v-123q0 -20 -21 -20h-645v-508h723q20 0 21 -21v-123q0 -20 -21 -20h-874q-21 0 -21 20zM498 1552q0 4 2 9l135 258q12 20 31 20h206q12 0 13 -10q0 -4 -4 -10l-203 -260
q-14 -18 -37 -19h-131q-12 0 -12 12z" />
    <glyph glyph-name="Ecircumflex" unicode="&#xca;" 
d="M178 20v1393q0 20 21 21h860q20 0 20 -21v-123q0 -20 -20 -20h-709v-434h645q20 0 21 -21v-123q0 -20 -21 -20h-645v-508h723q20 0 21 -21v-123q0 -20 -21 -20h-874q-21 0 -21 20zM334 1550l4 11l207 262q14 16 30 16h115q16 0 31 -16l207 -262q4 -4 4 -11q0 -10 -14 -10
h-127q-18 0 -37 19l-121 122l-121 -122q-18 -18 -37 -19h-127q-14 0 -14 10z" />
    <glyph glyph-name="Edieresis" unicode="&#xcb;" 
d="M178 20v1393q0 20 21 21h860q20 0 20 -21v-123q0 -20 -20 -20h-709v-434h645q20 0 21 -21v-123q0 -20 -21 -20h-645v-508h723q20 0 21 -21v-123q0 -20 -21 -20h-874q-21 0 -21 20zM369 1647v172q0 20 20 20h172q20 0 21 -20v-172q0 -20 -21 -21h-172q-20 1 -20 21z
M709 1647v172q0 20 20 20h172q20 0 21 -20v-172q0 -20 -21 -21h-172q-20 1 -20 21z" />
    <glyph glyph-name="Igrave" unicode="&#xcc;" 
d="M176 20v123q0 20 21 21h333v1106h-313q-20 0 -20 20v123q0 20 20 21h799q20 0 20 -21v-123q0 -20 -20 -20h-314v-1106h334q20 0 21 -21v-123q0 -20 -21 -20h-839q-21 0 -21 20zM338 1829q0 10 12 10h207q18 0 31 -20l135 -258q2 -4 2 -9q0 -12 -12 -12h-131q-20 0 -37 19
l-203 260q-4 6 -4 10z" />
    <glyph glyph-name="Iacute" unicode="&#xcd;" 
d="M176 20v123q0 20 21 21h333v1106h-313q-20 0 -20 20v123q0 20 20 21h799q20 0 20 -21v-123q0 -20 -20 -20h-314v-1106h334q20 0 21 -21v-123q0 -20 -21 -20h-839q-21 0 -21 20zM510 1552q0 4 2 9l135 258q12 20 31 20h207q12 0 12 -10q0 -4 -4 -10l-203 -260
q-14 -18 -37 -19h-131q-12 0 -12 12z" />
    <glyph glyph-name="Icircumflex" unicode="&#xce;" 
d="M176 20v123q0 20 21 21h333v1106h-313q-20 0 -20 20v123q0 20 20 21h799q20 0 20 -21v-123q0 -20 -20 -20h-314v-1106h334q20 0 21 -21v-123q0 -20 -21 -20h-839q-21 0 -21 20zM317 1550l5 11l206 262q14 16 31 16h115q16 0 31 -16l206 -262q4 -4 4 -11q0 -10 -14 -10
h-127q-18 0 -37 19l-121 122l-120 -122q-18 -18 -37 -19h-127q-15 0 -15 10z" />
    <glyph glyph-name="Idieresis" unicode="&#xcf;" 
d="M176 20v123q0 20 21 21h333v1106h-313q-20 0 -20 20v123q0 20 20 21h799q20 0 20 -21v-123q0 -20 -20 -20h-314v-1106h334q20 0 21 -21v-123q0 -20 -21 -20h-839q-21 0 -21 20zM340 1647v172q0 20 20 20h172q20 0 21 -20v-172q0 -20 -21 -21h-172q-20 1 -20 21zM680 1647
v172q0 20 20 20h172q20 0 21 -20v-172q0 -20 -21 -21h-172q-20 1 -20 21z" />
    <glyph glyph-name="Eth" unicode="&#xd0;" 
d="M29 657v119q0 20 20 21h119v616q0 20 20 21h324q279 0 455 -181.5t176 -536t-176 -535.5t-455 -181h-324q-20 0 -20 20v617h-119q-20 0 -20 20zM340 164h170q213 0 333 137t120 415.5t-120 416t-333 137.5h-170v-473h254q20 0 20 -21v-119q0 -20 -20 -20h-254v-473z" />
    <glyph glyph-name="Ntilde" unicode="&#xd1;" 
d="M131 20v1393q0 20 21 21h165q27 0 33 -17l580 -1122v1118q0 20 20 21h131q20 0 21 -21v-1393q0 -20 -21 -20h-166q-27 0 -32 16l-580 1123v-1119q0 -20 -20 -20h-131q-21 0 -21 20zM274 1743q0 8 11 18q96 78 211 78q84 0 146.5 -42t111.5 -42q47 0 125 51q8 4 14 4
q12 0 20 -16l58 -86q4 -6 4 -12q0 -8 -10 -19q-96 -78 -211 -78q-84 0 -146.5 42t-111.5 42q-47 0 -125 -51q-8 -4 -15 -4q-10 0 -20 17l-57 86q-5 6 -5 12z" />
    <glyph glyph-name="Ograve" unicode="&#xd2;" 
d="M78 717q0 348 148.5 542.5t390 194.5t390 -194.5t148.5 -542.5t-148.5 -542.5t-390 -194.5t-390 194.5t-148.5 542.5zM258 716.5q0 -573.5 358.5 -573.5t358.5 573.5t-358.5 573.5t-358.5 -573.5zM330 1829q0 10 12 10h207q18 0 31 -20l135 -258q2 -4 2 -9q0 -12 -12 -12
h-132q-20 0 -36 19l-203 260q-4 6 -4 10z" />
    <glyph glyph-name="Oacute" unicode="&#xd3;" 
d="M78 717q0 348 148.5 542.5t390 194.5t390 -194.5t148.5 -542.5t-148.5 -542.5t-390 -194.5t-390 194.5t-148.5 542.5zM258 716.5q0 -573.5 358.5 -573.5t358.5 573.5t-358.5 573.5t-358.5 -573.5zM498 1552q0 4 2 9l135 258q12 20 31 20h206q12 0 13 -10q0 -4 -4 -10
l-203 -260q-14 -18 -37 -19h-131q-12 0 -12 12z" />
    <glyph glyph-name="Ocircumflex" unicode="&#xd4;" 
d="M78 717q0 348 148.5 542.5t390 194.5t390 -194.5t148.5 -542.5t-148.5 -542.5t-390 -194.5t-390 194.5t-148.5 542.5zM258 716.5q0 -573.5 358.5 -573.5t358.5 573.5t-358.5 573.5t-358.5 -573.5zM317 1550l5 11l206 262q14 16 31 16h115q16 0 31 -16l206 -262
q4 -4 4 -11q0 -10 -14 -10h-127q-18 0 -37 19l-121 122l-120 -122q-18 -18 -37 -19h-127q-15 0 -15 10z" />
    <glyph glyph-name="Otilde" unicode="&#xd5;" 
d="M78 717q0 348 148.5 542.5t390 194.5t390 -194.5t148.5 -542.5t-148.5 -542.5t-390 -194.5t-390 194.5t-148.5 542.5zM258 716.5q0 -573.5 358.5 -573.5t358.5 573.5t-358.5 573.5t-358.5 -573.5zM266 1743q0 8 10 18q96 78 211 78q84 0 146.5 -42t111.5 -42q47 0 125 51
q8 4 15 4q12 0 20 -16l58 -86q4 -6 4 -12q0 -8 -11 -19q-96 -78 -211 -78q-84 0 -146 42t-112 42q-47 0 -125 -51q-8 -4 -14 -4q-10 0 -20 17l-58 86q-4 6 -4 12z" />
    <glyph glyph-name="Odieresis" unicode="&#xd6;" 
d="M78 717q0 348 148.5 542.5t390 194.5t390 -194.5t148.5 -542.5t-148.5 -542.5t-390 -194.5t-390 194.5t-148.5 542.5zM258 716.5q0 -573.5 358.5 -573.5t358.5 573.5t-358.5 573.5t-358.5 -573.5zM340 1647v172q0 20 20 20h172q20 0 21 -20v-172q0 -20 -21 -21h-172
q-20 1 -20 21zM680 1647v172q0 20 20 20h172q20 0 21 -20v-172q0 -20 -21 -21h-172q-20 1 -20 21z" />
    <glyph glyph-name="multiply" unicode="&#xd7;" 
d="M254 446q0 6 8 15l242 239l-242 240q-8 8 -8 14q0 8 8 17l84 84q8 8 16 8q6 0 15 -8l239 -242l240 242q8 8 14 8q8 0 17 -8l84 -84q8 -8 8 -17q0 -6 -8 -14l-242 -240l242 -239q8 -8 8 -15q0 -8 -8 -16l-84 -84q-8 -8 -17 -8q-6 0 -14 8l-240 242l-239 -242q-8 -8 -15 -8
q-8 0 -16 8l-84 84q-8 8 -8 16z" />
    <glyph glyph-name="Oslash" unicode="&#xd8;" 
d="M78 717q0 348 148.5 542.5t389.5 194.5q180 0 308 -106l77 131q8 12 17 12q4 0 12 -4l55 -33q12 -8 13 -16q0 -4 -4 -13l-93 -157q154 -199 154 -551q0 -348 -148.5 -542.5t-390.5 -194.5q-178 0 -307 106l-78 -131q-8 -12 -16 -12q-4 0 -12 4l-56 33q-12 8 -12 16
q0 4 4 12l92 158q-153 199 -153 551zM258 717q0 -250 68 -389l514 874q-88 88 -224 88q-358 0 -358 -573zM393 231q88 -88 223 -88q358 0 359 574q0 250 -68 389z" />
    <glyph glyph-name="Ugrave" unicode="&#xd9;" 
d="M135 485v928q0 20 21 21h131q20 0 20 -21v-905q0 -365 309.5 -365t309.5 365v905q0 20 20 21h131q20 0 21 -21v-928q0 -233 -135.5 -369t-346 -136t-346 136t-135.5 369zM358 1829q0 10 13 10h207q18 0 30 -20l135 -258q2 -4 2 -9q0 -12 -12 -12h-131q-20 0 -37 19
l-203 260q-4 6 -4 10z" />
    <glyph glyph-name="Uacute" unicode="&#xda;" 
d="M135 485v928q0 20 21 21h131q20 0 20 -21v-905q0 -365 309.5 -365t309.5 365v905q0 20 20 21h131q20 0 21 -21v-928q0 -233 -135.5 -369t-346 -136t-346 136t-135.5 369zM475 1552q0 4 2 9l135 258q12 20 31 20h207q12 0 12 -10q0 -4 -4 -10l-203 -260q-16 -18 -37 -19
h-131q-12 0 -12 12z" />
    <glyph glyph-name="Ucircumflex" unicode="&#xdb;" 
d="M135 485v928q0 20 21 21h131q20 0 20 -21v-905q0 -365 309.5 -365t309.5 365v905q0 20 20 21h131q20 0 21 -21v-928q0 -233 -135.5 -369t-346 -136t-346 136t-135.5 369zM317 1550l5 11l206 262q14 16 31 16h115q16 0 31 -16l206 -262q4 -4 4 -11q0 -10 -14 -10h-127
q-18 0 -37 19l-121 122l-120 -122q-18 -18 -37 -19h-127q-15 0 -15 10z" />
    <glyph glyph-name="Udieresis" unicode="&#xdc;" 
d="M135 485v928q0 20 21 21h131q20 0 20 -21v-905q0 -365 309.5 -365t309.5 365v905q0 20 20 21h131q20 0 21 -21v-928q0 -233 -135.5 -369t-346 -136t-346 136t-135.5 369zM340 1647v172q0 20 20 20h172q20 0 21 -20v-172q0 -20 -21 -21h-172q-20 1 -20 21zM680 1647v172
q0 20 20 20h172q20 0 21 -20v-172q0 -20 -21 -21h-172q-20 1 -20 21z" />
    <glyph glyph-name="Yacute" unicode="&#xdd;" 
d="M80 1423q0 10 14 11h162q12 0 23 -17l337 -622l338 622q10 16 23 17h162q14 0 14 -11q0 -2 -4 -10l-447 -809v-584q0 -20 -20 -20h-131q-20 0 -21 20v584l-446 809q-4 8 -4 10zM498 1552q0 4 2 9l135 258q12 20 31 20h206q12 0 13 -10q0 -4 -4 -10l-203 -260
q-14 -18 -37 -19h-131q-12 0 -12 12z" />
    <glyph glyph-name="Thorn" unicode="&#xde;" 
d="M195 20v1393q0 20 20 21h131q20 0 21 -21v-297h309q223 0 347 -106.5t124 -293t-124 -293t-347 -106.5h-309v-297q0 -20 -21 -20h-131q-20 0 -20 20zM367 481h340q260 0 260 235.5t-260 235.5h-340v-471z" />
    <glyph glyph-name="germandbls" unicode="&#xdf;" 
d="M78 897v111q0 20 20 20h148v66q0 147 103.5 253.5t271.5 106.5q172 0 270 -87t98 -232q0 -59 -18.5 -106.5t-45 -77t-53 -54.5t-45 -51.5t-18.5 -54.5q0 -45 52 -88.5t113.5 -77t114 -109.5t52.5 -180q0 -160 -89 -258t-251 -98q-133 0 -227.5 80.5t-96.5 203.5
q0 20 21 21h118q18 0 21 -21q12 -61 55 -97t109 -36q80 0 126 51t46 150q0 72 -34 120t-81 75l-94 57q-47 29 -81 80t-34 127q0 59 28 107t62.5 75.5t62 67.5t27.5 85q0 76 -55 126.5t-153 50.5q-102 0 -158.5 -64.5t-56.5 -185.5v-1033q0 -20 -21 -20h-119q-20 0 -20 20
v857h-148q-20 0 -20 20z" />
    <glyph glyph-name="agrave" unicode="&#xe0;" 
d="M164 307q0 164 114.5 252t292.5 88q143 0 326 -43v51q0 242 -264 242q-197 0 -258 -156q-6 -18 -29 -18h-131q-14 0 -14 12.5t2 20.5q33 123 144.5 208t285.5 85q203 0 313.5 -100.5t110.5 -268.5v-483q0 -113 35 -177q2 -4 2 -10q0 -10 -17 -10h-159q-20 0 -21 20v107
q-53 -70 -147.5 -108.5t-204.5 -38.5q-158 0 -269.5 84.5t-111.5 242.5zM332 307q0 -80 62.5 -128t168.5 -48q135 0 234.5 87t99.5 235q-174 43 -305 43q-113 0 -186.5 -49.5t-73.5 -139.5zM383 1423q0 10 12 11h207q18 0 31 -21l135 -258q2 -4 2 -8q0 -12 -12 -12h-131
q-20 0 -37 18l-203 260q-4 6 -4 10z" />
    <glyph glyph-name="aacute" unicode="&#xe1;" 
d="M164 307q0 164 114.5 252t292.5 88q143 0 326 -43v51q0 242 -264 242q-197 0 -258 -156q-6 -18 -29 -18h-131q-14 0 -14 12.5t2 20.5q33 123 144.5 208t285.5 85q203 0 313.5 -100.5t110.5 -268.5v-483q0 -113 35 -177q2 -4 2 -10q0 -10 -17 -10h-159q-20 0 -21 20v107
q-53 -70 -147.5 -108.5t-204.5 -38.5q-158 0 -269.5 84.5t-111.5 242.5zM332 307q0 -80 62.5 -128t168.5 -48q135 0 234.5 87t99.5 235q-174 43 -305 43q-113 0 -186.5 -49.5t-73.5 -139.5zM489 1147q0 4 3 8l135 258q12 20 30 21h207q12 0 13 -11q0 -4 -5 -10l-202 -260
q-14 -18 -37 -18h-131q-13 0 -13 12z" />
    <glyph glyph-name="acircumflex" unicode="&#xe2;" 
d="M164 307q0 164 114.5 252t292.5 88q143 0 326 -43v51q0 242 -264 242q-197 0 -258 -156q-6 -18 -29 -18h-131q-14 0 -14 12.5t2 20.5q33 123 144.5 208t285.5 85q203 0 313.5 -100.5t110.5 -268.5v-483q0 -113 35 -177q2 -4 2 -10q0 -10 -17 -10h-159q-20 0 -21 20v107
q-53 -70 -147.5 -108.5t-204.5 -38.5q-158 0 -269.5 84.5t-111.5 242.5zM332 307q0 -80 62.5 -128t168.5 -48q135 0 234.5 87t99.5 235q-174 43 -305 43q-113 0 -186.5 -49.5t-73.5 -139.5zM334 1145l4 10l207 262q14 16 30 17h115q16 0 31 -17l207 -262q4 -4 4 -10
q0 -10 -14 -10h-127q-18 0 -37 18l-121 123l-121 -123q-18 -18 -37 -18h-127q-14 0 -14 10z" />
    <glyph glyph-name="atilde" unicode="&#xe3;" 
d="M164 307q0 164 114.5 252t292.5 88q143 0 326 -43v51q0 242 -264 242q-197 0 -258 -156q-6 -18 -29 -18h-131q-14 0 -14 12.5t2 20.5q33 123 144.5 208t285.5 85q203 0 313.5 -100.5t110.5 -268.5v-483q0 -113 35 -177q2 -4 2 -10q0 -10 -17 -10h-159q-20 0 -21 20v107
q-53 -70 -147.5 -108.5t-204.5 -38.5q-158 0 -269.5 84.5t-111.5 242.5zM293 1337q0 8 10 19q98 78 211 78q84 0 146.5 -42t111.5 -42q47 0 125 51q8 4 14 4q12 0 21 -16l57 -86q4 -6 4 -13q0 -8 -10 -18q-98 -78 -211 -78q-84 0 -146.5 42t-111.5 42q-47 0 -125 -51
q-8 -4 -14 -4q-10 0 -21 16l-57 86q-4 6 -4 12zM332 307q0 -80 62.5 -128t168.5 -48q135 0 234.5 87t99.5 235q-174 43 -305 43q-113 0 -186.5 -49.5t-73.5 -139.5z" />
    <glyph glyph-name="adieresis" unicode="&#xe4;" 
d="M164 307q0 164 114.5 252t292.5 88q143 0 326 -43v51q0 242 -264 242q-197 0 -258 -156q-6 -18 -29 -18h-131q-14 0 -14 12.5t2 20.5q33 123 144.5 208t285.5 85q203 0 313.5 -100.5t110.5 -268.5v-483q0 -113 35 -177q2 -4 2 -10q0 -10 -17 -10h-159q-20 0 -21 20v107
q-53 -70 -147.5 -108.5t-204.5 -38.5q-158 0 -269.5 84.5t-111.5 242.5zM332 307q0 -80 62.5 -128t168.5 -48q135 0 234.5 87t99.5 235q-174 43 -305 43q-113 0 -186.5 -49.5t-73.5 -139.5zM362 1241v172q0 20 21 21h172q20 0 20 -21v-172q0 -20 -20 -20h-172q-21 0 -21 20z
M702 1241v172q0 20 21 21h172q20 0 20 -21v-172q0 -20 -20 -20h-172q-21 0 -21 20z" />
    <glyph glyph-name="aring" unicode="&#xe5;" 
d="M164 307q0 164 114.5 252t292.5 88q143 0 326 -43v51q0 242 -264 242q-197 0 -258 -156q-6 -18 -29 -18h-131q-14 0 -14 12.5t2 20.5q33 123 144.5 208t285.5 85q203 0 313.5 -100.5t110.5 -268.5v-483q0 -113 35 -177q2 -4 2 -10q0 -10 -17 -10h-159q-20 0 -21 20v107
q-53 -70 -147.5 -108.5t-204.5 -38.5q-158 0 -269.5 84.5t-111.5 242.5zM332 307q0 -80 62.5 -128t168.5 -48q135 0 234.5 87t99.5 235q-174 43 -305 43q-113 0 -186.5 -49.5t-73.5 -139.5zM455 1302.5q0 75.5 50 124t128 48.5t128 -48.5t50 -124t-50 -124t-128 -48.5
t-128 48.5t-50 124zM553 1302.5q0 -36.5 22.5 -59t57.5 -22.5t57.5 22.5t22.5 59t-22.5 59t-57.5 22.5t-57.5 -22.5t-22.5 -59z" />
    <glyph glyph-name="ae" unicode="&#xe6;" 
d="M94 295q0 160 124 240.5t302 80.5h12v277q-80 -8 -141 -48t-86 -104q-6 -18 -29 -18h-131q-14 0 -14 12.5t2 20.5q29 113 157 203t296 90h55q229 0 370.5 -157t141.5 -378v-29q0 -20 -20 -20h-441v-334q106 0 164.5 44t97.5 144q6 18 29 19h133q14 0 14 -14q0 -8 -4 -21
q-102 -324 -485 -323h-78q-215 0 -342 77.5t-127 237.5zM262 295q0 -164 250 -164h20v334q-131 0 -200.5 -44t-69.5 -126zM692 616h281q-25 129 -98.5 205t-182.5 76v-281z" />
    <glyph glyph-name="ccedilla" unicode="&#xe7;" 
d="M145 514q0 233 136.5 384t363.5 151q178 0 296 -91.5t159 -250.5q2 -8 2 -20.5t-15 -12.5h-124q-25 0 -29 18q-29 96 -103.5 150.5t-185.5 54.5q-147 0 -239.5 -105.5t-92.5 -277.5t92.5 -277.5t239.5 -105.5q111 0 185.5 54.5t103.5 150.5q4 18 29 18h124q14 0 14.5 -12
t-1.5 -20q-41 -160 -157 -250t-292 -92l-55 -105q51 14 119 14q82 0 129 -39.5t47 -105.5q0 -170 -219 -170q-115 0 -201 20q-20 6 -20 21v59q0 20 20 21q4 0 68.5 -11.5t126.5 -11.5q90 0 90 63.5t-90 63.5q-68 0 -134 -14q-8 -2 -14 -2q-8 0 -14 6l-27 27q-4 4 -4 8
q0 2 4 14l62 152q-182 33 -288 176t-106 348z" />
    <glyph glyph-name="egrave" unicode="&#xe8;" 
d="M143 514q0 229 137.5 382t356.5 153q223 0 351 -155t128 -380v-29q0 -20 -20 -20h-781q12 -152 95.5 -243t226.5 -91q111 0 177.5 45t103.5 143q6 18 28 19h133q14 0 15 -14q0 -8 -4 -21q-111 -324 -453 -323q-231 0 -362.5 150.5t-131.5 383.5zM324 616h612
q-25 127 -106.5 204t-192.5 77q-115 0 -201.5 -76t-111.5 -205zM410 1423q0 10 12 11h207q18 0 30 -21l136 -258q2 -4 2 -8q0 -12 -13 -12h-131q-23 0 -37 18l-202 260q-4 6 -4 10z" />
    <glyph glyph-name="eacute" unicode="&#xe9;" 
d="M143 514q0 229 137.5 382t356.5 153q223 0 351 -155t128 -380v-29q0 -20 -20 -20h-781q12 -152 95.5 -243t226.5 -91q111 0 177.5 45t103.5 143q6 18 28 19h133q14 0 15 -14q0 -8 -4 -21q-111 -324 -453 -323q-231 0 -362.5 150.5t-131.5 383.5zM324 616h612
q-25 127 -106.5 204t-192.5 77q-115 0 -201.5 -76t-111.5 -205zM512 1147q0 4 2 8l135 258q12 20 31 21h207q12 0 12 -11q0 -4 -4 -10l-203 -260q-16 -18 -37 -18h-131q-12 0 -12 12z" />
    <glyph glyph-name="ecircumflex" unicode="&#xea;" 
d="M143 514q0 229 137.5 382t356.5 153q223 0 351 -155t128 -380v-29q0 -20 -20 -20h-781q12 -152 95.5 -243t226.5 -91q111 0 177.5 45t103.5 143q6 18 28 19h133q14 0 15 -14q0 -8 -4 -21q-111 -324 -453 -323q-231 0 -362.5 150.5t-131.5 383.5zM324 616h612
q-25 127 -106.5 204t-192.5 77q-115 0 -201.5 -76t-111.5 -205zM338 1145l4 10l207 262q14 16 31 17h114q16 0 31 -17l207 -262q4 -4 4 -10q0 -10 -14 -10h-127q-18 0 -37 18l-121 123l-121 -123q-18 -18 -37 -18h-127q-14 0 -14 10z" />
    <glyph glyph-name="edieresis" unicode="&#xeb;" 
d="M143 514q0 229 137.5 382t356.5 153q223 0 351 -155t128 -380v-29q0 -20 -20 -20h-781q12 -152 95.5 -243t226.5 -91q111 0 177.5 45t103.5 143q6 18 28 19h133q14 0 15 -14q0 -8 -4 -21q-111 -324 -453 -323q-231 0 -362.5 150.5t-131.5 383.5zM324 616h612
q-25 127 -106.5 204t-192.5 77q-115 0 -201.5 -76t-111.5 -205zM360 1241v172q0 20 21 21h172q20 0 20 -21v-172q0 -20 -20 -20h-172q-21 0 -21 20zM700 1241v172q0 20 21 21h172q20 0 20 -21v-172q0 -20 -20 -20h-172q-21 0 -21 20z" />
    <glyph glyph-name="igrave" unicode="&#xec;" 
d="M201 20v111q0 20 20 21h354v729h-303q-20 0 -20 20v107q0 20 20 20h443q20 0 20 -20v-856h355q20 0 20 -21v-111q0 -20 -20 -20h-869q-20 0 -20 20zM360 1423q0 10 13 11h207q18 0 30 -21l135 -258q2 -4 3 -8q0 -12 -13 -12h-131q-23 0 -37 18l-202 260q-5 6 -5 10z" />
    <glyph glyph-name="iacute" unicode="&#xed;" 
d="M201 20v111q0 20 20 21h354v729h-303q-20 0 -20 20v107q0 20 20 20h443q20 0 20 -20v-856h355q20 0 20 -21v-111q0 -20 -20 -20h-869q-20 0 -20 20zM502 1147q0 4 2 8l135 258q12 20 31 21h207q12 0 12 -11q0 -4 -4 -10l-203 -260q-14 -18 -37 -18h-131q-12 0 -12 12z
" />
    <glyph glyph-name="icircumflex" unicode="&#xee;" 
d="M201 20v111q0 20 20 21h354v729h-303q-20 0 -20 20v107q0 20 20 20h443q20 0 20 -20v-856h355q20 0 20 -21v-111q0 -20 -20 -20h-869q-20 0 -20 20zM330 1145l4 10l207 262q14 16 30 17h115q16 0 31 -17l207 -262q4 -4 4 -10q0 -10 -15 -10h-127q-18 0 -36 18l-121 123
l-121 -123q-18 -18 -37 -18h-127q-14 0 -14 10z" />
    <glyph glyph-name="idieresis" unicode="&#xef;" 
d="M201 20v111q0 20 20 21h354v729h-303q-20 0 -20 20v107q0 20 20 20h443q20 0 20 -20v-856h355q20 0 20 -21v-111q0 -20 -20 -20h-869q-20 0 -20 20zM342 1241v172q0 20 20 21h173q20 0 20 -21v-172q0 -20 -20 -20h-173q-20 0 -20 20zM682 1241v172q0 20 20 21h172
q20 0 21 -21v-172q0 -20 -21 -20h-172q-20 0 -20 20z" />
    <glyph glyph-name="eth" unicode="&#xf0;" 
d="M100 514q0 242 135.5 388.5t350.5 146.5q188 0 288 -121q-35 158 -172 241l-217 -84q-6 -2 -12 -2q-10 0 -14 13l-37 96q-2 6 -2 10q0 10 14 17l107 41q-72 25 -205 38q-16 2 -17 25l19 107q2 14 29 14q217 -20 378 -109l191 76q8 2 12 2q10 0 15 -12l36 -96q2 -6 2 -11
q0 -10 -14 -16l-115 -45q100 -100 155.5 -263t55.5 -349q0 -324 -136 -482.5t-355 -158.5q-209 0 -350.5 147t-141.5 387zM268 514q0 -176 83 -279.5t241 -103.5q145 0 234 102.5t89 280.5q0 174 -89 278.5t-234 104.5q-158 0 -241 -103.5t-83 -279.5z" />
    <glyph glyph-name="ntilde" unicode="&#xf1;" 
d="M213 20v988q0 20 20 20h119q20 0 21 -20v-123q59 70 150 117t198 47q166 0 252 -90.5t86 -249.5v-689q0 -20 -21 -20h-118q-20 0 -21 20v658q0 111 -49 165t-162 54q-135 0 -225 -98.5t-90 -257.5v-521q0 -20 -21 -20h-119q-20 0 -20 20zM287 1337q0 8 10 19
q96 78 211 78q84 0 146.5 -42t111.5 -42q47 0 125 51q8 4 14 4q12 0 21 -16l57 -86q4 -6 4 -13q0 -8 -10 -18q-96 -78 -211 -78q-84 0 -146.5 42t-111.5 42q-47 0 -125 -51q-8 -4 -14 -4q-10 0 -21 16l-57 86q-4 6 -4 12z" />
    <glyph glyph-name="ograve" unicode="&#xf2;" 
d="M104 514q0 240 144.5 387.5t368 147.5t367.5 -147.5t144 -387.5t-144 -387t-367.5 -147t-368 147t-144.5 387zM272 514q0 -168 96.5 -275.5t248 -107.5t248 107.5t96.5 275.5t-96.5 275.5t-248 107.5t-248 -107.5t-96.5 -275.5zM375 1423q0 10 12 11h207q18 0 31 -21
l135 -258q2 -4 2 -8q0 -12 -12 -12h-132q-20 0 -36 18l-203 260q-4 6 -4 10z" />
    <glyph glyph-name="oacute" unicode="&#xf3;" 
d="M104 514q0 240 144.5 387.5t368 147.5t367.5 -147.5t144 -387.5t-144 -387t-367.5 -147t-368 147t-144.5 387zM272 514q0 -168 96.5 -275.5t248 -107.5t248 107.5t96.5 275.5t-96.5 275.5t-248 107.5t-248 -107.5t-96.5 -275.5zM487 1147q0 4 2 8l136 258q12 20 30 21
h207q12 0 12 -11q0 -4 -4 -10l-202 -260q-16 -18 -37 -18h-131q-13 0 -13 12z" />
    <glyph glyph-name="ocircumflex" unicode="&#xf4;" 
d="M104 514q0 240 144.5 387.5t368 147.5t367.5 -147.5t144 -387.5t-144 -387t-367.5 -147t-368 147t-144.5 387zM272 514q0 -168 96.5 -275.5t248 -107.5t248 107.5t96.5 275.5t-96.5 275.5t-248 107.5t-248 -107.5t-96.5 -275.5zM317 1145l5 10l206 262q14 16 31 17h115
q16 0 31 -17l206 -262q4 -4 4 -10q0 -10 -14 -10h-127q-18 0 -37 18l-121 123l-120 -123q-18 -18 -37 -18h-127q-15 0 -15 10z" />
    <glyph glyph-name="otilde" unicode="&#xf5;" 
d="M104 514q0 240 144.5 387.5t368 147.5t367.5 -147.5t144 -387.5t-144 -387t-367.5 -147t-368 147t-144.5 387zM266 1337q0 8 10 19q96 78 211 78q84 0 146.5 -42t111.5 -42q47 0 125 51q8 4 15 4q12 0 20 -16l58 -86q4 -6 4 -13q0 -8 -11 -18q-96 -78 -211 -78
q-84 0 -146 42t-112 42q-47 0 -125 -51q-8 -4 -14 -4q-10 0 -20 16l-58 86q-4 6 -4 12zM272 514q0 -168 96.5 -275.5t248 -107.5t248 107.5t96.5 275.5t-96.5 275.5t-248 107.5t-248 -107.5t-96.5 -275.5z" />
    <glyph glyph-name="odieresis" unicode="&#xf6;" 
d="M104 514q0 240 144.5 387.5t368 147.5t367.5 -147.5t144 -387.5t-144 -387t-367.5 -147t-368 147t-144.5 387zM272 514q0 -168 96.5 -275.5t248 -107.5t248 107.5t96.5 275.5t-96.5 275.5t-248 107.5t-248 -107.5t-96.5 -275.5zM340 1241v172q0 20 20 21h172q20 0 21 -21
v-172q0 -20 -21 -20h-172q-20 0 -20 20zM680 1241v172q0 20 20 21h172q20 0 21 -21v-172q0 -20 -21 -20h-172q-20 0 -20 20z" />
    <glyph glyph-name="divide" unicode="&#xf7;" 
d="M176 506v119q0 20 21 20h839q20 0 21 -20v-119q0 -20 -21 -21h-839q-21 1 -21 21zM492 102v209q0 20 20 21h209q20 0 20 -21v-209q0 -20 -20 -20h-209q-20 0 -20 20zM492 819v209q0 20 20 21h209q20 0 20 -21v-209q0 -20 -20 -20h-209q-20 0 -20 20z" />
    <glyph glyph-name="oslash" unicode="&#xf8;" 
d="M104 514q0 240 144.5 387.5t367.5 147.5q119 0 226 -45l49 83q8 12 16 13q4 0 13 -4l55 -33q12 -8 12 -16q0 -4 -4 -13l-51 -86q197 -152 196 -434q0 -240 -144 -387t-368 -147q-119 0 -225 45l-49 -84q-8 -12 -16 -13q-4 0 -13 4l-55 33q-12 8 -12 17q0 4 4 12l51 86
q-197 151 -197 434zM272 514q0 -182 111 -293l379 645q-66 31 -146 31q-152 0 -248 -107.5t-96 -275.5zM471 162q66 -31 145 -31q152 0 248.5 107.5t96.5 275.5q0 182 -111 293z" />
    <glyph glyph-name="ugrave" unicode="&#xf9;" 
d="M180 319v689q0 20 21 20h118q20 0 21 -20v-658q0 -111 49 -165t162 -54q135 0 225 98.5t90 257.5v521q0 20 21 20h119q20 0 20 -20v-988q0 -20 -20 -20h-119q-20 0 -21 20v123q-59 -70 -150 -116.5t-198 -46.5q-166 0 -252 89.5t-86 249.5zM379 1423q0 10 12 11h207
q18 0 31 -21l135 -258q2 -4 2 -8q0 -12 -12 -12h-131q-20 0 -37 18l-203 260q-4 6 -4 10z" />
    <glyph glyph-name="uacute" unicode="&#xfa;" 
d="M180 319v689q0 20 21 20h118q20 0 21 -20v-658q0 -111 49 -165t162 -54q135 0 225 98.5t90 257.5v521q0 20 21 20h119q20 0 20 -20v-988q0 -20 -20 -20h-119q-20 0 -21 20v123q-59 -70 -150 -116.5t-198 -46.5q-166 0 -252 89.5t-86 249.5zM442 1147q0 4 2 8l136 258
q12 20 30 21h207q12 0 12 -11q0 -4 -4 -10l-202 -260q-16 -18 -37 -18h-131q-13 0 -13 12z" />
    <glyph glyph-name="ucircumflex" unicode="&#xfb;" 
d="M180 319v689q0 20 21 20h118q20 0 21 -20v-658q0 -111 49 -165t162 -54q135 0 225 98.5t90 257.5v521q0 20 21 20h119q20 0 20 -20v-988q0 -20 -20 -20h-119q-20 0 -21 20v123q-59 -70 -150 -116.5t-198 -46.5q-166 0 -252 89.5t-86 249.5zM305 1145l4 10l207 262
q14 16 31 17h115q16 0 30 -17l207 -262q4 -4 4 -10q0 -10 -14 -10h-127q-18 0 -37 18l-121 123l-121 -123q-18 -18 -37 -18h-127q-14 0 -14 10z" />
    <glyph glyph-name="udieresis" unicode="&#xfc;" 
d="M180 319v689q0 20 21 20h118q20 0 21 -20v-658q0 -111 49 -165t162 -54q135 0 225 98.5t90 257.5v521q0 20 21 20h119q20 0 20 -20v-988q0 -20 -20 -20h-119q-20 0 -21 20v123q-59 -70 -150 -116.5t-198 -46.5q-166 0 -252 89.5t-86 249.5zM326 1241v172q0 20 20 21h172
q20 0 21 -21v-172q0 -20 -21 -20h-172q-20 0 -20 20zM666 1241v172q0 20 20 21h172q20 0 21 -21v-172q0 -20 -21 -20h-172q-20 0 -20 20z" />
    <glyph glyph-name="yacute" unicode="&#xfd;" 
d="M141 1012q0 16 17 16h147q20 0 27 -20l321 -777l305 777q8 20 29 20h141q16 0 17 -14q0 -2 -4 -15l-441 -1099q-70 -174 -149.5 -250t-194.5 -76q-80 0 -151 33q-20 12 -21 33v110q0 20 17 21q8 0 51 -22.5t96 -22.5q72 0 112 56t101 214l4 12l-420 987q-4 13 -4 17z
M522 1147q0 4 2 8l135 258q12 20 31 21h207q12 0 12 -11q0 -4 -4 -10l-203 -260q-14 -18 -36 -18h-131q-13 0 -13 12z" />
    <glyph glyph-name="thorn" unicode="&#xfe;" 
d="M197 -385v1798q0 20 20 21h119q20 0 20 -21v-502q57 57 147.5 97.5t178.5 40.5q205 0 329 -145.5t124 -389.5t-124 -389t-329 -145q-102 0 -189 37.5t-137 99.5v-502q0 -20 -20 -21h-119q-20 1 -20 21zM340 514q0 -166 84 -274.5t225 -108.5q147 0 232.5 108.5
t85.5 274.5t-85 274.5t-233 108.5q-141 0 -225 -108.5t-84 -274.5z" />
    <glyph glyph-name="ydieresis" unicode="&#xff;" 
d="M141 1012q0 16 17 16h147q20 0 27 -20l321 -777l305 777q8 20 29 20h141q16 0 17 -14q0 -2 -4 -15l-441 -1099q-70 -174 -149.5 -250t-194.5 -76q-80 0 -151 33q-20 12 -21 33v110q0 20 17 21q8 0 51 -22.5t96 -22.5q72 0 112 56t101 214l4 12l-420 987q-4 13 -4 17z
M377 1241v172q0 20 20 21h172q20 0 21 -21v-172q0 -20 -21 -20h-172q-20 0 -20 20zM717 1241v172q0 20 20 21h172q20 0 21 -21v-172q0 -20 -21 -20h-172q-20 0 -20 20z" />
    <glyph glyph-name="Amacron" unicode="&#x100;" 
d="M31 20q0 6 2 13l479 1380q6 20 20 21h168q14 0 21 -21l479 -1380q2 -6 2 -13q0 -20 -22 -20h-140q-18 0 -24 20l-133 396h-535l-131 -396q-6 -20 -24 -20h-140q-22 0 -22 20zM397 1647v102q0 20 21 20h397q20 0 21 -20v-102q0 -20 -21 -21h-397q-21 1 -21 21zM401 580
h428l-213 641z" />
    <glyph glyph-name="amacron" unicode="&#x101;" 
d="M164 307q0 164 114.5 252t292.5 88q143 0 326 -43v51q0 242 -264 242q-197 0 -258 -156q-6 -18 -29 -18h-131q-14 0 -14 12.5t2 20.5q33 123 144.5 208t285.5 85q203 0 313.5 -100.5t110.5 -268.5v-483q0 -113 35 -177q2 -4 2 -10q0 -10 -17 -10h-159q-20 0 -21 20v107
q-53 -70 -147.5 -108.5t-204.5 -38.5q-158 0 -269.5 84.5t-111.5 242.5zM332 307q0 -80 62.5 -128t168.5 -48q135 0 234.5 87t99.5 235q-174 43 -305 43q-113 0 -186.5 -49.5t-73.5 -139.5zM420 1241v102q0 20 20 21h398q20 0 20 -21v-102q0 -20 -20 -20h-398q-20 0 -20 20z
" />
    <glyph glyph-name="Abreve" unicode="&#x102;" 
d="M31 20q0 6 2 13l479 1380q6 20 20 21h168q14 0 21 -21l479 -1380q2 -6 2 -13q0 -20 -22 -20h-140q-18 0 -24 20l-133 396h-535l-131 -396q-6 -20 -24 -20h-140q-22 0 -22 20zM346 1788q0 20 21 20h98q20 0 20 -20q0 -51 35 -79t96.5 -28t96.5 28t35 79q0 20 20 20h98
q20 0 21 -20q0 -113 -75 -177.5t-195.5 -64.5t-195.5 64.5t-75 177.5zM401 580h428l-213 641z" />
    <glyph glyph-name="abreve" unicode="&#x103;" 
d="M164 307q0 164 114.5 252t292.5 88q143 0 326 -43v51q0 242 -264 242q-197 0 -258 -156q-6 -18 -29 -18h-131q-14 0 -14 12.5t2 20.5q33 123 144.5 208t285.5 85q203 0 313.5 -100.5t110.5 -268.5v-483q0 -113 35 -177q2 -4 2 -10q0 -10 -17 -10h-159q-20 0 -21 20v107
q-53 -70 -147.5 -108.5t-204.5 -38.5q-158 0 -269.5 84.5t-111.5 242.5zM332 307q0 -80 62.5 -128t168.5 -48q135 0 234.5 87t99.5 235q-174 43 -305 43q-113 0 -186.5 -49.5t-73.5 -139.5zM375 1382q0 20 20 21h99q20 0 20 -21q0 -51 35 -78.5t96.5 -27.5t96 27.5
t34.5 78.5q0 20 21 21h98q20 0 20 -21q0 -113 -74.5 -177t-195.5 -64t-195.5 64t-74.5 177z" />
    <glyph glyph-name="Aogonek" unicode="&#x104;" 
d="M31 20q0 6 2 13l479 1380q6 20 20 21h168q14 0 21 -21l479 -1380q2 -6 2 -13q0 -16 -16 -20q-61 -16 -99 -55t-38 -88.5t35.5 -77t93.5 -27.5h39q20 0 20 -20v-70q0 -20 -20 -20h-74q-109 0 -176.5 47t-67.5 139q0 121 119 184l-135 404h-535l-131 -396q-6 -20 -24 -20
h-140q-22 0 -22 20zM401 580h428l-213 641z" />
    <glyph glyph-name="aogonek" unicode="&#x105;" 
d="M164 307q0 164 114.5 252t292.5 88q143 0 326 -43v51q0 242 -264 242q-197 0 -258 -156q-6 -18 -29 -18h-131q-14 0 -14 12.5t2 20.5q33 123 144.5 208t285.5 85q203 0 313.5 -100.5t110.5 -268.5v-483q0 -113 35 -177q2 -4 2 -10t-11 -10q-61 -16 -99 -55t-38 -88.5
t36 -77t93 -27.5h39q20 0 21 -20v-70q0 -20 -21 -20h-74q-109 0 -176 47t-67 139q0 57 28.5 102t71.5 70v127q-53 -70 -147.5 -108.5t-204.5 -38.5q-158 0 -269.5 84.5t-111.5 242.5zM332 307q0 -80 62.5 -128t168.5 -48q135 0 234.5 87t99.5 235q-174 43 -305 43
q-113 0 -186.5 -49.5t-73.5 -139.5z" />
    <glyph glyph-name="Cacute" unicode="&#x106;" 
d="M94 716.5q0 356.5 158 547t403 190.5q211 0 348.5 -125t167.5 -360q0 -20 -22 -21h-125q-23 0 -25 21q-35 166 -111.5 243.5t-232.5 77.5q-180 0 -280.5 -147.5t-100.5 -426t100.5 -426t280.5 -147.5q160 0 235 77t109 245q2 20 25 20h125q23 0 22 -20
q-31 -236 -168 -360.5t-348 -124.5q-246 0 -403.5 190t-157.5 546.5zM543 1552q0 4 2 9l135 258q12 20 31 20h207q12 0 12 -10q0 -4 -4 -10l-203 -260q-14 -18 -37 -19h-131q-12 0 -12 12z" />
    <glyph glyph-name="cacute" unicode="&#x107;" 
d="M145 514.5q0 233.5 136.5 384t363.5 150.5q178 0 296 -91.5t159 -250.5q2 -8 2 -20.5t-15 -12.5h-124q-25 0 -29 18q-29 96 -103.5 150.5t-185.5 54.5q-147 0 -239.5 -105.5t-92.5 -277.5t92.5 -277.5t239.5 -105.5q111 0 185.5 54.5t103.5 150.5q4 18 29 18h124
q14 0 14.5 -12t-1.5 -20q-41 -160 -159 -251t-296 -91q-227 0 -363.5 150.5t-136.5 384zM518 1147q0 4 2 8l135 258q12 20 31 21h207q12 0 12 -11q0 -4 -4 -10l-203 -260q-14 -18 -36 -18h-132q-12 0 -12 12z" />
    <glyph glyph-name="Ccircumflex" unicode="&#x108;" 
d="M94 716.5q0 356.5 158 547t403 190.5q211 0 348.5 -125t167.5 -360q0 -20 -22 -21h-125q-23 0 -25 21q-35 166 -111.5 243.5t-232.5 77.5q-180 0 -280.5 -147.5t-100.5 -426t100.5 -426t280.5 -147.5q160 0 235 77t109 245q2 20 25 20h125q23 0 22 -20
q-31 -236 -168 -360.5t-348 -124.5q-246 0 -403.5 190t-157.5 546.5zM356 1550l4 11l207 262q14 16 31 16h115q16 0 30 -16l207 -262q4 -4 4 -11q0 -10 -14 -10h-127q-18 0 -37 19l-121 122l-120 -122q-18 -18 -37 -19h-127q-15 0 -15 10z" />
    <glyph glyph-name="ccircumflex" unicode="&#x109;" 
d="M145 514.5q0 233.5 136.5 384t363.5 150.5q178 0 296 -91.5t159 -250.5q2 -8 2 -20.5t-15 -12.5h-124q-25 0 -29 18q-29 96 -103.5 150.5t-185.5 54.5q-147 0 -239.5 -105.5t-92.5 -277.5t92.5 -277.5t239.5 -105.5q111 0 185.5 54.5t103.5 150.5q4 18 29 18h124
q14 0 14.5 -12t-1.5 -20q-41 -160 -159 -251t-296 -91q-227 0 -363.5 150.5t-136.5 384zM346 1145l4 10l207 262q14 16 31 17h114q16 0 31 -17l207 -262q4 -4 4 -10q0 -10 -14 -10h-127q-18 0 -37 18l-121 123l-121 -123q-18 -18 -37 -18h-127q-14 0 -14 10z" />
    <glyph glyph-name="Cdotaccent" unicode="&#x10a;" 
d="M94 716.5q0 356.5 158 547t403 190.5q211 0 348.5 -125t167.5 -360q0 -20 -22 -21h-125q-23 0 -25 21q-35 166 -111.5 243.5t-232.5 77.5q-180 0 -280.5 -147.5t-100.5 -426t100.5 -426t280.5 -147.5q160 0 235 77t109 245q2 20 25 20h125q23 0 22 -20
q-31 -236 -168 -360.5t-348 -124.5q-246 0 -403.5 190t-157.5 546.5zM547 1642v177q0 20 20 20h176q20 0 21 -20v-177q0 -20 -21 -20h-176q-20 0 -20 20z" />
    <glyph glyph-name="cdotaccent" unicode="&#x10b;" 
d="M145 514.5q0 233.5 136.5 384t363.5 150.5q178 0 296 -91.5t159 -250.5q2 -8 2 -20.5t-15 -12.5h-124q-25 0 -29 18q-29 96 -103.5 150.5t-185.5 54.5q-147 0 -239.5 -105.5t-92.5 -277.5t92.5 -277.5t239.5 -105.5q111 0 185.5 54.5t103.5 150.5q4 18 29 18h124
q14 0 14.5 -12t-1.5 -20q-41 -160 -159 -251t-296 -91q-227 0 -363.5 150.5t-136.5 384zM537 1237v176q0 20 20 21h176q20 0 21 -21v-176q0 -20 -21 -20h-176q-20 0 -20 20z" />
    <glyph glyph-name="Ccaron" unicode="&#x10c;" 
d="M94 716.5q0 356.5 158 547t403 190.5q211 0 348.5 -125t167.5 -360q0 -20 -22 -21h-125q-23 0 -25 21q-35 166 -111.5 243.5t-232.5 77.5q-180 0 -280.5 -147.5t-100.5 -426t100.5 -426t280.5 -147.5q160 0 235 77t109 245q2 20 25 20h125q23 0 22 -20
q-31 -236 -168 -360.5t-348 -124.5q-246 0 -403.5 190t-157.5 546.5zM356 1829q0 10 15 10h127q18 0 37 -18l120 -123l121 123q18 18 37 18h127q14 0 14 -10l-4 -10l-207 -263q-14 -16 -30 -16h-115q-16 0 -31 16l-207 263q-4 4 -4 10z" />
    <glyph glyph-name="ccaron" unicode="&#x10d;" 
d="M145 514.5q0 233.5 136.5 384t363.5 150.5q178 0 296 -91.5t159 -250.5q2 -8 2 -20.5t-15 -12.5h-124q-25 0 -29 18q-29 96 -103.5 150.5t-185.5 54.5q-147 0 -239.5 -105.5t-92.5 -277.5t92.5 -277.5t239.5 -105.5q111 0 185.5 54.5t103.5 150.5q4 18 29 18h124
q14 0 14.5 -12t-1.5 -20q-41 -160 -159 -251t-296 -91q-227 0 -363.5 150.5t-136.5 384zM346 1423q0 10 14 11h127q18 0 37 -19l121 -123l121 123q18 18 37 19h127q14 0 14 -11l-4 -10l-207 -262q-14 -16 -31 -16h-114q-16 0 -31 16l-207 262q-4 4 -4 10z" />
    <glyph glyph-name="Dcaron" unicode="&#x10e;" 
d="M154 20v1393q0 20 20 21h324q279 0 454.5 -181.5t175.5 -536t-176 -535.5t-454 -181h-324q-20 0 -20 20zM180 1829q0 10 15 10h127q18 0 36 -18l121 -123l121 123q18 18 37 18h127q14 0 14 -10l-4 -10l-207 -263q-14 -16 -30 -16h-115q-16 0 -31 16l-207 263q-4 4 -4 10z
M326 164h170q213 0 332.5 137t119.5 415.5t-119.5 416t-332.5 137.5h-170v-1106z" />
    <glyph glyph-name="dcaron" unicode="&#x10f;" 
d="M12 514q0 244 124 389.5t329 145.5q195 0 326 -138v502q0 20 20 21h119q20 0 20 -21v-1393q0 -20 -20 -20h-119q-20 0 -20 20v97q-49 -61 -136.5 -99t-189.5 -38q-205 0 -329 145t-124 389zM180 514q0 -166 85 -274.5t233 -108.5q141 0 225 108.5t84 274.5t-84 274.5
t-225 108.5q-147 0 -232.5 -108.5t-85.5 -274.5zM1024 942v74q0 20 20 20q57 0 76 22.5t19 86.5v39h-95q-20 0 -20 20v209q0 20 20 21h209q20 0 21 -21v-301q0 -88 -42 -139t-116 -51h-72q-20 0 -20 20z" />
    <glyph glyph-name="Dcroat" unicode="&#x110;" 
d="M29 657v119q0 20 20 21h119v616q0 20 20 21h324q279 0 455 -181.5t176 -536t-176 -535.5t-455 -181h-324q-20 0 -20 20v617h-119q-20 0 -20 20zM340 164h170q213 0 333 137t120 415.5t-120 416t-333 137.5h-170v-473h254q20 0 20 -21v-119q0 -20 -20 -20h-254v-473z" />
    <glyph glyph-name="dcroat" unicode="&#x111;" 
d="M135 514q0 244 124 389.5t329 145.5q195 0 325 -138v215h-200q-20 0 -21 21v106q0 20 21 21h200v139q0 20 21 21h119q20 0 20 -21v-139h103q20 0 20 -21v-106q0 -20 -20 -21h-103v-1106q0 -20 -20 -20h-119q-20 0 -21 20v97q-49 -61 -136 -99t-189 -38q-205 0 -329 145
t-124 389zM303 514q0 -166 85 -274.5t233 -108.5q141 0 225 108.5t84 274.5t-84 274.5t-225 108.5q-147 0 -232.5 -108.5t-85.5 -274.5z" />
    <glyph glyph-name="Emacron" unicode="&#x112;" 
d="M178 20v1393q0 20 21 21h860q20 0 20 -21v-123q0 -20 -20 -20h-709v-434h645q20 0 21 -21v-123q0 -20 -21 -20h-645v-508h723q20 0 21 -21v-123q0 -20 -21 -20h-874q-21 0 -21 20zM412 1647v102q0 20 20 20h397q20 0 21 -20v-102q0 -20 -21 -21h-397q-20 1 -20 21z" />
    <glyph glyph-name="emacron" unicode="&#x113;" 
d="M143 514q0 229 137.5 382t356.5 153q223 0 351 -155t128 -380v-29q0 -20 -20 -20h-781q12 -152 95.5 -243t226.5 -91q111 0 177.5 45t103.5 143q6 18 28 19h133q14 0 15 -14q0 -8 -4 -21q-111 -324 -453 -323q-231 0 -362.5 150.5t-131.5 383.5zM324 616h612
q-25 127 -106.5 204t-192.5 77q-115 0 -201.5 -76t-111.5 -205zM418 1241v102q0 20 20 21h398q20 0 20 -21v-102q0 -20 -20 -20h-398q-20 0 -20 20z" />
    <glyph glyph-name="Ebreve" unicode="&#x114;" 
d="M178 20v1393q0 20 21 21h860q20 0 20 -21v-123q0 -20 -20 -20h-709v-434h645q20 0 21 -21v-123q0 -20 -21 -20h-645v-508h723q20 0 21 -21v-123q0 -20 -21 -20h-874q-21 0 -21 20zM362 1788q0 20 21 20h98q20 0 21 -20q0 -51 34.5 -79t96 -28t96.5 28t35 79q0 20 20 20
h99q20 0 20 -20q0 -113 -74.5 -177.5t-195.5 -64.5t-196 64.5t-75 177.5z" />
    <glyph glyph-name="ebreve" unicode="&#x115;" 
d="M143 514q0 229 137.5 382t356.5 153q223 0 351 -155t128 -380v-29q0 -20 -20 -20h-781q12 -152 95.5 -243t226.5 -91q111 0 177.5 45t103.5 143q6 18 28 19h133q14 0 15 -14q0 -8 -4 -21q-111 -324 -453 -323q-231 0 -362.5 150.5t-131.5 383.5zM324 616h612
q-25 127 -106.5 204t-192.5 77q-115 0 -201.5 -76t-111.5 -205zM367 1382q0 20 20 21h98q20 0 21 -21q0 -51 34.5 -78.5t96 -27.5t96.5 27.5t35 78.5q0 20 20 21h99q20 0 20 -21q0 -113 -74.5 -177t-195.5 -64t-195.5 64t-74.5 177z" />
    <glyph glyph-name="Edotaccent" unicode="&#x116;" 
d="M178 20v1393q0 20 21 21h860q20 0 20 -21v-123q0 -20 -20 -20h-709v-434h645q20 0 21 -21v-123q0 -20 -21 -20h-645v-508h723q20 0 21 -21v-123q0 -20 -21 -20h-874q-21 0 -21 20zM528 1642v177q0 20 21 20h176q20 0 20 -20v-177q0 -20 -20 -20h-176q-21 0 -21 20z" />
    <glyph glyph-name="edotaccent" unicode="&#x117;" 
d="M143 514q0 229 137.5 382t356.5 153q223 0 351 -155t128 -380v-29q0 -20 -20 -20h-781q12 -152 95.5 -243t226.5 -91q111 0 177.5 45t103.5 143q6 18 28 19h133q14 0 15 -14q0 -8 -4 -21q-111 -324 -453 -323q-231 0 -362.5 150.5t-131.5 383.5zM324 616h612
q-25 127 -106.5 204t-192.5 77q-115 0 -201.5 -76t-111.5 -205zM528 1237v176q0 20 21 21h176q20 0 20 -21v-176q0 -20 -20 -20h-176q-21 0 -21 20z" />
    <glyph glyph-name="Eogonek" unicode="&#x118;" 
d="M178 20v1393q0 20 21 21h860q20 0 20 -21v-123q0 -20 -20 -20h-709v-434h645q20 0 21 -21v-123q0 -20 -21 -20h-645v-508h723q20 0 21 -21v-123q0 -18 -15 -20q-61 -14 -99 -53t-38 -90q0 -49 36 -77t93 -28h39q20 0 20 -20v-70q0 -20 -20 -20h-74q-109 0 -176 47
t-67 139q0 109 98 172h-692q-21 0 -21 20z" />
    <glyph glyph-name="eogonek" unicode="&#x119;" 
d="M143 514q0 229 137.5 382t356.5 153q223 0 351 -155t128 -380v-29q0 -20 -20 -20h-781q12 -152 95.5 -243t226.5 -91q111 0 177.5 45t103.5 143q6 18 28 19h133q14 0 15 -14q0 -8 -4 -21q-84 -246 -314 -307q-53 -14 -87 -53t-34 -86q0 -49 36 -77t93 -28h39q20 0 21 -20
v-70q0 -20 -21 -20h-73q-109 0 -176.5 47t-67.5 139q0 90 74 156q-207 18 -322 164.5t-115 365.5zM324 616h612q-25 127 -106.5 204t-192.5 77q-115 0 -201.5 -76t-111.5 -205z" />
    <glyph glyph-name="Ecaron" unicode="&#x11a;" 
d="M178 20v1393q0 20 21 21h860q20 0 20 -21v-123q0 -20 -20 -20h-709v-434h645q20 0 21 -21v-123q0 -20 -21 -20h-645v-508h723q20 0 21 -21v-123q0 -20 -21 -20h-874q-21 0 -21 20zM330 1829q0 10 14 10h127q18 0 37 -18l121 -123l121 123q18 18 36 18h127q14 0 15 -10
l-4 -10l-207 -263q-14 -16 -31 -16h-115q-16 0 -30 16l-207 263q-4 4 -4 10z" />
    <glyph glyph-name="ecaron" unicode="&#x11b;" 
d="M143 514q0 229 137.5 382t356.5 153q223 0 351 -155t128 -380v-29q0 -20 -20 -20h-781q12 -152 95.5 -243t226.5 -91q111 0 177.5 45t103.5 143q6 18 28 19h133q14 0 15 -14q0 -8 -4 -21q-111 -324 -453 -323q-231 0 -362.5 150.5t-131.5 383.5zM324 616h612
q-25 127 -106.5 204t-192.5 77q-115 0 -201.5 -76t-111.5 -205zM338 1423q0 10 14 11h127q18 0 37 -19l121 -123l121 123q18 18 37 19h127q14 0 14 -11l-4 -10l-207 -262q-14 -16 -31 -16h-114q-16 0 -31 16l-207 262q-4 4 -4 10z" />
    <glyph glyph-name="Gcircumflex" unicode="&#x11c;" 
d="M82 717q0 354 164 545.5t407 191.5q207 0 336 -118.5t154 -319.5q0 -20 -23 -21h-131q-23 0 -24 21q-29 137 -104 205.5t-208 68.5q-184 0 -287.5 -148.5t-103.5 -424.5q0 -281 105.5 -427.5t306.5 -146.5q227 0 317 193v229h-346q-20 0 -20 21v123q0 20 20 20h498
q20 0 20 -20v-367q0 -41 -20 -78q-66 -131 -186.5 -207.5t-282.5 -76.5q-260 0 -426 193.5t-166 543.5zM354 1550l4 11l207 262q14 16 31 16h115q16 0 30 -16l207 -262q4 -4 4 -11q0 -10 -14 -10h-127q-18 0 -37 19l-121 122l-121 -122q-18 -18 -36 -19h-127q-15 0 -15 10z
" />
    <glyph glyph-name="gcircumflex" unicode="&#x11d;" 
d="M141 295q0 166 181 262q-27 66 -27 141q0 162 103.5 256.5t254.5 94.5q115 0 205 -58l137 123q8 8 17 8q6 0 16 -10l78 -82q8 -8 8 -16t-10 -19l-131 -125q41 -76 41 -172q0 -160 -100.5 -254t-260.5 -94q-154 0 -250 88q-102 -45 -102 -133q0 -55 35 -85t90 -30
q37 0 124 19.5t157 19.5q205 0 321.5 -83t116.5 -244q0 -152 -127 -240t-338 -88q-213 0 -342 87t-129 251q0 102 51 166q-119 67 -119 217zM354 1145l4 10l207 262q14 16 31 17h115q16 0 30 -17l207 -262q4 -4 4 -10q0 -10 -14 -10h-127q-18 0 -37 18l-121 123l-121 -123
q-18 -18 -36 -18h-127q-15 0 -15 10zM369 -86q0 -92 85 -140t226 -48t223 47t82 129q0 176 -305 176q-72 0 -156 -15.5t-98 -17.5q-57 -49 -57 -131zM455 698q0 -92 56 -144t142 -52t143.5 52t57.5 144q0 94 -57.5 146.5t-143.5 52.5t-142 -52.5t-56 -146.5z" />
    <glyph glyph-name="Gbreve" unicode="&#x11e;" 
d="M82 717q0 354 164 545.5t407 191.5q207 0 336 -118.5t154 -319.5q0 -20 -23 -21h-131q-23 0 -24 21q-29 137 -104 205.5t-208 68.5q-184 0 -287.5 -148.5t-103.5 -424.5q0 -281 105.5 -427.5t306.5 -146.5q227 0 317 193v229h-346q-20 0 -20 21v123q0 20 20 20h498
q20 0 20 -20v-367q0 -41 -20 -78q-66 -131 -186.5 -207.5t-282.5 -76.5q-260 0 -426 193.5t-166 543.5zM383 1788q0 20 20 20h99q20 0 20 -20q0 -51 35 -79t96.5 -28t96 28t34.5 79q0 20 21 20h98q20 0 21 -20q0 -113 -75 -177.5t-196 -64.5t-195.5 64.5t-74.5 177.5z" />
    <glyph glyph-name="gbreve" unicode="&#x11f;" 
d="M141 295q0 166 181 262q-27 66 -27 141q0 162 103.5 256.5t254.5 94.5q115 0 205 -58l137 123q8 8 17 8q6 0 16 -10l78 -82q8 -8 8 -16t-10 -19l-131 -125q41 -76 41 -172q0 -160 -100.5 -254t-260.5 -94q-154 0 -250 88q-102 -45 -102 -133q0 -55 35 -85t90 -30
q37 0 124 19.5t157 19.5q205 0 321.5 -83t116.5 -244q0 -152 -127 -240t-338 -88q-213 0 -342 87t-129 251q0 102 51 166q-119 67 -119 217zM369 -86q0 -92 85 -140t226 -48t223 47t82 129q0 176 -305 176q-72 0 -156 -15.5t-98 -17.5q-57 -49 -57 -131zM383 1382
q0 20 20 21h99q20 0 20 -21q0 -51 35 -78.5t96.5 -27.5t96 27.5t34.5 78.5q0 20 21 21h98q20 0 21 -21q0 -113 -75 -177t-196 -64t-195.5 64t-74.5 177zM455 698q0 -92 56 -144t142 -52t143.5 52t57.5 144q0 94 -57.5 146.5t-143.5 52.5t-142 -52.5t-56 -146.5z" />
    <glyph glyph-name="Gdotaccent" unicode="&#x120;" 
d="M82 717q0 354 164 545.5t407 191.5q207 0 336 -118.5t154 -319.5q0 -20 -23 -21h-131q-23 0 -24 21q-29 137 -104 205.5t-208 68.5q-184 0 -287.5 -148.5t-103.5 -424.5q0 -281 105.5 -427.5t306.5 -146.5q227 0 317 193v229h-346q-20 0 -20 21v123q0 20 20 20h498
q20 0 20 -20v-367q0 -41 -20 -78q-66 -131 -186.5 -207.5t-282.5 -76.5q-260 0 -426 193.5t-166 543.5zM545 1642v177q0 20 20 20h176q20 0 21 -20v-177q0 -20 -21 -20h-176q-20 0 -20 20z" />
    <glyph glyph-name="gdotaccent" unicode="&#x121;" 
d="M141 295q0 166 181 262q-27 66 -27 141q0 162 103.5 256.5t254.5 94.5q115 0 205 -58l137 123q8 8 17 8q6 0 16 -10l78 -82q8 -8 8 -16t-10 -19l-131 -125q41 -76 41 -172q0 -160 -100.5 -254t-260.5 -94q-154 0 -250 88q-102 -45 -102 -133q0 -55 35 -85t90 -30
q37 0 124 19.5t157 19.5q205 0 321.5 -83t116.5 -244q0 -152 -127 -240t-338 -88q-213 0 -342 87t-129 251q0 102 51 166q-119 67 -119 217zM369 -86q0 -92 85 -140t226 -48t223 47t82 129q0 176 -305 176q-72 0 -156 -15.5t-98 -17.5q-57 -49 -57 -131zM455 698
q0 -92 56 -144t142 -52t143.5 52t57.5 144q0 94 -57.5 146.5t-143.5 52.5t-142 -52.5t-56 -146.5zM545 1237v176q0 20 20 21h176q20 0 21 -21v-176q0 -20 -21 -20h-176q-20 0 -20 20z" />
    <glyph glyph-name="Gcommaaccent" unicode="&#x122;" 
d="M82 717q0 354 164 545.5t407 191.5q207 0 336 -118.5t154 -319.5q0 -20 -23 -21h-131q-23 0 -24 21q-29 137 -104 205.5t-208 68.5q-184 0 -287.5 -148.5t-103.5 -424.5q0 -281 105.5 -427.5t306.5 -146.5q227 0 317 193v229h-346q-20 0 -20 21v123q0 20 20 20h498
q20 0 20 -20v-367q0 -41 -20 -78q-66 -131 -186.5 -207.5t-282.5 -76.5q-260 0 -426 193.5t-166 543.5zM549 -106q0 20 20 20h209q20 0 21 -20v-289q0 -166 -158 -166h-72q-20 0 -20 20v74q0 20 20 21q57 0 76 19t19 77v14h-95q-20 0 -20 21v209z" />
    <glyph glyph-name="gcommaaccent" unicode="&#x123;" 
d="M141 295q0 166 181 262q-27 66 -27 141q0 162 103.5 256.5t254.5 94.5q115 0 205 -58l137 123q8 8 17 8q6 0 16 -10l78 -82q8 -8 8 -16t-10 -19l-131 -125q41 -76 41 -172q0 -160 -100.5 -254t-260.5 -94q-154 0 -250 88q-102 -45 -102 -133q0 -55 35 -85t90 -30
q37 0 124 19.5t157 19.5q205 0 321.5 -83t116.5 -244q0 -152 -127 -240t-338 -88q-213 0 -342 87t-129 251q0 102 51 166q-119 67 -119 217zM369 -86q0 -92 85 -140t226 -48t223 47t82 129q0 176 -305 176q-72 0 -156 -15.5t-98 -17.5q-57 -49 -57 -131zM455 698
q0 -92 56 -144t142 -52t143.5 52t57.5 144q0 94 -57.5 146.5t-143.5 52.5t-142 -52.5t-56 -146.5zM528 1176v301q0 88 42 139t116 51h72q20 0 20 -20v-74q0 -20 -20 -21q-57 0 -75.5 -22.5t-18.5 -85.5v-39h94q20 0 20 -21v-208q0 -20 -20 -21h-209q-21 1 -21 21z" />
    <glyph glyph-name="Hcircumflex" unicode="&#x124;" 
d="M129 20v1393q0 20 21 21h131q20 0 20 -21v-584h631v584q0 20 20 21h131q20 0 21 -21v-1393q0 -20 -21 -20h-131q-20 0 -20 20v646h-631v-646q0 -20 -20 -20h-131q-21 0 -21 20zM317 1550l5 11l206 262q14 16 31 16h115q16 0 31 -16l206 -262q4 -4 4 -11q0 -10 -14 -10
h-127q-18 0 -37 19l-121 122l-120 -122q-18 -18 -37 -19h-127q-15 0 -15 10z" />
    <glyph glyph-name="hcircumflex" unicode="&#x125;" 
d="M207 20v1393q0 20 20 21h119q20 0 21 -21v-532q55 74 157.5 121t204.5 47q170 0 262 -88.5t92 -255.5v-685q0 -20 -20 -20h-119q-20 0 -20 20v648q0 117 -61.5 173t-170.5 56q-119 0 -222 -101.5t-103 -254.5v-521q0 -20 -21 -20h-119q-20 0 -20 20zM209 1550l4 11
l207 262q14 16 31 16h114q16 0 31 -16l207 -262q4 -4 4 -11q0 -10 -14 -10h-127q-18 0 -37 19l-121 122l-121 -122q-18 -18 -37 -19h-127q-14 0 -14 10z" />
    <glyph glyph-name="Hbar" unicode="&#x126;" 
d="M33 1065v111q0 20 20 20h76v217q0 20 21 21h131q20 0 20 -21v-217h631v217q0 20 20 21h131q20 0 21 -21v-217h76q20 0 20 -20v-111q0 -20 -20 -21h-76v-1024q0 -20 -21 -20h-131q-20 0 -20 20v646h-631v-646q0 -20 -20 -20h-131q-20 0 -21 20v1024h-76q-20 1 -20 21z
M301 829h631v215h-631v-215z" />
    <glyph glyph-name="hbar" unicode="&#x127;" 
d="M66 1147v106q0 20 20 21h121v139q0 20 20 21h119q20 0 21 -21v-139h247q20 0 21 -21v-106q0 -20 -21 -21h-247v-245q55 74 157.5 121t204.5 47q170 0 262 -88.5t92 -255.5v-685q0 -20 -20 -20h-119q-20 0 -20 20v648q0 117 -61.5 173t-170.5 56q-119 0 -222 -101.5
t-103 -254.5v-521q0 -20 -21 -20h-119q-20 0 -20 20v1106h-121q-20 1 -20 21z" />
    <glyph glyph-name="Itilde" unicode="&#x128;" 
d="M176 20v123q0 20 21 21h333v1106h-313q-20 0 -20 20v123q0 20 20 21h799q20 0 20 -21v-123q0 -20 -20 -20h-314v-1106h334q20 0 21 -21v-123q0 -20 -21 -20h-839q-21 0 -21 20zM266 1743q0 8 10 18q96 78 211 78q84 0 146.5 -42t111.5 -42q47 0 125 51q8 4 15 4
q12 0 20 -16l58 -86q4 -6 4 -12q0 -8 -11 -19q-96 -78 -211 -78q-84 0 -146 42t-112 42q-47 0 -125 -51q-8 -4 -14 -4q-10 0 -20 17l-58 86q-4 6 -4 12z" />
    <glyph glyph-name="itilde" unicode="&#x129;" 
d="M201 20v111q0 20 20 21h354v729h-303q-20 0 -20 20v107q0 20 20 20h443q20 0 20 -20v-856h355q20 0 20 -21v-111q0 -20 -20 -20h-869q-20 0 -20 20zM274 1337q0 8 11 19q96 78 211 78q84 0 146.5 -42t111.5 -42q47 0 125 51q8 4 14 4q12 0 20 -16l58 -86q4 -6 4 -13
q0 -8 -10 -18q-96 -78 -211 -78q-84 0 -146.5 42t-111.5 42q-47 0 -125 -51q-8 -4 -15 -4q-10 0 -20 16l-57 86q-5 6 -5 12z" />
    <glyph glyph-name="Imacron" unicode="&#x12a;" 
d="M176 20v123q0 20 21 21h333v1106h-313q-20 0 -20 20v123q0 20 20 21h799q20 0 20 -21v-123q0 -20 -20 -20h-314v-1106h334q20 0 21 -21v-123q0 -20 -21 -20h-839q-21 0 -21 20zM397 1647v102q0 20 21 20h397q20 0 21 -20v-102q0 -20 -21 -21h-397q-21 1 -21 21z" />
    <glyph glyph-name="imacron" unicode="&#x12b;" 
d="M201 20v111q0 20 20 21h354v729h-303q-20 0 -20 20v107q0 20 20 20h443q20 0 20 -20v-856h355q20 0 20 -21v-111q0 -20 -20 -20h-869q-20 0 -20 20zM371 1241v102q0 20 20 21h397q20 0 21 -21v-102q0 -20 -21 -20h-397q-20 0 -20 20z" />
    <glyph glyph-name="Ibreve" unicode="&#x12c;" 
d="M176 20v123q0 20 21 21h333v1106h-313q-20 0 -20 20v123q0 20 20 21h799q20 0 20 -21v-123q0 -20 -20 -20h-314v-1106h334q20 0 21 -21v-123q0 -20 -21 -20h-839q-21 0 -21 20zM346 1788q0 20 21 20h98q20 0 20 -20q0 -51 35 -79t96.5 -28t96.5 28t35 79q0 20 20 20h98
q20 0 21 -20q0 -113 -75 -177.5t-195.5 -64.5t-195.5 64.5t-75 177.5z" />
    <glyph glyph-name="ibreve" unicode="&#x12d;" 
d="M201 20v111q0 20 20 21h354v729h-303q-20 0 -20 20v107q0 20 20 20h443q20 0 20 -20v-856h355q20 0 20 -21v-111q0 -20 -20 -20h-869q-20 0 -20 20zM356 1382q0 20 21 21h98q20 0 21 -21q0 -51 34.5 -78.5t96 -27.5t96.5 27.5t35 78.5q0 20 20 21h99q20 0 20 -21
q0 -113 -74.5 -177t-195.5 -64t-196 64t-75 177z" />
    <glyph glyph-name="Iogonek" unicode="&#x12e;" 
d="M176 20v123q0 20 21 21h333v1106h-313q-20 0 -20 20v123q0 20 20 21h799q20 0 20 -21v-123q0 -20 -20 -20h-314v-1106h334q20 0 21 -21v-123q0 -18 -15 -20q-61 -16 -99 -55t-38 -88.5t36 -77t93 -27.5h39q20 0 21 -20v-70q0 -20 -21 -20h-74q-109 0 -176 47t-67 139
q0 109 98 172h-657q-21 0 -21 20z" />
    <glyph glyph-name="iogonek" unicode="&#x12f;" 
d="M201 20v111q0 20 20 21h354v729h-303q-20 0 -20 20v107q0 20 20 20h443q20 0 20 -20v-856h355q20 0 20 -21v-111q0 -18 -14 -20q-59 -14 -98.5 -54t-39.5 -89.5t36 -77t93 -27.5h39q20 0 21 -20v-70q0 -20 -21 -20h-73q-109 0 -176.5 47t-67.5 139q0 109 98 172h-686
q-20 0 -20 20zM532 1217v176q0 20 21 20h176q20 0 21 -20v-176q0 -20 -21 -21h-176q-21 1 -21 21z" />
    <glyph glyph-name="Idotaccent" unicode="&#x130;" 
d="M176 20v123q0 20 21 21h333v1106h-313q-20 0 -20 20v123q0 20 20 21h799q20 0 20 -21v-123q0 -20 -20 -20h-314v-1106h334q20 0 21 -21v-123q0 -20 -21 -20h-839q-21 0 -21 20zM508 1642v177q0 20 20 20h177q20 0 20 -20v-177q0 -20 -20 -20h-177q-20 0 -20 20z" />
    <glyph glyph-name="dotlessi" unicode="&#x131;" 
d="M201 20v111q0 20 20 21h354v729h-303q-20 0 -20 20v107q0 20 20 20h443q20 0 20 -20v-856h355q20 0 20 -21v-111q0 -20 -20 -20h-869q-20 0 -20 20z" />
    <glyph glyph-name="IJ" unicode="&#x132;" 
d="M70 20v123q0 20 20 21h236v1106h-215q-20 0 -21 20v123q0 20 21 21h602q20 0 20 -21v-123q0 -20 -20 -20h-215v-1106h235q20 0 21 -21v-123q0 -20 -21 -20h-643q-20 0 -20 20zM819 20v123q0 20 21 21q100 0 135 44t35 159v1046q0 20 20 21h131q20 0 21 -21v-1046
q0 -205 -76 -286t-266 -81q-21 0 -21 20z" />
    <glyph glyph-name="ij" unicode="&#x133;" 
d="M74 20v111q0 20 20 21h232v729h-181q-20 0 -20 20v107q0 20 20 20h320q20 0 20 -20v-856h232q20 0 20 -21v-111q0 -20 -20 -20h-623q-20 0 -20 20zM283 1237v176q0 20 20 21h176q20 0 21 -21v-176q0 -20 -21 -20h-176q-20 0 -20 20zM651 901v107q0 20 21 20h409
q20 0 21 -20v-1114q0 -240 -62 -388q-6 -16 -16 -16l-8 2l-117 33q-16 6 -16 16l2 8q57 150 57 320v1012h-270q-21 0 -21 20zM893 1237v176q0 20 20 21h177q20 0 20 -21v-176q0 -20 -20 -20h-177q-20 0 -20 20z" />
    <glyph glyph-name="Jcircumflex" unicode="&#x134;" 
d="M113 436q0 20 20 21h131q20 0 21 -21q0 -127 76.5 -210t199.5 -83q285 0 285 369v901q0 20 20 21h131q20 0 21 -21v-899q0 -266 -125 -400t-332 -134q-213 0 -330.5 127.5t-117.5 328.5zM633 1550l4 11l207 262q14 16 30 16h115q16 0 31 -16l207 -262q4 -4 4 -11
q0 -10 -14 -10h-127q-18 0 -37 19l-121 122l-121 -122q-18 -18 -37 -19h-127q-14 0 -14 10z" />
    <glyph glyph-name="jcircumflex" unicode="&#x135;" 
d="M260 901v107q0 20 21 20h593q20 0 21 -20v-1114q0 -240 -61 -388q-6 -16 -17 -16l-8 2l-117 33q-16 6 -16 16l2 8q57 150 57 320v1012h-454q-21 0 -21 20zM379 1145l4 10l207 262q14 16 31 17h114q16 0 31 -17l207 -262q4 -4 4 -10q0 -10 -14 -10h-127q-18 0 -37 18
l-121 123l-121 -123q-18 -18 -37 -18h-127q-14 0 -14 10z" />
    <glyph glyph-name="Kcommaaccent" unicode="&#x136;" 
d="M176 20v1393q0 20 21 21h131q20 0 20 -21v-604l557 604q18 20 33 21h164q18 0 18 -15q0 -6 -6 -14l-459 -506l543 -870q4 -8 4 -13q0 -16 -18 -16h-158q-18 0 -37 31l-459 731l-182 -203v-539q0 -20 -20 -20h-131q-21 0 -21 20zM516 -106q0 20 21 20h208q20 0 21 -20
v-289q0 -166 -158 -166h-71q-20 0 -21 20v74q0 20 21 21q57 0 75.5 19t18.5 77v14h-94q-20 0 -21 21v209z" />
    <glyph glyph-name="kcommaaccent" unicode="&#x137;" 
d="M213 20v1393q0 20 20 21h119q20 0 21 -21v-838l444 435q18 18 33 18h166q16 0 16 -14q0 -8 -8 -17l-354 -344l417 -622q4 -6 5 -15q0 -16 -19 -16h-145q-23 0 -33 18l-346 517l-176 -168v-347q0 -20 -21 -20h-119q-20 0 -20 20zM514 -106q0 20 21 20h208q20 0 21 -20
v-289q0 -166 -158 -166h-71q-20 0 -21 20v74q0 20 21 21q57 0 75.5 19t18.5 77v14h-94q-20 0 -21 21v209z" />
    <glyph glyph-name="kgreenlandic" unicode="&#x138;" 
d="M213 20v988q0 20 20 20h119q20 0 21 -20v-433l438 435q18 18 33 18h166q16 0 16 -14q0 -8 -8 -17l-350 -344l419 -622q4 -6 5 -15q0 -16 -19 -16h-145q-23 0 -33 18l-348 517l-174 -168v-347q0 -20 -21 -20h-119q-20 0 -20 20z" />
    <glyph glyph-name="Lacute" unicode="&#x139;" 
d="M250 20v1393q0 20 20 21h131q20 0 21 -21v-1249h717q20 0 20 -21v-123q0 -20 -20 -20h-869q-20 0 -20 20zM254 1552q0 4 2 9l135 258q12 20 31 20h207q12 0 12 -10q0 -4 -4 -10l-203 -260q-16 -18 -37 -19h-131q-12 0 -12 12z" />
    <glyph glyph-name="lacute" unicode="&#x13a;" 
d="M147 20v111q0 20 21 21h381v1130h-336q-20 0 -20 21v110q0 20 20 21h475q20 0 21 -21v-1261h381q20 0 20 -21v-111q0 -20 -20 -20h-922q-21 0 -21 20zM514 1552q0 4 2 9l135 258q12 20 31 20h207q12 0 12 -10q0 -4 -4 -10l-203 -260q-14 -18 -37 -19h-131q-12 0 -12 12z
" />
    <glyph glyph-name="Lcommaaccent" unicode="&#x13b;" 
d="M250 20v1393q0 20 20 21h131q20 0 21 -21v-1249h717q20 0 20 -21v-123q0 -20 -20 -20h-869q-20 0 -20 20zM588 -106q0 20 20 20h209q20 0 21 -20v-289q0 -166 -158 -166h-72q-20 0 -20 20v74q0 20 20 21q57 0 75.5 19t18.5 77v14h-94q-20 0 -20 21v209z" />
    <glyph glyph-name="lcommaaccent" unicode="&#x13c;" 
d="M147 20v111q0 20 21 21h381v1130h-336q-20 0 -20 21v110q0 20 20 21h475q20 0 21 -21v-1261h381q20 0 20 -21v-111q0 -20 -20 -20h-922q-21 0 -21 20zM504 -106q0 20 20 20h209q20 0 21 -20v-289q0 -166 -158 -166h-72q-20 0 -20 20v74q0 20 20 21q57 0 75.5 19t18.5 77
v14h-94q-20 0 -20 21v209z" />
    <glyph glyph-name="Lcaron" unicode="&#x13d;" 
d="M250 20v1393q0 20 20 21h131q20 0 21 -21v-1249h717q20 0 20 -21v-123q0 -20 -20 -20h-869q-20 0 -20 20zM729 942v74q0 20 21 20q57 0 75.5 22.5t18.5 86.5v39h-94q-20 0 -21 20v209q0 20 21 21h208q20 0 21 -21v-301q0 -88 -42 -139t-116 -51h-71q-21 0 -21 20z" />
    <glyph glyph-name="lcaron" unicode="&#x13e;" 
d="M147 20v111q0 20 21 21h381v1130h-336q-20 0 -20 21v110q0 20 20 21h475q20 0 21 -21v-1261h381q20 0 20 -21v-111q0 -20 -20 -20h-922q-21 0 -21 20zM883 942v74q0 20 20 20q57 0 75.5 22.5t18.5 86.5v39h-94q-20 0 -20 20v209q0 20 20 21h209q20 0 21 -21v-301
q0 -88 -42 -139t-116 -51h-72q-20 0 -20 20z" />
    <glyph glyph-name="Ldot" unicode="&#x13f;" 
d="M250 20v1393q0 20 20 21h131q20 0 21 -21v-1249h717q20 0 20 -21v-123q0 -20 -20 -20h-869q-20 0 -20 20zM705 635v209q0 20 20 20h209q20 0 20 -20v-209q0 -20 -20 -21h-209q-20 1 -20 21z" />
    <glyph glyph-name="ldot" unicode="&#x140;" 
d="M147 20v111q0 20 21 21h381v1130h-336q-20 0 -20 21v110q0 20 20 21h475q20 0 21 -21v-1261h381q20 0 20 -21v-111q0 -20 -20 -20h-922q-21 0 -21 20zM860 635v209q0 20 21 20h209q20 0 20 -20v-209q0 -20 -20 -21h-209q-21 1 -21 21z" />
    <glyph glyph-name="Lslash" unicode="&#x141;" 
d="M70 555q0 10 12 16l192 103v739q0 20 21 21h131q20 0 20 -21v-649l308 164q8 4 12 4q8 0 14 -12l54 -99q2 -4 2 -10q0 -10 -13 -16l-377 -201v-430h693q20 0 20 -21v-123q0 -20 -20 -20h-844q-20 0 -21 20v484l-122 -66q-8 -4 -13 -4q-8 0 -14 12l-53 99q-2 4 -2 10z" />
    <glyph glyph-name="lslash" unicode="&#x142;" 
d="M147 20v111q0 20 21 21h381v397l-195 -103q-8 -4 -12 -4q-8 0 -14 13l-54 98q-2 4 -2 10q0 10 13 17l264 139v563h-336q-20 0 -20 21v110q0 20 20 21h475q20 0 21 -21v-610l194 102q8 4 12 4q8 0 15 -12l53 -98q2 -4 2 -11q0 -10 -12 -16l-264 -139v-481h381q20 0 20 -21
v-111q0 -20 -20 -20h-922q-21 0 -21 20z" />
    <glyph glyph-name="Nacute" unicode="&#x143;" 
d="M131 20v1393q0 20 21 21h165q27 0 33 -17l580 -1122v1118q0 20 20 21h131q20 0 21 -21v-1393q0 -20 -21 -20h-166q-27 0 -32 16l-580 1123v-1119q0 -20 -20 -20h-131q-21 0 -21 20zM508 1552q0 4 2 9l135 258q12 20 31 20h207q12 0 12 -10q0 -4 -4 -10l-203 -260
q-16 -18 -37 -19h-131q-12 0 -12 12z" />
    <glyph glyph-name="nacute" unicode="&#x144;" 
d="M213 20v988q0 20 20 20h119q20 0 21 -20v-123q59 70 150 117t198 47q166 0 252 -90.5t86 -249.5v-689q0 -20 -21 -20h-118q-20 0 -21 20v658q0 111 -49 165t-162 54q-135 0 -225 -98.5t-90 -257.5v-521q0 -20 -21 -20h-119q-20 0 -20 20zM565 1147q0 4 2 8l135 258
q12 20 31 21h207q12 0 12 -11q0 -4 -4 -10l-203 -260q-16 -18 -36 -18h-131q-13 0 -13 12z" />
    <glyph glyph-name="Ncommaaccent" unicode="&#x145;" 
d="M131 20v1393q0 20 21 21h165q27 0 33 -17l580 -1122v1118q0 20 20 21h131q20 0 21 -21v-1393q0 -20 -21 -20h-166q-27 0 -32 16l-580 1123v-1119q0 -20 -20 -20h-131q-21 0 -21 20zM492 -106q0 20 20 20h209q20 0 20 -20v-289q0 -166 -157 -166h-72q-20 0 -20 20v74
q0 20 20 21q57 0 75.5 19t18.5 77v14h-94q-20 0 -20 21v209z" />
    <glyph glyph-name="ncommaaccent" unicode="&#x146;" 
d="M213 20v988q0 20 20 20h119q20 0 21 -20v-123q59 70 150 117t198 47q166 0 252 -90.5t86 -249.5v-689q0 -20 -21 -20h-118q-20 0 -21 20v658q0 111 -49 165t-162 54q-135 0 -225 -98.5t-90 -257.5v-521q0 -20 -21 -20h-119q-20 0 -20 20zM510 -106q0 20 20 20h209
q20 0 21 -20v-289q0 -166 -158 -166h-72q-20 0 -20 20v74q0 20 20 21q57 0 76 19t19 77v14h-95q-20 0 -20 21v209z" />
    <glyph glyph-name="Ncaron" unicode="&#x147;" 
d="M131 20v1393q0 20 21 21h165q27 0 33 -17l580 -1122v1118q0 20 20 21h131q20 0 21 -21v-1393q0 -20 -21 -20h-166q-27 0 -32 16l-580 1123v-1119q0 -20 -20 -20h-131q-21 0 -21 20zM317 1829q0 10 15 10h127q18 0 37 -18l120 -123l121 123q18 18 37 18h127q14 0 14 -10
l-4 -10l-206 -263q-14 -16 -31 -16h-115q-16 0 -31 16l-206 263q-5 4 -5 10z" />
    <glyph glyph-name="ncaron" unicode="&#x148;" 
d="M213 20v988q0 20 20 20h119q20 0 21 -20v-123q59 70 150 117t198 47q166 0 252 -90.5t86 -249.5v-689q0 -20 -21 -20h-118q-20 0 -21 20v658q0 111 -49 165t-162 54q-135 0 -225 -98.5t-90 -257.5v-521q0 -20 -21 -20h-119q-20 0 -20 20zM369 1423q0 10 14 11h127
q18 0 37 -19l121 -123l120 123q18 18 37 19h127q14 0 15 -11l-4 -10l-207 -262q-14 -16 -31 -16h-115q-16 0 -30 16l-207 262q-4 4 -4 10z" />
    <glyph glyph-name="napostrophe" unicode="&#x149;" 
d="M57 1004v73q0 20 21 21q57 0 75.5 22.5t18.5 85.5v39h-94q-20 0 -21 21v209q0 20 21 20h209q20 0 20 -20v-301q0 -88 -42 -139.5t-115 -51.5h-72q-21 1 -21 21zM379 20v988q0 20 20 20h119q20 0 21 -20v-123q59 70 150 117t198 47q166 0 252 -90.5t86 -249.5v-689
q0 -20 -21 -20h-119q-20 0 -20 20v658q0 111 -49 165t-162 54q-135 0 -225 -98.5t-90 -257.5v-521q0 -20 -21 -20h-119q-20 0 -20 20z" />
    <glyph glyph-name="Eng" unicode="&#x14a;" 
d="M131 20v1393q0 20 21 21h165q27 0 33 -17l580 -1050v1046q0 20 20 21h131q20 0 21 -21v-1413q0 -250 -111.5 -338t-343.5 -88q-20 0 -20 20v123q0 20 20 21q158 0 220.5 60.5t62.5 201.5l-627 1139v-1119q0 -20 -20 -20h-131q-21 0 -21 20z" />
    <glyph glyph-name="eng" unicode="&#x14b;" 
d="M213 20v988q0 20 20 20h119q20 0 21 -20v-123q59 70 150 117t198 47q166 0 252 -90.5t86 -249.5v-815q0 -240 -62 -388q-6 -16 -16 -16l-8 2l-117 33q-16 6 -16 16l2 8q57 150 57 320v809q0 111 -49 165t-162 54q-135 0 -225 -98.5t-90 -257.5v-521q0 -20 -21 -20h-119
q-20 0 -20 20z" />
    <glyph glyph-name="Omacron" unicode="&#x14c;" 
d="M78 717q0 348 148.5 542.5t390 194.5t390 -194.5t148.5 -542.5t-148.5 -542.5t-390 -194.5t-390 194.5t-148.5 542.5zM258 716.5q0 -573.5 358.5 -573.5t358.5 573.5t-358.5 573.5t-358.5 -573.5zM397 1647v102q0 20 21 20h397q20 0 21 -20v-102q0 -20 -21 -21h-397
q-21 1 -21 21z" />
    <glyph glyph-name="omacron" unicode="&#x14d;" 
d="M104 514q0 240 144.5 387.5t368 147.5t367.5 -147.5t144 -387.5t-144 -387t-367.5 -147t-368 147t-144.5 387zM272 514q0 -168 96.5 -275.5t248 -107.5t248 107.5t96.5 275.5t-96.5 275.5t-248 107.5t-248 -107.5t-96.5 -275.5zM397 1241v102q0 20 21 21h397q20 0 21 -21
v-102q0 -20 -21 -20h-397q-21 0 -21 20z" />
    <glyph glyph-name="Obreve" unicode="&#x14e;" 
d="M78 717q0 348 148.5 542.5t390 194.5t390 -194.5t148.5 -542.5t-148.5 -542.5t-390 -194.5t-390 194.5t-148.5 542.5zM258 716.5q0 -573.5 358.5 -573.5t358.5 573.5t-358.5 573.5t-358.5 -573.5zM346 1788q0 20 21 20h98q20 0 20 -20q0 -51 35 -79t96.5 -28t96.5 28
t35 79q0 20 20 20h98q20 0 21 -20q0 -113 -75 -177.5t-195.5 -64.5t-195.5 64.5t-75 177.5z" />
    <glyph glyph-name="obreve" unicode="&#x14f;" 
d="M104 514q0 240 144.5 387.5t368 147.5t367.5 -147.5t144 -387.5t-144 -387t-367.5 -147t-368 147t-144.5 387zM272 514q0 -168 96.5 -275.5t248 -107.5t248 107.5t96.5 275.5t-96.5 275.5t-248 107.5t-248 -107.5t-96.5 -275.5zM346 1382q0 20 21 21h98q20 0 20 -21
q0 -51 35 -78.5t96.5 -27.5t96.5 27.5t35 78.5q0 20 20 21h98q20 0 21 -21q0 -113 -75 -177t-195.5 -64t-195.5 64t-75 177z" />
    <glyph glyph-name="Ohungarumlaut" unicode="&#x150;" 
d="M78 717q0 348 148.5 542.5t390 194.5t390 -194.5t148.5 -542.5t-148.5 -542.5t-390 -194.5t-390 194.5t-148.5 542.5zM258 716.5q0 -573.5 358.5 -573.5t358.5 573.5t-358.5 573.5t-358.5 -573.5zM299 1552q0 4 2 9l135 258q12 20 31 20h207q12 0 12 -10q0 -4 -4 -10
l-203 -260q-16 -18 -37 -19h-131q-12 0 -12 12zM686 1552q0 4 2 9l135 258q12 20 31 20h207q12 0 12 -10q0 -4 -4 -10l-203 -260q-14 -18 -37 -19h-131q-12 0 -12 12z" />
    <glyph glyph-name="ohungarumlaut" unicode="&#x151;" 
d="M104 514q0 240 144.5 387.5t368 147.5t367.5 -147.5t144 -387.5t-144 -387t-367.5 -147t-368 147t-144.5 387zM272 514q0 -168 96.5 -275.5t248 -107.5t248 107.5t96.5 275.5t-96.5 275.5t-248 107.5t-248 -107.5t-96.5 -275.5zM305 1147q0 4 2 8l135 258q12 20 31 21
h207q12 0 12 -11q0 -4 -4 -10l-203 -260q-14 -18 -36 -18h-132q-12 0 -12 12zM692 1147q0 4 2 8l135 258q12 20 31 21h207q12 0 12 -11q0 -4 -4 -10l-203 -260q-16 -18 -36 -18h-131q-13 0 -13 12z" />
    <glyph glyph-name="OE" unicode="&#x152;" 
d="M33 717q0 348 120.5 542.5t319.5 194.5q90 0 170 -20h541q20 0 20 -21v-123q0 -20 -20 -20h-385v-434h282q20 0 21 -21v-123q0 -20 -21 -20h-282v-508h399q20 0 21 -21v-123q0 -20 -21 -20h-555q-80 -20 -170 -20q-199 0 -319.5 194.5t-120.5 542.5zM213 717
q0 -287 71.5 -430.5t196.5 -143.5q76 0 146 35v1077q-70 35 -146 35q-125 0 -196.5 -143t-71.5 -430z" />
    <glyph glyph-name="oe" unicode="&#x153;" 
d="M104 514q0 240 144.5 387.5t367.5 147.5q227 0 374 -158t147 -377v-29q0 -20 -21 -20h-424v-334q94 10 150.5 54t95.5 134q6 18 29 19h133q14 0 14 -14q0 -8 -4 -21q-53 -158 -185 -240.5t-309 -82.5q-223 0 -367.5 147t-144.5 387zM272 514q0 -143 71 -244.5t189 -130.5
v750q-119 -29 -189.5 -130.5t-70.5 -244.5zM692 616h264q-18 111 -87.5 183.5t-176.5 93.5v-277z" />
    <glyph glyph-name="Racute" unicode="&#x154;" 
d="M158 20v1393q0 20 20 21h490q434 0 434 -379q0 -270 -268 -361l323 -674q2 -4 2 -8q0 -12 -18 -12h-152q-18 0 -28 20l-316 656h-315v-656q0 -20 -21 -20h-131q-20 0 -20 20zM330 840h358q242 0 242 215t-242 215h-358v-430zM434 1552q0 4 2 9l135 258q12 20 31 20h207
q12 0 12 -10q0 -4 -4 -10l-203 -260q-16 -18 -36 -19h-132q-12 0 -12 12z" />
    <glyph glyph-name="racute" unicode="&#x155;" 
d="M244 20v988q0 20 20 20h119q20 0 20 -20v-129q55 74 146.5 122t206.5 48q244 0 348 -220q4 -8 4 -14q0 -14 -12 -20l-119 -72q-6 -4 -14 -4q-12 0 -17 10q-57 92 -108.5 130t-143.5 38q-125 0 -208 -116.5t-83 -286.5v-474q0 -20 -20 -20h-119q-20 0 -20 20zM543 1147
q0 4 2 8l135 258q12 20 31 21h207q12 0 12 -11q0 -4 -4 -10l-203 -260q-14 -18 -37 -18h-131q-12 0 -12 12z" />
    <glyph glyph-name="Rcommaaccent" unicode="&#x156;" 
d="M158 20v1393q0 20 20 21h490q434 0 434 -379q0 -270 -268 -361l323 -674q2 -4 2 -8q0 -12 -18 -12h-152q-18 0 -28 20l-316 656h-315v-656q0 -20 -21 -20h-131q-20 0 -20 20zM330 840h358q242 0 242 215t-242 215h-358v-430zM498 -106q0 20 20 20h209q20 0 21 -20v-289
q0 -166 -158 -166h-72q-20 0 -20 20v74q0 20 20 21q57 0 75.5 19t18.5 77v14h-94q-20 0 -20 21v209z" />
    <glyph glyph-name="rcommaaccent" unicode="&#x157;" 
d="M244 20v988q0 20 20 20h119q20 0 20 -20v-129q55 74 146.5 122t206.5 48q244 0 348 -220q4 -8 4 -14q0 -14 -12 -20l-119 -72q-6 -4 -14 -4q-12 0 -17 10q-57 92 -108.5 130t-143.5 38q-125 0 -208 -116.5t-83 -286.5v-474q0 -20 -20 -20h-119q-20 0 -20 20zM438 -106
q0 20 21 20h209q20 0 20 -20v-289q0 -166 -158 -166h-71q-20 0 -21 20v74q0 20 21 21q57 0 75.5 19t18.5 77v14h-94q-20 0 -21 21v209z" />
    <glyph glyph-name="Rcaron" unicode="&#x158;" 
d="M158 20v1393q0 20 20 21h490q434 0 434 -379q0 -270 -268 -361l323 -674q2 -4 2 -8q0 -12 -18 -12h-152q-18 0 -28 20l-316 656h-315v-656q0 -20 -21 -20h-131q-20 0 -20 20zM266 1829q0 10 15 10h127q18 0 36 -18l121 -123l121 123q18 18 37 18h127q14 0 14 -10l-4 -10
l-207 -263q-14 -16 -30 -16h-115q-16 0 -31 16l-207 263q-4 4 -4 10zM330 840h358q242 0 242 215t-242 215h-358v-430z" />
    <glyph glyph-name="rcaron" unicode="&#x159;" 
d="M244 20v988q0 20 20 20h119q20 0 20 -20v-129q55 74 146.5 122t206.5 48q244 0 348 -220q4 -8 4 -14q0 -14 -12 -20l-119 -72q-6 -4 -14 -4q-12 0 -17 10q-57 92 -108.5 130t-143.5 38q-125 0 -208 -116.5t-83 -286.5v-474q0 -20 -20 -20h-119q-20 0 -20 20zM360 1423
q0 10 15 11h127q18 0 37 -19l120 -123l121 123q18 18 37 19h127q14 0 14 -11l-4 -10l-206 -262q-14 -16 -31 -16h-115q-16 0 -31 16l-206 262q-5 4 -5 10z" />
    <glyph glyph-name="Sacute" unicode="&#x15a;" 
d="M90 424q0 20 21 20h131q20 0 20 -20q0 -121 94.5 -201t250 -80t249.5 69t94 204q0 51 -27.5 91t-85 68.5t-111.5 47t-138 41.5q-233 61 -352 147t-119 252q0 182 137 286.5t338 104.5q217 0 350 -115.5t133 -283.5q0 -20 -20 -21h-131q-20 0 -21 21q0 96 -91 165.5
t-220 69.5q-133 0 -218 -58t-85 -157q0 -41 12 -72.5t46 -58t57.5 -43t82.5 -36.5l84 -27q25 -8 95 -27q109 -31 180.5 -58.5t140 -71.5t102 -106.5t33.5 -144.5q0 -223 -144 -336.5t-371.5 -113.5t-372 121.5t-144.5 322.5zM473 1552q0 4 2 9l135 258q12 20 31 20h207
q12 0 12 -10q0 -4 -4 -10l-203 -260q-14 -18 -37 -19h-131q-12 0 -12 12z" />
    <glyph glyph-name="sacute" unicode="&#x15b;" 
d="M197 313q0 20 20 21h131q18 0 21 -21q12 -86 87.5 -134t186.5 -48t179.5 37t68.5 112.5t-70.5 112.5t-238.5 64q-188 31 -274.5 98.5t-86.5 200.5q0 139 114 216t286 77t280.5 -79t122.5 -216q0 -20 -20 -21h-115q-14 0 -21 21q-23 72 -92 107.5t-162 35.5
q-104 0 -168.5 -34t-64.5 -103q0 -74 65.5 -108t233.5 -64q84 -14 143.5 -32.5t117.5 -50.5t88 -83t30 -121q0 -152 -120 -236.5t-302 -84.5t-311 95t-129 238zM498 1147q0 4 2 8l135 258q12 20 31 21h206q12 0 13 -11q0 -4 -4 -10l-203 -260q-14 -18 -37 -18h-131
q-12 0 -12 12z" />
    <glyph glyph-name="Scircumflex" unicode="&#x15c;" 
d="M90 424q0 20 21 20h131q20 0 20 -20q0 -121 94.5 -201t250 -80t249.5 69t94 204q0 51 -27.5 91t-85 68.5t-111.5 47t-138 41.5q-233 61 -352 147t-119 252q0 182 137 286.5t338 104.5q217 0 350 -115.5t133 -283.5q0 -20 -20 -21h-131q-20 0 -21 21q0 96 -91 165.5
t-220 69.5q-133 0 -218 -58t-85 -157q0 -41 12 -72.5t46 -58t57.5 -43t82.5 -36.5l84 -27q25 -8 95 -27q109 -31 180.5 -58.5t140 -71.5t102 -106.5t33.5 -144.5q0 -223 -144 -336.5t-371.5 -113.5t-372 121.5t-144.5 322.5zM293 1550l4 11l207 262q14 16 31 16h114
q16 0 31 -16l207 -262q4 -4 4 -11q0 -10 -14 -10h-127q-18 0 -37 19l-121 122l-121 -122q-18 -18 -37 -19h-127q-14 0 -14 10z" />
    <glyph glyph-name="scircumflex" unicode="&#x15d;" 
d="M197 313q0 20 20 21h131q18 0 21 -21q12 -86 87.5 -134t186.5 -48t179.5 37t68.5 112.5t-70.5 112.5t-238.5 64q-188 31 -274.5 98.5t-86.5 200.5q0 139 114 216t286 77t280.5 -79t122.5 -216q0 -20 -20 -21h-115q-14 0 -21 21q-23 72 -92 107.5t-162 35.5
q-104 0 -168.5 -34t-64.5 -103q0 -74 65.5 -108t233.5 -64q84 -14 143.5 -32.5t117.5 -50.5t88 -83t30 -121q0 -152 -120 -236.5t-302 -84.5t-311 95t-129 238zM315 1145l4 10l207 262q14 16 31 17h115q16 0 30 -17l207 -262q4 -4 4 -10q0 -10 -14 -10h-127q-18 0 -37 18
l-121 123l-120 -123q-18 -18 -37 -18h-127q-15 0 -15 10z" />
    <glyph glyph-name="Scedilla" unicode="&#x15e;" 
d="M90 424q0 20 21 20h131q20 0 20 -20q0 -121 94.5 -201t250 -80t249.5 69t94 204q0 51 -27.5 91t-85 68.5t-111.5 47t-138 41.5q-233 61 -352 147t-119 252q0 182 137 286.5t338 104.5q217 0 350 -115.5t133 -283.5q0 -20 -20 -21h-131q-20 0 -21 21q0 96 -91 165.5
t-220 69.5q-133 0 -218 -58t-85 -157q0 -41 12 -72.5t46 -58t57.5 -43t82.5 -36.5l84 -27q25 -8 95 -27q109 -31 180.5 -58.5t140 -71.5t102 -106.5t33.5 -144.5q0 -217 -135 -329.5t-352 -120.5l-55 -105q51 14 118 14q82 0 129 -39.5t47 -105.5q0 -170 -219 -170
q-115 0 -200 20q-20 6 -21 21v59q0 20 21 21q4 0 68.5 -11.5t125.5 -11.5q90 0 90 63.5t-90 63.5q-68 0 -133 -14q-8 -2 -14 -2q-8 0 -15 6l-26 27q-4 4 -4 8q0 2 4 14l59 150q-193 23 -311.5 139.5t-118.5 296.5z" />
    <glyph glyph-name="scedilla" unicode="&#x15f;" 
d="M197 313q0 20 20 21h131q18 0 21 -21q12 -86 87.5 -134t186.5 -48t179.5 37t68.5 112.5t-70.5 112.5t-238.5 64q-188 31 -274.5 98.5t-86.5 200.5q0 139 114 216t286 77t280.5 -79t122.5 -216q0 -20 -20 -21h-115q-14 0 -21 21q-23 72 -92 107.5t-162 35.5
q-104 0 -168.5 -34t-64.5 -103q0 -74 65.5 -108t233.5 -64q84 -14 143.5 -32.5t117.5 -50.5t88 -83t30 -121q0 -147 -111.5 -231t-285.5 -90l-56 -105q49 14 119 14q82 0 129 -39.5t47 -105.5q0 -170 -219 -170q-115 0 -201 20q-20 6 -20 21v59q0 20 20 21q4 0 68.5 -11.5
t126.5 -11.5q90 0 90 63.5t-90 63.5q-70 0 -133 -14q-8 -2 -15 -2q-8 0 -14 6l-27 27q-4 4 -4 8q0 2 4 14l60 148q-152 23 -251 112.5t-99 214.5z" />
    <glyph glyph-name="Scaron" unicode="&#x160;" 
d="M90 424q0 20 21 20h131q20 0 20 -20q0 -121 94.5 -201t250 -80t249.5 69t94 204q0 51 -27.5 91t-85 68.5t-111.5 47t-138 41.5q-233 61 -352 147t-119 252q0 182 137 286.5t338 104.5q217 0 350 -115.5t133 -283.5q0 -20 -20 -21h-131q-20 0 -21 21q0 96 -91 165.5
t-220 69.5q-133 0 -218 -58t-85 -157q0 -41 12 -72.5t46 -58t57.5 -43t82.5 -36.5l84 -27q25 -8 95 -27q109 -31 180.5 -58.5t140 -71.5t102 -106.5t33.5 -144.5q0 -223 -144 -336.5t-371.5 -113.5t-372 121.5t-144.5 322.5zM293 1829q0 10 14 10h127q18 0 37 -18l121 -123
l121 123q18 18 37 18h127q14 0 14 -10l-4 -10l-207 -263q-14 -16 -31 -16h-114q-16 0 -31 16l-207 263q-4 4 -4 10z" />
    <glyph glyph-name="scaron" unicode="&#x161;" 
d="M197 313q0 20 20 21h131q18 0 21 -21q12 -86 87.5 -134t186.5 -48t179.5 37t68.5 112.5t-70.5 112.5t-238.5 64q-188 31 -274.5 98.5t-86.5 200.5q0 139 114 216t286 77t280.5 -79t122.5 -216q0 -20 -20 -21h-115q-14 0 -21 21q-23 72 -92 107.5t-162 35.5
q-104 0 -168.5 -34t-64.5 -103q0 -74 65.5 -108t233.5 -64q84 -14 143.5 -32.5t117.5 -50.5t88 -83t30 -121q0 -152 -120 -236.5t-302 -84.5t-311 95t-129 238zM319 1423q0 10 15 11h127q18 0 37 -19l120 -123l121 123q18 18 37 19h127q14 0 15 -11l-5 -10l-206 -262
q-14 -16 -31 -16h-115q-16 0 -31 16l-206 262q-5 4 -5 10z" />
    <glyph glyph-name="Tcommaaccent" unicode="&#x162;" 
d="M90 1290v123q0 20 21 21h1011q20 0 21 -21v-123q0 -20 -21 -20h-420v-1250q0 -20 -20 -20h-131q-20 0 -21 20v1250h-419q-21 0 -21 20zM492 -106q0 20 20 20h209q20 0 20 -20v-289q0 -166 -157 -166h-72q-20 0 -20 20v74q0 20 20 21q57 0 75.5 19t18.5 77v14h-94
q-20 0 -20 21v209z" />
    <glyph glyph-name="tcommaaccent" unicode="&#x163;" 
d="M86 897v111q0 20 20 20h254v332q0 20 21 20h119q20 0 20 -20v-332h406q20 0 20 -20v-111q0 -20 -20 -20h-406v-480q0 -266 201 -266q100 0 150.5 52.5t64.5 158.5q2 18 22 18h119h8q2 0 5.5 -2t4.5 -6t1 -10q0 -150 -101.5 -256t-273.5 -106q-360 0 -361 415v482h-254
q-20 0 -20 20zM596 -106q0 20 20 20h209q20 0 21 -20v-289q0 -166 -158 -166h-72q-20 0 -20 20v74q0 20 20 21q57 0 76 19t19 77v14h-95q-20 0 -20 21v209z" />
    <glyph glyph-name="Tcaron" unicode="&#x164;" 
d="M90 1290v123q0 20 21 21h1011q20 0 21 -21v-123q0 -20 -21 -20h-420v-1250q0 -20 -20 -20h-131q-20 0 -21 20v1250h-419q-21 0 -21 20zM317 1829q0 10 15 10h127q18 0 37 -18l120 -123l121 123q18 18 37 18h127q14 0 14 -10l-4 -10l-206 -263q-14 -16 -31 -16h-115
q-16 0 -31 16l-206 263q-5 4 -5 10z" />
    <glyph glyph-name="tcaron" unicode="&#x165;" 
d="M86 897v111q0 20 20 20h254v332q0 20 21 20h119q20 0 20 -20v-332h406q20 0 20 -20v-111q0 -20 -20 -20h-406v-480q0 -266 201 -266q100 0 150.5 52.5t64.5 158.5q2 18 22 18h119h8q2 0 5.5 -2t4.5 -6t1 -10q0 -150 -101.5 -256t-273.5 -106q-360 0 -361 415v482h-254
q-20 0 -20 20zM821 1110v74q0 20 21 20q57 0 75.5 22.5t18.5 86.5v39h-94q-20 0 -21 20v209q0 20 21 21h209q20 0 20 -21v-301q0 -88 -42 -139t-116 -51h-71q-21 0 -21 20z" />
    <glyph glyph-name="Tbar" unicode="&#x166;" 
d="M90 1290v123q0 20 21 21h1011q20 0 21 -21v-123q0 -20 -21 -20h-420v-277h334q20 0 21 -20v-115q0 -20 -21 -20h-334v-818q0 -20 -20 -20h-131q-20 0 -21 20v818h-333q-20 0 -21 20v115q0 20 21 20h333v277h-419q-21 0 -21 20z" />
    <glyph glyph-name="tbar" unicode="&#x167;" 
d="M86 897v111q0 20 20 20h254v332q0 20 21 20h119q20 0 20 -20v-332h406q20 0 20 -20v-111q0 -20 -20 -20h-406v-218h330q20 0 20 -20v-107q0 -20 -20 -20h-330v-115q0 -266 201 -266q100 0 150.5 52.5t64.5 158.5q2 18 22 18h119h8q2 0 5.5 -2t4.5 -6t1 -10
q0 -150 -101.5 -256t-273.5 -106q-176 0 -268.5 105t-92.5 310v117h-227q-20 0 -20 20v107q0 20 20 20h227v218h-254q-20 0 -20 20z" />
    <glyph glyph-name="Utilde" unicode="&#x168;" 
d="M135 485v928q0 20 21 21h131q20 0 20 -21v-905q0 -365 309.5 -365t309.5 365v905q0 20 20 21h131q20 0 21 -21v-928q0 -233 -135.5 -369t-346 -136t-346 136t-135.5 369zM266 1743q0 8 10 18q96 78 211 78q84 0 146.5 -42t111.5 -42q47 0 125 51q8 4 15 4q12 0 20 -16
l58 -86q4 -6 4 -12q0 -8 -11 -19q-96 -78 -211 -78q-84 0 -146 42t-112 42q-47 0 -125 -51q-8 -4 -14 -4q-10 0 -20 17l-58 86q-4 6 -4 12z" />
    <glyph glyph-name="utilde" unicode="&#x169;" 
d="M180 319v689q0 20 21 20h118q20 0 21 -20v-658q0 -111 49 -165t162 -54q135 0 225 98.5t90 257.5v521q0 20 21 20h119q20 0 20 -20v-988q0 -20 -20 -20h-119q-20 0 -21 20v123q-59 -70 -150 -116.5t-198 -46.5q-166 0 -252 89.5t-86 249.5zM242 1337q0 8 10 19
q96 78 211 78q84 0 146.5 -42t111.5 -42q47 0 125 51q8 4 14 4q12 0 21 -16l57 -86q4 -6 4 -13q0 -8 -10 -18q-96 -78 -211 -78q-84 0 -146.5 42t-111.5 42q-47 0 -125 -51q-8 -4 -14 -4q-10 0 -21 16l-57 86q-4 6 -4 12z" />
    <glyph glyph-name="Umacron" unicode="&#x16a;" 
d="M135 485v928q0 20 21 21h131q20 0 20 -21v-905q0 -365 309.5 -365t309.5 365v905q0 20 20 21h131q20 0 21 -21v-928q0 -233 -135.5 -369t-346 -136t-346 136t-135.5 369zM397 1647v102q0 20 21 20h397q20 0 21 -20v-102q0 -20 -21 -21h-397q-21 1 -21 21z" />
    <glyph glyph-name="umacron" unicode="&#x16b;" 
d="M180 319v689q0 20 21 20h118q20 0 21 -20v-658q0 -111 49 -165t162 -54q135 0 225 98.5t90 257.5v521q0 20 21 20h119q20 0 20 -20v-988q0 -20 -20 -20h-119q-20 0 -21 20v123q-59 -70 -150 -116.5t-198 -46.5q-166 0 -252 89.5t-86 249.5zM389 1241v102q0 20 21 21h397
q20 0 20 -21v-102q0 -20 -20 -20h-397q-21 0 -21 20z" />
    <glyph glyph-name="Ubreve" unicode="&#x16c;" 
d="M135 485v928q0 20 21 21h131q20 0 20 -21v-905q0 -365 309.5 -365t309.5 365v905q0 20 20 21h131q20 0 21 -21v-928q0 -233 -135.5 -369t-346 -136t-346 136t-135.5 369zM346 1788q0 20 21 20h98q20 0 20 -20q0 -51 35 -79t96.5 -28t96.5 28t35 79q0 20 20 20h98
q20 0 21 -20q0 -113 -75 -177.5t-195.5 -64.5t-195.5 64.5t-75 177.5z" />
    <glyph glyph-name="ubreve" unicode="&#x16d;" 
d="M180 319v689q0 20 21 20h118q20 0 21 -20v-658q0 -111 49 -165t162 -54q135 0 225 98.5t90 257.5v521q0 20 21 20h119q20 0 20 -20v-988q0 -20 -20 -20h-119q-20 0 -21 20v123q-59 -70 -150 -116.5t-198 -46.5q-166 0 -252 89.5t-86 249.5zM340 1382q0 20 20 21h99
q20 0 20 -21q0 -51 35 -78.5t96.5 -27.5t96 27.5t34.5 78.5q0 20 21 21h98q20 0 21 -21q0 -113 -75 -177t-196 -64t-195.5 64t-74.5 177z" />
    <glyph glyph-name="Uring" unicode="&#x16e;" 
d="M135 485v928q0 20 21 21h131q20 0 20 -21v-905q0 -365 309.5 -365t309.5 365v905q0 20 20 21h131q20 0 21 -21v-928q0 -233 -135.5 -369t-346 -136t-346 136t-135.5 369zM438 1708q0 76 50.5 124t128 48t128 -48t50.5 -124t-50.5 -124t-128 -48t-128 48t-50.5 124z
M537 1708q0 -37 22.5 -59.5t57 -22.5t57 22.5t22.5 59.5t-22.5 59.5t-57 22.5t-57 -22.5t-22.5 -59.5z" />
    <glyph glyph-name="uring" unicode="&#x16f;" 
d="M180 319v689q0 20 21 20h118q20 0 21 -20v-658q0 -111 49 -165t162 -54q135 0 225 98.5t90 257.5v521q0 20 21 20h119q20 0 20 -20v-988q0 -20 -20 -20h-119q-20 0 -21 20v123q-59 -70 -150 -116.5t-198 -46.5q-166 0 -252 89.5t-86 249.5zM436 1302.5q0 75.5 50.5 124
t128 48.5t128 -48.5t50.5 -124t-50.5 -124t-128 -48.5t-128 48.5t-50.5 124zM535 1302.5q0 -36.5 22.5 -59t57 -22.5t57 22.5t22.5 59t-22.5 59t-57 22.5t-57 -22.5t-22.5 -59z" />
    <glyph glyph-name="Uhungarumlaut" unicode="&#x170;" 
d="M135 485v928q0 20 21 21h131q20 0 20 -21v-905q0 -365 309.5 -365t309.5 365v905q0 20 20 21h131q20 0 21 -21v-928q0 -233 -135.5 -369t-346 -136t-346 136t-135.5 369zM303 1552q0 4 2 9l135 258q12 20 31 20h207q12 0 12 -10q0 -4 -4 -10l-203 -260q-16 -18 -37 -19
h-131q-12 0 -12 12zM692 1552q0 4 2 9l135 258q12 20 31 20h207q12 0 12 -10q0 -4 -4 -10l-203 -260q-16 -18 -36 -19h-131q-13 0 -13 12z" />
    <glyph glyph-name="uhungarumlaut" unicode="&#x171;" 
d="M180 319v689q0 20 21 20h118q20 0 21 -20v-658q0 -111 49 -165t162 -54q135 0 225 98.5t90 257.5v521q0 20 21 20h119q20 0 20 -20v-988q0 -20 -20 -20h-119q-20 0 -21 20v123q-59 -70 -150 -116.5t-198 -46.5q-166 0 -252 89.5t-86 249.5zM264 1147q0 4 2 8l135 258
q12 20 31 21h207q12 0 12 -11q0 -4 -4 -10l-203 -260q-14 -18 -36 -18h-132q-12 0 -12 12zM653 1147q0 4 2 8l136 258q12 20 30 21h207q12 0 12 -11q0 -4 -4 -10l-202 -260q-14 -18 -37 -18h-131q-13 0 -13 12z" />
    <glyph glyph-name="Uogonek" unicode="&#x172;" 
d="M135 485v928q0 20 21 21h131q20 0 20 -21v-905q0 -365 309.5 -365t309.5 365v905q0 20 20 21h131q20 0 21 -21v-928q0 -188 -90 -315t-240 -170q-63 -16 -101 -55t-38 -88.5t35.5 -77t93.5 -27.5h39q20 0 20 -20v-70q0 -20 -20 -20h-74q-109 0 -176.5 47t-67.5 139
q0 90 74 156q-186 18 -302 152t-116 349z" />
    <glyph glyph-name="uogonek" unicode="&#x173;" 
d="M180 319v689q0 20 21 20h118q20 0 21 -20v-658q0 -111 49 -165t162 -54q135 0 225 98.5t90 257.5v521q0 20 21 20h119q20 0 20 -20v-988q0 -18 -14 -20q-61 -16 -99.5 -55t-38.5 -88.5t36 -77t94 -27.5h38q20 0 21 -20v-70q0 -20 -21 -20h-73q-109 0 -176.5 47t-67.5 139
q0 70 42 121t99 74v120q-59 -70 -150 -116.5t-198 -46.5q-166 0 -252 89.5t-86 249.5z" />
    <glyph glyph-name="Wcircumflex" unicode="&#x174;" 
d="M41 1413q0 20 16 21h133q23 0 25 -21l115 -1192l194 885q6 20 25 20h135q18 0 25 -20l194 -885l115 1192q2 20 24 21h134q16 0 16 -21l-158 -1393q-2 -20 -22 -20h-191q-16 0 -22 20l-183 826l-182 -826q-6 -20 -22 -20h-191q-20 0 -22 20zM317 1550l5 11l206 262
q14 16 31 16h115q16 0 31 -16l206 -262q4 -4 4 -11q0 -10 -14 -10h-127q-18 0 -37 19l-121 122l-120 -122q-18 -18 -37 -19h-127q-15 0 -15 10z" />
    <glyph glyph-name="wcircumflex" unicode="&#x175;" 
d="M33 1014q0 14 16 14h141q23 0 29 -20l141 -775l156 672q6 20 23 21h155q16 0 23 -21l155 -672l142 775q6 20 28 20h142q16 0 16 -14q0 -8 -2 -17l-219 -977q-4 -20 -27 -20h-145q-20 0 -27 20l-164 658l-163 -658q-6 -20 -27 -20h-145q-23 0 -27 20l-219 977q-2 9 -2 17z
M317 1145l5 10l206 262q14 16 31 17h115q16 0 31 -17l206 -262q4 -4 4 -10q0 -10 -14 -10h-127q-18 0 -37 18l-121 123l-120 -123q-18 -18 -37 -18h-127q-15 0 -15 10z" />
    <glyph glyph-name="Ycircumflex" unicode="&#x176;" 
d="M80 1423q0 10 14 11h162q12 0 23 -17l337 -622l338 622q10 16 23 17h162q14 0 14 -11q0 -2 -4 -10l-447 -809v-584q0 -20 -20 -20h-131q-20 0 -21 20v584l-446 809q-4 8 -4 10zM317 1550l5 11l206 262q14 16 31 16h115q16 0 31 -16l206 -262q4 -4 4 -11q0 -10 -14 -10
h-127q-18 0 -37 19l-121 122l-120 -122q-18 -18 -37 -19h-127q-15 0 -15 10z" />
    <glyph glyph-name="ycircumflex" unicode="&#x177;" 
d="M141 1012q0 16 17 16h147q20 0 27 -20l321 -777l305 777q8 20 29 20h141q16 0 17 -14q0 -2 -4 -15l-441 -1099q-70 -174 -149.5 -250t-194.5 -76q-80 0 -151 33q-20 12 -21 33v110q0 20 17 21q8 0 51 -22.5t96 -22.5q72 0 112 56t101 214l4 12l-420 987q-4 13 -4 17z
M354 1145l4 10l207 262q14 16 31 17h115q16 0 30 -17l207 -262q4 -4 4 -10q0 -10 -14 -10h-127q-18 0 -37 18l-121 123l-121 -123q-18 -18 -36 -18h-127q-15 0 -15 10z" />
    <glyph glyph-name="Ydieresis" unicode="&#x178;" 
d="M80 1423q0 10 14 11h162q12 0 23 -17l337 -622l338 622q10 16 23 17h162q14 0 14 -11q0 -2 -4 -10l-447 -809v-584q0 -20 -20 -20h-131q-20 0 -21 20v584l-446 809q-4 8 -4 10zM340 1647v172q0 20 20 20h172q20 0 21 -20v-172q0 -20 -21 -21h-172q-20 1 -20 21zM680 1647
v172q0 20 20 20h172q20 0 21 -20v-172q0 -20 -21 -21h-172q-20 1 -20 21z" />
    <glyph glyph-name="Zacute" unicode="&#x179;" 
d="M129 20v123q0 16 12 35l748 1092h-713q-20 0 -20 20v123q0 20 20 21h885q20 0 20 -21v-123q0 -16 -12 -35l-745 -1091h772q20 0 20 -21v-123q0 -20 -20 -20h-946q-21 0 -21 20zM461 1552q0 4 2 9l135 258q12 20 31 20h207q12 0 12 -10q0 -4 -4 -10l-203 -260
q-14 -18 -37 -19h-131q-12 0 -12 12z" />
    <glyph glyph-name="zacute" unicode="&#x17a;" 
d="M213 20v111q0 14 12 31l584 715h-549q-20 0 -20 20v111q0 20 20 20h717q20 0 20 -20v-111q0 -20 -16 -43l-573 -702h608q20 0 20 -21v-111q0 -20 -20 -20h-783q-20 0 -20 20zM479 1147q0 4 2 8l135 258q12 20 31 21h207q12 0 12 -11q0 -4 -4 -10l-203 -260
q-16 -18 -36 -18h-131q-13 0 -13 12z" />
    <glyph glyph-name="Zdotaccent" unicode="&#x17b;" 
d="M129 20v123q0 16 12 35l748 1092h-713q-20 0 -20 20v123q0 20 20 21h885q20 0 20 -21v-123q0 -16 -12 -35l-745 -1091h772q20 0 20 -21v-123q0 -20 -20 -20h-946q-21 0 -21 20zM516 1642v177q0 20 21 20h176q20 0 20 -20v-177q0 -20 -20 -20h-176q-21 0 -21 20z" />
    <glyph glyph-name="zdotaccent" unicode="&#x17c;" 
d="M213 20v111q0 14 12 31l584 715h-549q-20 0 -20 20v111q0 20 20 20h717q20 0 20 -20v-111q0 -20 -16 -43l-573 -702h608q20 0 20 -21v-111q0 -20 -20 -20h-783q-20 0 -20 20zM514 1237v176q0 20 21 21h176q20 0 20 -21v-176q0 -20 -20 -20h-176q-21 0 -21 20z" />
    <glyph glyph-name="Zcaron" unicode="&#x17d;" 
d="M129 20v123q0 16 12 35l748 1092h-713q-20 0 -20 20v123q0 20 20 21h885q20 0 20 -21v-123q0 -16 -12 -35l-745 -1091h772q20 0 20 -21v-123q0 -20 -20 -20h-946q-21 0 -21 20zM322 1829q0 10 14 10h127q18 0 37 -18l121 -123l120 123q18 18 37 18h127q14 0 15 -10
l-5 -10l-206 -263q-14 -16 -31 -16h-115q-16 0 -31 16l-206 263q-4 4 -4 10z" />
    <glyph glyph-name="zcaron" unicode="&#x17e;" 
d="M213 20v111q0 14 12 31l584 715h-549q-20 0 -20 20v111q0 20 20 20h717q20 0 20 -20v-111q0 -20 -16 -43l-573 -702h608q20 0 20 -21v-111q0 -20 -20 -20h-783q-20 0 -20 20zM334 1423q0 10 14 11h127q18 0 37 -19l121 -123l121 123q18 18 37 19h127q14 0 14 -11l-4 -10
l-207 -262q-14 -16 -31 -16h-115q-16 0 -30 16l-207 262q-4 4 -4 10z" />
    <glyph glyph-name="longs" unicode="&#x17f;" 
d="M166 897v111q0 20 20 20h256v90q0 137 89.5 236.5t242.5 99.5q162 0 279 -70q16 -12 16 -34v-113q0 -18 -14 -18q-6 0 -15 6q-119 78 -254 78q-86 0 -135 -54.5t-49 -150.5v-1078q0 -20 -20 -20h-119q-20 0 -21 20v857h-256q-20 0 -20 20z" />
    <glyph glyph-name="florin" unicode="&#x192;" 
d="M31 -250q0 20 14 21q8 0 16 -4q80 -41 164 -41q98 0 149.5 58t67.5 189l121 904h-262q-18 0 -18 20v111q0 20 22 20h279l8 70q18 160 123.5 258t265.5 98q94 0 168 -29q16 -6 16 -34v-107q0 -20 -14 -20q-6 0 -16 4q-80 35 -150 35q-92 0 -157.5 -52.5t-77.5 -167.5
l-7 -55h402q20 0 20 -20v-111q0 -20 -20 -20h-422l-123 -918q-53 -385 -350 -385q-131 0 -203 35q-16 10 -16 35v106z" />
    <glyph glyph-name="endash" unicode="&#x2013;" 
d="M176 641v119q0 20 21 20h839q20 0 21 -20v-119q0 -20 -21 -20h-839q-21 0 -21 20z" />
    <glyph glyph-name="emdash" unicode="&#x2014;" 
d="M96 641v119q0 20 21 20h999q20 0 21 -20v-119q0 -20 -21 -20h-999q-21 0 -21 20z" />
    <glyph glyph-name="quoteleft" unicode="&#x2018;" 
d="M492 942v301q0 88 41.5 139.5t115.5 51.5h72q20 0 20 -21v-74q0 -20 -20 -20q-57 0 -75.5 -22.5t-18.5 -86.5v-39h94q20 0 20 -20v-209q0 -20 -20 -20h-209q-20 0 -20 20z" />
    <glyph glyph-name="quoteright" unicode="&#x2019;" 
d="M492 942v74q0 20 20 20q57 0 75.5 22.5t18.5 86.5v39h-94q-20 0 -20 20v209q0 20 20 21h209q20 0 20 -21v-301q0 -88 -42 -139t-115 -51h-72q-20 0 -20 20z" />
    <glyph glyph-name="quotesinglbase" unicode="&#x201a;" 
d="M492 20v209q0 20 20 21h209q20 0 20 -21v-301q0 -88 -42 -139t-115 -51h-72q-20 0 -20 20v74q0 20 20 21q57 0 75.5 22.5t18.5 85.5v39h-94q-20 0 -20 20z" />
    <glyph glyph-name="quotedblleft" unicode="&#x201c;" 
d="M281 942v301q0 88 42 139.5t115 51.5h72q20 0 20 -21v-74q0 -20 -20 -20q-57 0 -75.5 -22.5t-18.5 -86.5v-39h94q20 0 20 -20v-209q0 -20 -20 -20h-209q-20 0 -20 20zM702 942v301q0 88 42 139.5t116 51.5h72q20 0 20 -21v-74q0 -20 -20 -20q-57 0 -75.5 -22.5
t-18.5 -86.5v-39h94q20 0 20 -20v-209q0 -20 -20 -20h-209q-21 0 -21 20z" />
    <glyph glyph-name="quotedblright" unicode="&#x201d;" 
d="M281 942v74q0 20 20 20q57 0 75.5 22.5t18.5 86.5v39h-94q-20 0 -20 20v209q0 20 20 21h209q20 0 20 -21v-301q0 -88 -42 -139t-115 -51h-72q-20 0 -20 20zM702 942v74q0 20 21 20q57 0 75.5 22.5t18.5 86.5v39h-94q-20 0 -21 20v209q0 20 21 21h209q20 0 20 -21v-301
q0 -88 -42 -139t-115 -51h-72q-21 0 -21 20z" />
    <glyph glyph-name="quotedblbase" unicode="&#x201e;" 
d="M281 20v209q0 20 20 21h209q20 0 20 -21v-301q0 -88 -42 -139t-115 -51h-72q-20 0 -20 20v74q0 20 20 21q57 0 75.5 22.5t18.5 85.5v39h-94q-20 0 -20 20zM702 20v209q0 20 21 21h209q20 0 20 -21v-301q0 -88 -42 -139t-115 -51h-72q-20 0 -21 20v74q0 20 21 21
q57 0 75.5 22.5t18.5 85.5v39h-94q-21 0 -21 20z" />
    <glyph glyph-name="dagger" unicode="&#x2020;" 
d="M170 889v119q0 20 20 20h340v385q0 20 21 21h131q20 0 20 -21v-385h340q20 0 21 -20v-119q0 -20 -21 -21h-340v-1253q0 -20 -20 -21h-131q-20 0 -21 21v1253h-340q-20 1 -20 21z" />
    <glyph glyph-name="daggerdbl" unicode="&#x2021;" 
d="M170 20v119q0 20 20 21h340v708h-340q-20 0 -20 21v119q0 20 20 20h340v385q0 20 21 21h131q20 0 20 -21v-385h340q20 0 21 -20v-119q0 -20 -21 -21h-340v-708h340q20 0 21 -21v-119q0 -20 -21 -20h-340v-385q0 -20 -20 -21h-131q-20 0 -21 21v385h-340q-20 0 -20 20z
" />
    <glyph glyph-name="bullet" unicode="&#x2022;" 
d="M356 667.5q0 106.5 76 183.5t184.5 77t184.5 -77t76 -183.5t-76 -183t-184.5 -76.5t-184.5 76.5t-76 183z" />
    <glyph glyph-name="ellipsis" unicode="&#x2026;" 
d="M78 20v209q0 20 20 21h209q20 0 21 -21v-209q0 -20 -21 -20h-209q-20 0 -20 20zM492 20v209q0 20 20 21h209q20 0 20 -21v-209q0 -20 -20 -20h-209q-20 0 -20 20zM905 20v209q0 20 21 21h209q20 0 20 -21v-209q0 -20 -20 -20h-209q-21 0 -21 20z" />
    <glyph glyph-name="guilsinglleft" unicode="&#x2039;" 
d="M352 504v114q0 18 21 37l440 387q6 6 12 7q12 0 13 -15v-172q0 -20 -15 -33l-307 -268l307 -268q14 -12 15 -33v-172q0 -14 -13 -14q-6 0 -12 6l-440 387q-21 19 -21 37z" />
    <glyph glyph-name="guilsinglright" unicode="&#x203a;" 
d="M395 88v172q0 20 15 33l307 268l-307 268q-14 12 -15 33v172q0 14 13 15q6 0 12 -7l440 -387q20 -18 21 -37v-114q0 -18 -21 -37l-440 -387q-6 -6 -12 -6q-13 0 -13 14z" />
    <glyph glyph-name="Euro" unicode="&#x20ac;" 
d="M78 469v119q0 20 20 20h99q-4 35 -4 109t4 108h-99q-20 0 -20 21v119q0 20 20 20h121q49 225 176 347t305 122q209 0 338 -134t146 -353q0 -20 -21 -21h-127q-18 0 -20 21q-20 164 -102.5 245.5t-213.5 81.5q-111 0 -191.5 -76.5t-117.5 -232.5h406q20 0 20 -20v-119
q0 -20 -20 -21h-428q-4 -49 -4 -108.5t4 -108.5h428q20 0 20 -20v-119q0 -20 -20 -20h-406q74 -309 309 -310q133 0 214 82t102 246q2 20 20 20h127q20 0 21 -20q-16 -219 -145.5 -353t-338.5 -134q-178 0 -305 121.5t-176 347.5h-121q-20 0 -20 20z" />
    <glyph glyph-name="trademark" unicode="&#x2122;" 
d="M23 1343v70q0 20 20 21h438q20 0 21 -21v-70q0 -20 -21 -20h-162v-635q0 -20 -20 -20h-74q-20 0 -20 20v635h-162q-20 0 -20 20zM580 688v725q0 20 20 21h125q18 0 25 -17l110 -307l111 307q6 16 24 17h125q20 0 21 -21v-725q0 -20 -21 -20h-73q-20 0 -21 20v582
l-119 -312q-6 -12 -16 -12h-62q-10 0 -16 12l-119 312v-582q0 -20 -20 -20h-74q-20 0 -20 20z" />
    <glyph glyph-name="lozenge" unicode="&#x25ca;" 
d="M106 717q0 8 7 20l395 676q8 20 29 21h161q20 0 29 -21l393 -676q6 -12 6 -20t-6 -21l-393 -676q-8 -20 -29 -20h-161q-20 0 -29 20l-395 676q-7 13 -7 21zM285 717l331 -565l332 565l-332 565z" />
    <glyph glyph-name="uniE000" unicode="&#xe000;" horiz-adv-x="1030" 
d="M0 1030h1030v-1030h-1030v1030z" />
    <glyph glyph-name="nonmarkingreturn" horiz-adv-x="0" 
 />
  </font>
</defs>
</svg>
