<?xml version="1.0" encoding="utf-8"?>
<!-- Generator: Adobe Illustrator 17.1.0, SVG Export Plug-In . SVG Version: 6.00 Build 0)  -->
<!DOCTYPE svg PUBLIC "-//W3C//DTD SVG 1.1//EN" "http://www.w3.org/Graphics/SVG/1.1/DTD/svg11.dtd">
<svg version="1.1" id="Layer_1" xmlns="http://www.w3.org/2000/svg" xmlns:xlink="http://www.w3.org/1999/xlink" x="0px" y="0px"
	 viewBox="0 0 11.1 120.3" style="enable-background:new 0 0 11.1 120.3;" xml:space="preserve">
<style type="text/css">
	.st0{fill:#444444;}
</style>
<g>
	<path class="st0" d="M4.6,120.3c-0.7,0-1.4-0.2-1.9-0.7c-0.5-0.4-0.7-1-0.7-1.7c0-0.7,0.3-1.3,0.8-1.7s1.1-0.6,1.9-0.6h0.1
		c0.1,0,0.1,0,0.1,0.1v3.8c0.5,0,0.9-0.2,1.2-0.5c0.3-0.3,0.4-0.6,0.4-1.1c0-0.4-0.1-0.7-0.2-0.9c-0.1-0.2-0.4-0.4-0.7-0.5
		c-0.1,0-0.1-0.1-0.1-0.1v-0.6c0,0,0-0.1,0.1-0.1c0,0,0.1,0,0.1,0c1.1,0.4,1.6,1.1,1.6,2.2c0,0.8-0.2,1.3-0.7,1.8
		C6,120.1,5.3,120.3,4.6,120.3z M4.1,119.4v-3c-0.4,0.1-0.7,0.3-1,0.5c-0.2,0.3-0.4,0.6-0.4,0.9c0,0.4,0.1,0.7,0.4,1
		C3.3,119.1,3.7,119.3,4.1,119.4z"/>
	<path class="st0" d="M3.5,112.2h-1c-0.1,0-0.1,0-0.1-0.1v-1c0-0.1,0-0.1,0.1-0.1h1c0.1,0,0.1,0,0.1,0.1L3.5,112.2
		C3.6,112.1,3.6,112.2,3.5,112.2z M7,112.2H6c-0.1,0-0.1,0-0.1-0.1v-1c0-0.1,0-0.1,0.1-0.1h1c0.1,0,0.1,0,0.1,0.1L7,112.2
		C7.1,112.1,7.1,112.2,7,112.2z"/>
	<path class="st0" d="M7,100.7H0.2c-0.1,0-0.1,0-0.1-0.1v-0.6c0-0.1,0-0.1,0.1-0.1h2.6c-0.2-0.2-0.4-0.4-0.6-0.8
		c-0.2-0.3-0.2-0.7-0.2-1c0-0.6,0.1-1,0.4-1.3c0.3-0.3,0.7-0.5,1.2-0.5H7c0.1,0,0.1,0,0.1,0.1v0.6c0,0.1,0,0.1-0.1,0.1H3.8
		c-0.4,0-0.7,0.1-0.8,0.3c-0.2,0.2-0.3,0.5-0.3,0.8c0,0.4,0.2,0.7,0.5,1.1C3.5,99.8,4,100,4.5,100H7c0.1,0,0.1,0,0.1,0.1L7,100.7
		C7.1,100.7,7.1,100.7,7,100.7z"/>
	<path class="st0" d="M4.6,94.6c-0.7,0-1.4-0.2-1.9-0.7c-0.5-0.4-0.7-1-0.7-1.7c0-0.7,0.3-1.3,0.8-1.7s1.1-0.6,1.9-0.6h0.1
		c0.1,0,0.1,0,0.1,0.1v3.8c0.5,0,0.9-0.2,1.2-0.5c0.3-0.3,0.4-0.6,0.4-1.1c0-0.4-0.1-0.7-0.2-0.9c-0.1-0.2-0.4-0.4-0.7-0.5
		c-0.1,0-0.1-0.1-0.1-0.1v-0.6c0,0,0-0.1,0.1-0.1c0,0,0.1,0,0.1,0c1.1,0.4,1.6,1.1,1.6,2.2C7.2,93,7,93.6,6.5,94
		C6,94.4,5.3,94.6,4.6,94.6z M4.1,93.8v-3c-0.4,0.1-0.7,0.3-1,0.5c-0.2,0.3-0.4,0.6-0.4,0.9c0,0.4,0.1,0.7,0.4,1
		C3.3,93.5,3.7,93.7,4.1,93.8z"/>
	<path class="st0" d="M7,88.2H6.5c-0.1,0-0.1,0-0.1-0.1v-1.9H0.8v1.6c0,0.1,0,0.1-0.1,0.1H0.2c-0.1,0-0.1,0-0.1-0.1v-2.3
		c0-0.1,0-0.1,0.1-0.1h6.2v-1.9c0-0.1,0-0.1,0.1-0.1H7c0.1,0,0.1,0,0.1,0.1v4.5C7.1,88.2,7.1,88.2,7,88.2z"/>
	<path class="st0" d="M7,81.8H6.5c-0.1,0-0.1,0-0.1-0.1v-1.9H0.8v1.6c0,0.1,0,0.1-0.1,0.1H0.2c-0.1,0-0.1,0-0.1-0.1v-2.3
		c0-0.1,0-0.1,0.1-0.1h6.2v-1.9c0-0.1,0-0.1,0.1-0.1H7c0.1,0,0.1,0,0.1,0.1v4.5C7.1,81.7,7.1,81.8,7,81.8z"/>
	<path class="st0" d="M6.5,74.9c-0.5,0.5-1.1,0.7-1.9,0.7c-0.8,0-1.4-0.2-1.9-0.7C2.2,74.4,2,73.8,2,73.1c0-0.7,0.2-1.3,0.7-1.8
		c0.5-0.5,1.1-0.7,1.9-0.7c0.8,0,1.4,0.2,1.9,0.7c0.5,0.5,0.7,1.1,0.7,1.8C7.2,73.8,7,74.4,6.5,74.9z M3.2,74.3
		c0.3,0.3,0.8,0.5,1.3,0.5c0.5,0,1-0.2,1.3-0.5c0.3-0.3,0.5-0.7,0.5-1.2c0-0.5-0.2-0.9-0.5-1.2c-0.3-0.3-0.8-0.5-1.3-0.5
		c-0.5,0-1,0.2-1.3,0.5c-0.3,0.3-0.5,0.7-0.5,1.2C2.7,73.6,2.9,74,3.2,74.3z"/>
	<path class="st0" d="M4.2,69.4c-1.2,0-2.2-0.3-3-0.8s-1.1-1.3-1.1-2.2c0-0.7,0.2-1.3,0.6-1.7c0.4-0.4,0.9-0.6,1.6-0.6h4
		c0.1,0,0.1,0,0.1,0.1v0.5c0,0.1,0,0.1-0.1,0.1H5.8c0.4,0.3,0.6,0.7,0.6,1.2c0,0.6-0.2,1-0.6,1.3c-0.4,0.3-0.9,0.5-1.6,0.5
		c-0.6,0-1.2-0.2-1.6-0.5C2.2,66.9,2,66.4,2,65.9c0-0.6,0.2-1,0.6-1.2H2.2c-0.4,0-0.8,0.1-1,0.4c-0.3,0.3-0.4,0.7-0.4,1.3
		c0,0.7,0.3,1.3,1,1.7c0.6,0.4,1.5,0.6,2.4,0.6c1.1,0,1.9-0.2,2.5-0.7c0.6-0.4,0.9-1.1,0.9-1.8c0-0.6-0.1-1.2-0.4-1.7c0,0,0,0,0-0.1
		c0,0,0,0,0-0.1L7.7,64c0,0,0,0,0,0c0,0,0.1,0,0.1,0c0.3,0.6,0.5,1.3,0.5,2c0,1-0.3,1.8-1,2.4C6.6,69.1,5.6,69.4,4.2,69.4z M4.2,67
		c0.4,0,0.8-0.1,1.1-0.3c0.3-0.2,0.4-0.5,0.4-0.9s-0.1-0.7-0.4-0.9s-0.6-0.3-1.1-0.3s-0.8,0.1-1.1,0.3c-0.3,0.2-0.4,0.5-0.4,0.9
		s0.1,0.7,0.4,0.9C3.4,66.9,3.8,67,4.2,67z"/>
	<path class="st0" d="M5.5,62.4H2.2c-0.1,0-0.1,0-0.1-0.1v-0.6c0-0.1,0-0.1,0.1-0.1h3.2c0.4,0,0.6-0.1,0.8-0.2
		c0.2-0.2,0.3-0.4,0.3-0.8c0-0.4-0.2-0.8-0.5-1.1S5.2,59,4.7,59H2.2c-0.1,0-0.1,0-0.1-0.1v-0.6c0-0.1,0-0.1,0.1-0.1H7
		c0.1,0,0.1,0,0.1,0.1v0.6C7.1,59,7.1,59,7,59H6.4c0.2,0.2,0.4,0.4,0.6,0.7s0.2,0.6,0.2,1c0,0.5-0.1,1-0.4,1.2
		C6.5,62.2,6.1,62.4,5.5,62.4z"/>
	<path class="st0" d="M2.7,56H2.2c-0.1,0-0.1,0-0.1-0.1v-1.4H1.6c-0.4,0-0.8-0.1-1.2-0.4C0.2,53.9,0,53.5,0,53.1
		c0-0.4,0.1-0.8,0.3-1.1c0-0.1,0.1-0.1,0.2-0.1H1c0.1,0,0.1,0,0.1,0.1c0,0,0,0,0,0.1c-0.2,0.3-0.3,0.6-0.3,1c0,0.2,0.1,0.4,0.2,0.6
		c0.2,0.1,0.4,0.2,0.7,0.2h0.4v-2.1c0-0.1,0-0.1,0.1-0.1h0.5c0.1,0,0.1,0,0.1,0.1v2.1H7c0.1,0,0.1,0,0.1,0.1v0.6
		c0,0.1,0,0.1-0.1,0.1H2.8L2.7,56C2.8,56,2.8,56,2.7,56z"/>
	<path class="st0" d="M6.5,49.2c-0.5,0.5-1.1,0.7-1.9,0.7c-0.8,0-1.4-0.2-1.9-0.7C2.2,48.7,2,48.1,2,47.4c0-0.7,0.2-1.3,0.7-1.8
		c0.5-0.5,1.1-0.7,1.9-0.7c0.8,0,1.4,0.2,1.9,0.7c0.5,0.5,0.7,1.1,0.7,1.8C7.2,48.1,7,48.7,6.5,49.2z M3.2,48.6
		c0.3,0.3,0.8,0.5,1.3,0.5c0.5,0,1-0.2,1.3-0.5c0.3-0.3,0.5-0.7,0.5-1.2c0-0.5-0.2-0.9-0.5-1.2c-0.3-0.3-0.8-0.5-1.3-0.5
		c-0.5,0-1,0.2-1.3,0.5c-0.3,0.3-0.5,0.7-0.5,1.2C2.7,47.9,2.9,48.3,3.2,48.6z"/>
	<path class="st0" d="M7,41.6H6c-0.1,0-0.1,0-0.1-0.1v-1c0-0.1,0-0.1,0.1-0.1h1c0.1,0,0.1,0,0.1,0.1L7,41.6
		C7.1,41.6,7.1,41.6,7,41.6z"/>
	<path class="st0" d="M5.6,36.6C5.5,36.6,5.5,36.5,5.6,36.6l-0.1-0.7c0-0.1,0-0.1,0.1-0.1c0.3,0,0.5-0.2,0.7-0.4
		c0.2-0.2,0.2-0.5,0.2-0.9s-0.1-0.7-0.2-0.9c-0.1-0.2-0.3-0.3-0.5-0.3c-0.2,0-0.4,0.1-0.5,0.3c-0.1,0.2-0.2,0.6-0.3,1.2
		c-0.1,0.6-0.3,1.1-0.5,1.3c-0.2,0.3-0.5,0.4-1,0.4c-0.5,0-0.8-0.2-1.1-0.6C2.1,35.6,2,35.1,2,34.6s0.1-1,0.4-1.4
		c0.3-0.4,0.6-0.6,1.1-0.6c0.1,0,0.1,0,0.1,0.1v0.6c0,0,0,0.1-0.1,0.1c-0.2,0.1-0.4,0.2-0.5,0.4c-0.1,0.2-0.2,0.5-0.2,0.8
		c0,0.3,0.1,0.6,0.2,0.8c0.1,0.2,0.3,0.3,0.5,0.3c0.2,0,0.4-0.1,0.5-0.3c0.1-0.2,0.2-0.6,0.3-1.1c0-0.3,0.1-0.5,0.2-0.7
		c0.1-0.2,0.1-0.4,0.2-0.6c0.1-0.2,0.2-0.3,0.4-0.4s0.4-0.1,0.6-0.1c0.5,0,0.9,0.2,1.2,0.6c0.3,0.4,0.4,0.9,0.4,1.5S7,35.6,6.7,36
		S6,36.6,5.6,36.6z"/>
	<path class="st0" d="M2.7,30.8H2.2c-0.1,0-0.1,0-0.1-0.1v-1.2H0.5c-0.1,0-0.1,0-0.1-0.1v-0.6c0-0.1,0-0.1,0.1-0.1h1.6v-2
		c0-0.1,0-0.1,0.1-0.1h0.5c0.1,0,0.1,0,0.1,0.1v2h2.3c0.9,0,1.3-0.3,1.3-1c0-0.3-0.1-0.6-0.3-0.7c-0.2-0.2-0.4-0.3-0.8-0.3
		c-0.1,0-0.1,0-0.1-0.1v-0.6v0c0,0,0,0,0,0c0,0,0,0,0,0s0,0,0,0c0.5,0,0.9,0.2,1.3,0.5c0.3,0.3,0.5,0.8,0.5,1.3c0,1.2-0.7,1.8-2,1.8
		H2.8L2.7,30.8C2.8,30.7,2.8,30.8,2.7,30.8z"/>
	<path class="st0" d="M5.5,23.9H2.2c-0.1,0-0.1,0-0.1-0.1v-0.6c0-0.1,0-0.1,0.1-0.1h3.2c0.4,0,0.6-0.1,0.8-0.2
		c0.2-0.2,0.3-0.4,0.3-0.8c0-0.4-0.2-0.8-0.5-1.1s-0.7-0.4-1.3-0.4H2.2c-0.1,0-0.1,0-0.1-0.1v-0.6c0-0.1,0-0.1,0.1-0.1H7
		c0.1,0,0.1,0,0.1,0.1v0.6c0,0.1,0,0.1-0.1,0.1H6.4C6.6,20.7,6.8,21,7,21.3s0.2,0.6,0.2,1c0,0.5-0.1,1-0.4,1.2
		C6.5,23.7,6.1,23.9,5.5,23.9z"/>
	<path class="st0" d="M6.5,17.1c-0.5,0.4-1.1,0.6-1.9,0.6c-0.8,0-1.4-0.2-1.9-0.6S2,16.1,2,15.5c0-0.6,0.2-1.2,0.7-1.6H0.2
		c-0.1,0-0.1,0-0.1-0.1v-0.6c0-0.1,0-0.1,0.1-0.1H7c0.1,0,0.1,0,0.1,0.1v0.6c0,0.1,0,0.1-0.1,0.1H6.5C6.7,14,6.9,14.3,7,14.5
		c0.1,0.3,0.2,0.6,0.2,0.9C7.2,16.1,7,16.7,6.5,17.1z M3.2,16.4c0.4,0.3,0.8,0.4,1.3,0.4c0.5,0,1-0.1,1.3-0.4s0.5-0.7,0.5-1.1
		c0-0.5-0.2-0.8-0.5-1.1s-0.8-0.4-1.3-0.4c-0.5,0-1,0.1-1.3,0.4s-0.5,0.6-0.5,1.1C2.7,15.8,2.9,16.2,3.2,16.4z"/>
	<path class="st0" d="M1.1,9.3H0.2c-0.1,0-0.1,0-0.1-0.1V8.4c0-0.1,0-0.1,0.1-0.1h0.9c0.1,0,0.1,0,0.1,0.1v0.9
		C1.2,9.3,1.1,9.3,1.1,9.3z M7,10.9H6.5c-0.1,0-0.1,0-0.1-0.1V9.1H2.8v1.5c0,0.1,0,0.1-0.1,0.1H2.2c-0.1,0-0.1,0-0.1-0.1V8.4
		c0-0.1,0-0.1,0.1-0.1h4.2V6.6c0-0.1,0-0.1,0.1-0.1H7c0.1,0,0.1,0,0.1,0.1L7,10.9C7.1,10.9,7.1,10.9,7,10.9z"/>
	<path class="st0" d="M6.5,4.3C6,4.8,5.4,5,4.6,5C3.8,5,3.2,4.8,2.7,4.3C2.2,3.8,2,3.2,2,2.5c0-0.7,0.2-1.3,0.7-1.8
		C3.2,0.2,3.8,0,4.6,0C5.4,0,6,0.2,6.5,0.7C7,1.2,7.2,1.8,7.2,2.5C7.2,3.2,7,3.8,6.5,4.3z M3.2,3.7C3.6,4,4,4.2,4.6,4.2
		c0.5,0,1-0.2,1.3-0.5C6.3,3.4,6.5,3,6.5,2.5c0-0.5-0.2-0.9-0.5-1.2C5.6,1,5.1,0.8,4.6,0.8C4,0.8,3.6,1,3.2,1.3
		C2.9,1.6,2.7,2,2.7,2.5C2.7,3,2.9,3.4,3.2,3.7z"/>
</g>
<g>
	<g>
		<rect x="10.3" y="0.1" class="st0" width="0.8" height="100.7"/>
	</g>
</g>
</svg>
