<?xml version="1.0" encoding="utf-8"?>
<!-- Generator: Adobe Illustrator 24.0.0, SVG Export Plug-In . SVG Version: 6.00 Build 0)  -->
<svg version="1.1" id="Layer_1" xmlns="http://www.w3.org/2000/svg" xmlns:xlink="http://www.w3.org/1999/xlink" x="0px" y="0px"
	 viewBox="0 0 356.5 356.5" style="enable-background:new 0 0 356.5 356.5;" xml:space="preserve">
<style type="text/css">
	.st0{fill:#4D4D4D;}
</style>
<path class="st0" d="M178.7,35c46.9,0,52.4,0.2,70.9,1c47.6,2.2,69.8,24.7,71.9,71.9c0.8,18.5,1,24.1,1,70.9c0,46.9-0.2,52.4-1,70.9
	c-2.2,47.2-24.3,69.8-71.9,71.9c-18.5,0.8-24,1-70.9,1c-46.9,0-52.4-0.2-70.9-1c-47.7-2.2-69.8-24.8-71.9-72c-0.8-18.5-1-24-1-70.9
	c0-46.9,0.2-52.4,1-70.9C38,60.7,60.1,38.1,107.7,36C126.3,35.1,131.8,35,178.7,35z M178.7,3.3c-47.7,0-53.6,0.2-72.4,1.1
	C42.6,7.3,7.1,42.7,4.2,106.5c-0.9,18.7-1.1,24.7-1.1,72.4s0.2,53.6,1.1,72.4c2.9,63.7,38.3,99.2,102.1,102.1
	c18.7,0.8,24.7,1.1,72.4,1.1s53.6-0.2,72.4-1.1c63.7-2.9,99.2-38.3,102.1-102.1c0.9-18.7,1.1-24.7,1.1-72.4s-0.2-53.6-1.1-72.4
	C350.2,42.8,314.8,7.3,251,4.4C232.3,3.5,226.3,3.3,178.7,3.3z M178.7,88.7c-49.8,0-90.1,40.4-90.1,90.1c0,49.8,40.4,90.1,90.1,90.1
	s90.1-40.4,90.1-90.1C268.8,129.1,228.4,88.7,178.7,88.7z M178.7,237.3c-32.3,0-58.5-26.2-58.5-58.5c0-32.3,26.2-58.5,58.5-58.5
	s58.5,26.2,58.5,58.5C237.2,211.2,211,237.3,178.7,237.3z M272.3,64.1c-11.6,0-21.1,9.4-21.1,21.1c0,11.6,9.4,21.1,21.1,21.1
	c11.6,0,21-9.4,21-21.1C293.4,73.5,284,64.1,272.3,64.1z"/>
</svg>
