<?xml version="1.0" encoding="utf-8"?>
<!-- Generator: Adobe Illustrator 17.1.0, SVG Export Plug-In . SVG Version: 6.00 Build 0)  -->
<!DOCTYPE svg PUBLIC "-//W3C//DTD SVG 1.1//EN" "http://www.w3.org/Graphics/SVG/1.1/DTD/svg11.dtd">
<svg version="1.1" id="Layer_1" xmlns="http://www.w3.org/2000/svg" xmlns:xlink="http://www.w3.org/1999/xlink" x="0px" y="0px"
	 viewBox="0 0 411.8 412" enable-background="new 0 0 411.8 412" xml:space="preserve">
<path id="linkedin-icon" fill="#4E4E4E" d="M100.5,50.7c0,28-22.5,50.7-50.3,50.7C22.5,101.4,0,78.7,0,50.7C0,22.7,22.5,0,50.3,0
	C78,0,100.5,22.7,100.5,50.7z M93.2,137.3h-85V412h85V137.3z M229.1,137.3h-81.5V412h81.5c0,0,0-101.9,0-144.2
	c0-38.6,17.8-61.6,51.8-61.6c31.3,0,46.3,22.1,46.3,61.6c0,39.5,0,144.2,0,144.2h84.6c0,0,0-100.3,0-173.9S370.1,129,311.9,129
	c-58.2,0-82.8,45.4-82.8,45.4L229.1,137.3L229.1,137.3z"/>
</svg>
