<?xml version="1.0" encoding="utf-8"?>
<!-- Generator: Adobe Illustrator 17.1.0, SVG Export Plug-In . SVG Version: 6.00 Build 0)  -->
<!DOCTYPE svg PUBLIC "-//W3C//DTD SVG 1.1//EN" "http://www.w3.org/Graphics/SVG/1.1/DTD/svg11.dtd">
<svg version="1.1" id="Layer_1" xmlns="http://www.w3.org/2000/svg" xmlns:xlink="http://www.w3.org/1999/xlink" x="0px" y="0px"
	 viewBox="214.2 268.7 356.5 356.5" enable-background="new 214.2 268.7 356.5 356.5" xml:space="preserve">
<path id="twitter-icon" fill="#4D4D4D" d="M570.9,336.3c-13.1,5.8-27.2,9.8-42,11.5c15.1-9.1,26.7-23.4,32.2-40.5
	c-14.1,8.4-29.8,14.5-46.5,17.8c-13.4-14.2-32.4-23.1-53.4-23.1c-47.3,0-82,44.1-71.3,89.9c-60.8-3.1-114.8-32.2-150.9-76.5
	c-19.2,32.9-9.9,76,22.7,97.7c-12-0.4-23.3-3.7-33.2-9.2c-0.8,33.9,23.5,65.6,58.7,72.7c-10.3,2.8-21.6,3.4-33.1,1.3
	c9.3,29.1,36.4,50.3,68.4,50.8c-30.8,24.1-69.5,34.9-108.4,30.3c32.4,20.8,70.9,32.9,112.2,32.9c135.9,0,212.7-114.8,208.1-217.8
	C548.6,363.8,561,350.9,570.9,336.3z"/>
</svg>
